<?xml version="1.0" encoding="utf-8" standalone="no"?>
<!DOCTYPE svg PUBLIC "-//W3C//DTD SVG 1.1//EN"
  "http://www.w3.org/Graphics/SVG/1.1/DTD/svg11.dtd">
<svg height="288pt" version="1.1" viewBox="0 0 576 288" width="576pt" xmlns="http://www.w3.org/2000/svg" xmlns:xlink="http://www.w3.org/1999/xlink">
 <metadata>
  <rdf:RDF xmlns:cc="http://creativecommons.org/ns#" xmlns:dc="http://purl.org/dc/elements/1.1/" xmlns:rdf="http://www.w3.org/1999/02/22-rdf-syntax-ns#">
   <cc:Work>
    <dc:type rdf:resource="http://purl.org/dc/dcmitype/StillImage"/>
    <dc:date>2022-04-24T09:05:00.453817</dc:date>
    <dc:format>image/svg+xml</dc:format>
    <dc:creator>
     <cc:Agent>
      <dc:title>Matplotlib v3.4.2, https://matplotlib.org/</dc:title>
     </cc:Agent>
    </dc:creator>
   </cc:Work>
  </rdf:RDF>
 </metadata>
 <defs>
  <style type="text/css">*{stroke-linecap:butt;stroke-linejoin:round;}</style>
 </defs>
 <g id="figure_1">
  <g id="patch_1">
   <path d="M 0 288 
L 576 288 
L 576 0 
L 0 0 
z
" style="fill:#ffffff;"/>
  </g>
  <g id="axes_1">
   <g id="patch_2">
    <path d="M 54.24 229.62 
L 279.36 229.62 
L 279.36 17.28 
L 54.24 17.28 
z
" style="fill:#ffffff;"/>
   </g>
   <g id="matplotlib.axis_1">
    <g id="xtick_1">
     <g id="line2d_1">
      <defs>
       <path d="M 0 0 
L 0 4.8 
" id="m6146f6ec31" style="stroke:#262626;"/>
      </defs>
      <g>
       <use style="fill:#262626;stroke:#262626;" x="92.496875" xlink:href="#m6146f6ec31" y="229.62"/>
      </g>
     </g>
     <g id="text_1">
      <!-- 0.25 -->
      <g style="fill:#262626;" transform="translate(74.684375 250.0775)scale(0.16 -0.16)">
       <defs>
        <path d="M 2034 4250 
Q 1547 4250 1301 3770 
Q 1056 3291 1056 2328 
Q 1056 1369 1301 889 
Q 1547 409 2034 409 
Q 2525 409 2770 889 
Q 3016 1369 3016 2328 
Q 3016 3291 2770 3770 
Q 2525 4250 2034 4250 
z
M 2034 4750 
Q 2819 4750 3233 4129 
Q 3647 3509 3647 2328 
Q 3647 1150 3233 529 
Q 2819 -91 2034 -91 
Q 1250 -91 836 529 
Q 422 1150 422 2328 
Q 422 3509 836 4129 
Q 1250 4750 2034 4750 
z
" id="DejaVuSans-30" transform="scale(0.015625)"/>
        <path d="M 684 794 
L 1344 794 
L 1344 0 
L 684 0 
L 684 794 
z
" id="DejaVuSans-2e" transform="scale(0.015625)"/>
        <path d="M 1228 531 
L 3431 531 
L 3431 0 
L 469 0 
L 469 531 
Q 828 903 1448 1529 
Q 2069 2156 2228 2338 
Q 2531 2678 2651 2914 
Q 2772 3150 2772 3378 
Q 2772 3750 2511 3984 
Q 2250 4219 1831 4219 
Q 1534 4219 1204 4116 
Q 875 4013 500 3803 
L 500 4441 
Q 881 4594 1212 4672 
Q 1544 4750 1819 4750 
Q 2544 4750 2975 4387 
Q 3406 4025 3406 3419 
Q 3406 3131 3298 2873 
Q 3191 2616 2906 2266 
Q 2828 2175 2409 1742 
Q 1991 1309 1228 531 
z
" id="DejaVuSans-32" transform="scale(0.015625)"/>
        <path d="M 691 4666 
L 3169 4666 
L 3169 4134 
L 1269 4134 
L 1269 2991 
Q 1406 3038 1543 3061 
Q 1681 3084 1819 3084 
Q 2600 3084 3056 2656 
Q 3513 2228 3513 1497 
Q 3513 744 3044 326 
Q 2575 -91 1722 -91 
Q 1428 -91 1123 -41 
Q 819 9 494 109 
L 494 744 
Q 775 591 1075 516 
Q 1375 441 1709 441 
Q 2250 441 2565 725 
Q 2881 1009 2881 1497 
Q 2881 1984 2565 2268 
Q 2250 2553 1709 2553 
Q 1456 2553 1204 2497 
Q 953 2441 691 2322 
L 691 4666 
z
" id="DejaVuSans-35" transform="scale(0.015625)"/>
       </defs>
       <use xlink:href="#DejaVuSans-30"/>
       <use x="63.623047" xlink:href="#DejaVuSans-2e"/>
       <use x="95.410156" xlink:href="#DejaVuSans-32"/>
       <use x="159.033203" xlink:href="#DejaVuSans-35"/>
      </g>
     </g>
    </g>
    <g id="xtick_2">
     <g id="line2d_2">
      <g>
       <use style="fill:#262626;stroke:#262626;" x="154.416146" xlink:href="#m6146f6ec31" y="229.62"/>
      </g>
     </g>
     <g id="text_2">
      <!-- 0.50 -->
      <g style="fill:#262626;" transform="translate(136.603646 250.0775)scale(0.16 -0.16)">
       <use xlink:href="#DejaVuSans-30"/>
       <use x="63.623047" xlink:href="#DejaVuSans-2e"/>
       <use x="95.410156" xlink:href="#DejaVuSans-35"/>
       <use x="159.033203" xlink:href="#DejaVuSans-30"/>
      </g>
     </g>
    </g>
    <g id="xtick_3">
     <g id="line2d_3">
      <g>
       <use style="fill:#262626;stroke:#262626;" x="216.335416" xlink:href="#m6146f6ec31" y="229.62"/>
      </g>
     </g>
     <g id="text_3">
      <!-- 0.75 -->
      <g style="fill:#262626;" transform="translate(198.522916 250.0775)scale(0.16 -0.16)">
       <defs>
        <path d="M 525 4666 
L 3525 4666 
L 3525 4397 
L 1831 0 
L 1172 0 
L 2766 4134 
L 525 4134 
L 525 4666 
z
" id="DejaVuSans-37" transform="scale(0.015625)"/>
       </defs>
       <use xlink:href="#DejaVuSans-30"/>
       <use x="63.623047" xlink:href="#DejaVuSans-2e"/>
       <use x="95.410156" xlink:href="#DejaVuSans-37"/>
       <use x="159.033203" xlink:href="#DejaVuSans-35"/>
      </g>
     </g>
    </g>
    <g id="text_4">
     <!-- Fraction of +ve Edges -->
     <g style="fill:#262626;" transform="translate(78.8625 269.5625)scale(0.16 -0.16)">
      <defs>
       <path d="M 628 4666 
L 3309 4666 
L 3309 4134 
L 1259 4134 
L 1259 2759 
L 3109 2759 
L 3109 2228 
L 1259 2228 
L 1259 0 
L 628 0 
L 628 4666 
z
" id="DejaVuSans-46" transform="scale(0.015625)"/>
       <path d="M 2631 2963 
Q 2534 3019 2420 3045 
Q 2306 3072 2169 3072 
Q 1681 3072 1420 2755 
Q 1159 2438 1159 1844 
L 1159 0 
L 581 0 
L 581 3500 
L 1159 3500 
L 1159 2956 
Q 1341 3275 1631 3429 
Q 1922 3584 2338 3584 
Q 2397 3584 2469 3576 
Q 2541 3569 2628 3553 
L 2631 2963 
z
" id="DejaVuSans-72" transform="scale(0.015625)"/>
       <path d="M 2194 1759 
Q 1497 1759 1228 1600 
Q 959 1441 959 1056 
Q 959 750 1161 570 
Q 1363 391 1709 391 
Q 2188 391 2477 730 
Q 2766 1069 2766 1631 
L 2766 1759 
L 2194 1759 
z
M 3341 1997 
L 3341 0 
L 2766 0 
L 2766 531 
Q 2569 213 2275 61 
Q 1981 -91 1556 -91 
Q 1019 -91 701 211 
Q 384 513 384 1019 
Q 384 1609 779 1909 
Q 1175 2209 1959 2209 
L 2766 2209 
L 2766 2266 
Q 2766 2663 2505 2880 
Q 2244 3097 1772 3097 
Q 1472 3097 1187 3025 
Q 903 2953 641 2809 
L 641 3341 
Q 956 3463 1253 3523 
Q 1550 3584 1831 3584 
Q 2591 3584 2966 3190 
Q 3341 2797 3341 1997 
z
" id="DejaVuSans-61" transform="scale(0.015625)"/>
       <path d="M 3122 3366 
L 3122 2828 
Q 2878 2963 2633 3030 
Q 2388 3097 2138 3097 
Q 1578 3097 1268 2742 
Q 959 2388 959 1747 
Q 959 1106 1268 751 
Q 1578 397 2138 397 
Q 2388 397 2633 464 
Q 2878 531 3122 666 
L 3122 134 
Q 2881 22 2623 -34 
Q 2366 -91 2075 -91 
Q 1284 -91 818 406 
Q 353 903 353 1747 
Q 353 2603 823 3093 
Q 1294 3584 2113 3584 
Q 2378 3584 2631 3529 
Q 2884 3475 3122 3366 
z
" id="DejaVuSans-63" transform="scale(0.015625)"/>
       <path d="M 1172 4494 
L 1172 3500 
L 2356 3500 
L 2356 3053 
L 1172 3053 
L 1172 1153 
Q 1172 725 1289 603 
Q 1406 481 1766 481 
L 2356 481 
L 2356 0 
L 1766 0 
Q 1100 0 847 248 
Q 594 497 594 1153 
L 594 3053 
L 172 3053 
L 172 3500 
L 594 3500 
L 594 4494 
L 1172 4494 
z
" id="DejaVuSans-74" transform="scale(0.015625)"/>
       <path d="M 603 3500 
L 1178 3500 
L 1178 0 
L 603 0 
L 603 3500 
z
M 603 4863 
L 1178 4863 
L 1178 4134 
L 603 4134 
L 603 4863 
z
" id="DejaVuSans-69" transform="scale(0.015625)"/>
       <path d="M 1959 3097 
Q 1497 3097 1228 2736 
Q 959 2375 959 1747 
Q 959 1119 1226 758 
Q 1494 397 1959 397 
Q 2419 397 2687 759 
Q 2956 1122 2956 1747 
Q 2956 2369 2687 2733 
Q 2419 3097 1959 3097 
z
M 1959 3584 
Q 2709 3584 3137 3096 
Q 3566 2609 3566 1747 
Q 3566 888 3137 398 
Q 2709 -91 1959 -91 
Q 1206 -91 779 398 
Q 353 888 353 1747 
Q 353 2609 779 3096 
Q 1206 3584 1959 3584 
z
" id="DejaVuSans-6f" transform="scale(0.015625)"/>
       <path d="M 3513 2113 
L 3513 0 
L 2938 0 
L 2938 2094 
Q 2938 2591 2744 2837 
Q 2550 3084 2163 3084 
Q 1697 3084 1428 2787 
Q 1159 2491 1159 1978 
L 1159 0 
L 581 0 
L 581 3500 
L 1159 3500 
L 1159 2956 
Q 1366 3272 1645 3428 
Q 1925 3584 2291 3584 
Q 2894 3584 3203 3211 
Q 3513 2838 3513 2113 
z
" id="DejaVuSans-6e" transform="scale(0.015625)"/>
       <path id="DejaVuSans-20" transform="scale(0.015625)"/>
       <path d="M 2375 4863 
L 2375 4384 
L 1825 4384 
Q 1516 4384 1395 4259 
Q 1275 4134 1275 3809 
L 1275 3500 
L 2222 3500 
L 2222 3053 
L 1275 3053 
L 1275 0 
L 697 0 
L 697 3053 
L 147 3053 
L 147 3500 
L 697 3500 
L 697 3744 
Q 697 4328 969 4595 
Q 1241 4863 1831 4863 
L 2375 4863 
z
" id="DejaVuSans-66" transform="scale(0.015625)"/>
       <path d="M 2944 4013 
L 2944 2272 
L 4684 2272 
L 4684 1741 
L 2944 1741 
L 2944 0 
L 2419 0 
L 2419 1741 
L 678 1741 
L 678 2272 
L 2419 2272 
L 2419 4013 
L 2944 4013 
z
" id="DejaVuSans-2b" transform="scale(0.015625)"/>
       <path d="M 191 3500 
L 800 3500 
L 1894 563 
L 2988 3500 
L 3597 3500 
L 2284 0 
L 1503 0 
L 191 3500 
z
" id="DejaVuSans-76" transform="scale(0.015625)"/>
       <path d="M 3597 1894 
L 3597 1613 
L 953 1613 
Q 991 1019 1311 708 
Q 1631 397 2203 397 
Q 2534 397 2845 478 
Q 3156 559 3463 722 
L 3463 178 
Q 3153 47 2828 -22 
Q 2503 -91 2169 -91 
Q 1331 -91 842 396 
Q 353 884 353 1716 
Q 353 2575 817 3079 
Q 1281 3584 2069 3584 
Q 2775 3584 3186 3129 
Q 3597 2675 3597 1894 
z
M 3022 2063 
Q 3016 2534 2758 2815 
Q 2500 3097 2075 3097 
Q 1594 3097 1305 2825 
Q 1016 2553 972 2059 
L 3022 2063 
z
" id="DejaVuSans-65" transform="scale(0.015625)"/>
       <path d="M 628 4666 
L 3578 4666 
L 3578 4134 
L 1259 4134 
L 1259 2753 
L 3481 2753 
L 3481 2222 
L 1259 2222 
L 1259 531 
L 3634 531 
L 3634 0 
L 628 0 
L 628 4666 
z
" id="DejaVuSans-45" transform="scale(0.015625)"/>
       <path d="M 2906 2969 
L 2906 4863 
L 3481 4863 
L 3481 0 
L 2906 0 
L 2906 525 
Q 2725 213 2448 61 
Q 2172 -91 1784 -91 
Q 1150 -91 751 415 
Q 353 922 353 1747 
Q 353 2572 751 3078 
Q 1150 3584 1784 3584 
Q 2172 3584 2448 3432 
Q 2725 3281 2906 2969 
z
M 947 1747 
Q 947 1113 1208 752 
Q 1469 391 1925 391 
Q 2381 391 2643 752 
Q 2906 1113 2906 1747 
Q 2906 2381 2643 2742 
Q 2381 3103 1925 3103 
Q 1469 3103 1208 2742 
Q 947 2381 947 1747 
z
" id="DejaVuSans-64" transform="scale(0.015625)"/>
       <path d="M 2906 1791 
Q 2906 2416 2648 2759 
Q 2391 3103 1925 3103 
Q 1463 3103 1205 2759 
Q 947 2416 947 1791 
Q 947 1169 1205 825 
Q 1463 481 1925 481 
Q 2391 481 2648 825 
Q 2906 1169 2906 1791 
z
M 3481 434 
Q 3481 -459 3084 -895 
Q 2688 -1331 1869 -1331 
Q 1566 -1331 1297 -1286 
Q 1028 -1241 775 -1147 
L 775 -588 
Q 1028 -725 1275 -790 
Q 1522 -856 1778 -856 
Q 2344 -856 2625 -561 
Q 2906 -266 2906 331 
L 2906 616 
Q 2728 306 2450 153 
Q 2172 0 1784 0 
Q 1141 0 747 490 
Q 353 981 353 1791 
Q 353 2603 747 3093 
Q 1141 3584 1784 3584 
Q 2172 3584 2450 3431 
Q 2728 3278 2906 2969 
L 2906 3500 
L 3481 3500 
L 3481 434 
z
" id="DejaVuSans-67" transform="scale(0.015625)"/>
       <path d="M 2834 3397 
L 2834 2853 
Q 2591 2978 2328 3040 
Q 2066 3103 1784 3103 
Q 1356 3103 1142 2972 
Q 928 2841 928 2578 
Q 928 2378 1081 2264 
Q 1234 2150 1697 2047 
L 1894 2003 
Q 2506 1872 2764 1633 
Q 3022 1394 3022 966 
Q 3022 478 2636 193 
Q 2250 -91 1575 -91 
Q 1294 -91 989 -36 
Q 684 19 347 128 
L 347 722 
Q 666 556 975 473 
Q 1284 391 1588 391 
Q 1994 391 2212 530 
Q 2431 669 2431 922 
Q 2431 1156 2273 1281 
Q 2116 1406 1581 1522 
L 1381 1569 
Q 847 1681 609 1914 
Q 372 2147 372 2553 
Q 372 3047 722 3315 
Q 1072 3584 1716 3584 
Q 2034 3584 2315 3537 
Q 2597 3491 2834 3397 
z
" id="DejaVuSans-73" transform="scale(0.015625)"/>
      </defs>
      <use xlink:href="#DejaVuSans-46"/>
      <use x="50.269531" xlink:href="#DejaVuSans-72"/>
      <use x="91.382812" xlink:href="#DejaVuSans-61"/>
      <use x="152.662109" xlink:href="#DejaVuSans-63"/>
      <use x="207.642578" xlink:href="#DejaVuSans-74"/>
      <use x="246.851562" xlink:href="#DejaVuSans-69"/>
      <use x="274.634766" xlink:href="#DejaVuSans-6f"/>
      <use x="335.816406" xlink:href="#DejaVuSans-6e"/>
      <use x="399.195312" xlink:href="#DejaVuSans-20"/>
      <use x="430.982422" xlink:href="#DejaVuSans-6f"/>
      <use x="492.164062" xlink:href="#DejaVuSans-66"/>
      <use x="527.369141" xlink:href="#DejaVuSans-20"/>
      <use x="559.15625" xlink:href="#DejaVuSans-2b"/>
      <use x="642.945312" xlink:href="#DejaVuSans-76"/>
      <use x="702.125" xlink:href="#DejaVuSans-65"/>
      <use x="763.648438" xlink:href="#DejaVuSans-20"/>
      <use x="795.435547" xlink:href="#DejaVuSans-45"/>
      <use x="858.619141" xlink:href="#DejaVuSans-64"/>
      <use x="922.095703" xlink:href="#DejaVuSans-67"/>
      <use x="985.572266" xlink:href="#DejaVuSans-65"/>
      <use x="1047.095703" xlink:href="#DejaVuSans-73"/>
     </g>
    </g>
   </g>
   <g id="matplotlib.axis_2">
    <g id="ytick_1">
     <g id="line2d_4">
      <defs>
       <path d="M 0 0 
L -4.8 0 
" id="m6234278768" style="stroke:#262626;"/>
      </defs>
      <g>
       <use style="fill:#262626;stroke:#262626;" x="54.24" xlink:href="#m6234278768" y="229.62"/>
      </g>
     </g>
     <g id="text_5">
      <!-- 0 -->
      <g style="fill:#262626;" transform="translate(35.76 235.69875)scale(0.16 -0.16)">
       <use xlink:href="#DejaVuSans-30"/>
      </g>
     </g>
    </g>
    <g id="ytick_2">
     <g id="line2d_5">
      <g>
       <use style="fill:#262626;stroke:#262626;" x="54.24" xlink:href="#m6234278768" y="190.966742"/>
      </g>
     </g>
     <g id="text_6">
      <!-- 1 -->
      <g style="fill:#262626;" transform="translate(35.76 197.045492)scale(0.16 -0.16)">
       <defs>
        <path d="M 794 531 
L 1825 531 
L 1825 4091 
L 703 3866 
L 703 4441 
L 1819 4666 
L 2450 4666 
L 2450 531 
L 3481 531 
L 3481 0 
L 794 0 
L 794 531 
z
" id="DejaVuSans-31" transform="scale(0.015625)"/>
       </defs>
       <use xlink:href="#DejaVuSans-31"/>
      </g>
     </g>
    </g>
    <g id="ytick_3">
     <g id="line2d_6">
      <g>
       <use style="fill:#262626;stroke:#262626;" x="54.24" xlink:href="#m6234278768" y="152.313483"/>
      </g>
     </g>
     <g id="text_7">
      <!-- 2 -->
      <g style="fill:#262626;" transform="translate(35.76 158.392233)scale(0.16 -0.16)">
       <use xlink:href="#DejaVuSans-32"/>
      </g>
     </g>
    </g>
    <g id="ytick_4">
     <g id="line2d_7">
      <g>
       <use style="fill:#262626;stroke:#262626;" x="54.24" xlink:href="#m6234278768" y="113.660225"/>
      </g>
     </g>
     <g id="text_8">
      <!-- 3 -->
      <g style="fill:#262626;" transform="translate(35.76 119.738975)scale(0.16 -0.16)">
       <defs>
        <path d="M 2597 2516 
Q 3050 2419 3304 2112 
Q 3559 1806 3559 1356 
Q 3559 666 3084 287 
Q 2609 -91 1734 -91 
Q 1441 -91 1130 -33 
Q 819 25 488 141 
L 488 750 
Q 750 597 1062 519 
Q 1375 441 1716 441 
Q 2309 441 2620 675 
Q 2931 909 2931 1356 
Q 2931 1769 2642 2001 
Q 2353 2234 1838 2234 
L 1294 2234 
L 1294 2753 
L 1863 2753 
Q 2328 2753 2575 2939 
Q 2822 3125 2822 3475 
Q 2822 3834 2567 4026 
Q 2313 4219 1838 4219 
Q 1578 4219 1281 4162 
Q 984 4106 628 3988 
L 628 4550 
Q 988 4650 1302 4700 
Q 1616 4750 1894 4750 
Q 2613 4750 3031 4423 
Q 3450 4097 3450 3541 
Q 3450 3153 3228 2886 
Q 3006 2619 2597 2516 
z
" id="DejaVuSans-33" transform="scale(0.015625)"/>
       </defs>
       <use xlink:href="#DejaVuSans-33"/>
      </g>
     </g>
    </g>
    <g id="ytick_5">
     <g id="line2d_8">
      <g>
       <use style="fill:#262626;stroke:#262626;" x="54.24" xlink:href="#m6234278768" y="75.006966"/>
      </g>
     </g>
     <g id="text_9">
      <!-- 4 -->
      <g style="fill:#262626;" transform="translate(35.76 81.085716)scale(0.16 -0.16)">
       <defs>
        <path d="M 2419 4116 
L 825 1625 
L 2419 1625 
L 2419 4116 
z
M 2253 4666 
L 3047 4666 
L 3047 1625 
L 3713 1625 
L 3713 1100 
L 3047 1100 
L 3047 0 
L 2419 0 
L 2419 1100 
L 313 1100 
L 313 1709 
L 2253 4666 
z
" id="DejaVuSans-34" transform="scale(0.015625)"/>
       </defs>
       <use xlink:href="#DejaVuSans-34"/>
      </g>
     </g>
    </g>
    <g id="ytick_6">
     <g id="line2d_9">
      <g>
       <use style="fill:#262626;stroke:#262626;" x="54.24" xlink:href="#m6234278768" y="36.353708"/>
      </g>
     </g>
     <g id="text_10">
      <!-- 5 -->
      <g style="fill:#262626;" transform="translate(35.76 42.432458)scale(0.16 -0.16)">
       <use xlink:href="#DejaVuSans-35"/>
      </g>
     </g>
    </g>
    <g id="text_11">
     <!-- Density -->
     <g style="fill:#262626;" transform="translate(28.4325 153.86375)rotate(-90)scale(0.16 -0.16)">
      <defs>
       <path d="M 1259 4147 
L 1259 519 
L 2022 519 
Q 2988 519 3436 956 
Q 3884 1394 3884 2338 
Q 3884 3275 3436 3711 
Q 2988 4147 2022 4147 
L 1259 4147 
z
M 628 4666 
L 1925 4666 
Q 3281 4666 3915 4102 
Q 4550 3538 4550 2338 
Q 4550 1131 3912 565 
Q 3275 0 1925 0 
L 628 0 
L 628 4666 
z
" id="DejaVuSans-44" transform="scale(0.015625)"/>
       <path d="M 2059 -325 
Q 1816 -950 1584 -1140 
Q 1353 -1331 966 -1331 
L 506 -1331 
L 506 -850 
L 844 -850 
Q 1081 -850 1212 -737 
Q 1344 -625 1503 -206 
L 1606 56 
L 191 3500 
L 800 3500 
L 1894 763 
L 2988 3500 
L 3597 3500 
L 2059 -325 
z
" id="DejaVuSans-79" transform="scale(0.015625)"/>
      </defs>
      <use xlink:href="#DejaVuSans-44"/>
      <use x="77.001953" xlink:href="#DejaVuSans-65"/>
      <use x="138.525391" xlink:href="#DejaVuSans-6e"/>
      <use x="201.904297" xlink:href="#DejaVuSans-73"/>
      <use x="254.003906" xlink:href="#DejaVuSans-69"/>
      <use x="281.787109" xlink:href="#DejaVuSans-74"/>
      <use x="320.996094" xlink:href="#DejaVuSans-79"/>
     </g>
    </g>
   </g>
   <g id="PolyCollection_1">
    <defs>
     <path d="M 64.472727 -58.434273 
L 64.472727 -58.38 
L 65.501142 -58.38 
L 66.529557 -58.38 
L 67.557972 -58.38 
L 68.586386 -58.38 
L 69.614801 -58.38 
L 70.643216 -58.38 
L 71.671631 -58.38 
L 72.700046 -58.38 
L 73.72846 -58.38 
L 74.756875 -58.38 
L 75.78529 -58.38 
L 76.813705 -58.38 
L 77.84212 -58.38 
L 78.870534 -58.38 
L 79.898949 -58.38 
L 80.927364 -58.38 
L 81.955779 -58.38 
L 82.984194 -58.38 
L 84.012608 -58.38 
L 85.041023 -58.38 
L 86.069438 -58.38 
L 87.097853 -58.38 
L 88.126268 -58.38 
L 89.154683 -58.38 
L 90.183097 -58.38 
L 91.211512 -58.38 
L 92.239927 -58.38 
L 93.268342 -58.38 
L 94.296757 -58.38 
L 95.325171 -58.38 
L 96.353586 -58.38 
L 97.382001 -58.38 
L 98.410416 -58.38 
L 99.438831 -58.38 
L 100.467245 -58.38 
L 101.49566 -58.38 
L 102.524075 -58.38 
L 103.55249 -58.38 
L 104.580905 -58.38 
L 105.609319 -58.38 
L 106.637734 -58.38 
L 107.666149 -58.38 
L 108.694564 -58.38 
L 109.722979 -58.38 
L 110.751393 -58.38 
L 111.779808 -58.38 
L 112.808223 -58.38 
L 113.836638 -58.38 
L 114.865053 -58.38 
L 115.893467 -58.38 
L 116.921882 -58.38 
L 117.950297 -58.38 
L 118.978712 -58.38 
L 120.007127 -58.38 
L 121.035541 -58.38 
L 122.063956 -58.38 
L 123.092371 -58.38 
L 124.120786 -58.38 
L 125.149201 -58.38 
L 126.177615 -58.38 
L 127.20603 -58.38 
L 128.234445 -58.38 
L 129.26286 -58.38 
L 130.291275 -58.38 
L 131.319689 -58.38 
L 132.348104 -58.38 
L 133.376519 -58.38 
L 134.404934 -58.38 
L 135.433349 -58.38 
L 136.461763 -58.38 
L 137.490178 -58.38 
L 138.518593 -58.38 
L 139.547008 -58.38 
L 140.575423 -58.38 
L 141.603837 -58.38 
L 142.632252 -58.38 
L 143.660667 -58.38 
L 144.689082 -58.38 
L 145.717497 -58.38 
L 146.745911 -58.38 
L 147.774326 -58.38 
L 148.802741 -58.38 
L 149.831156 -58.38 
L 150.859571 -58.38 
L 151.887985 -58.38 
L 152.9164 -58.38 
L 153.944815 -58.38 
L 154.97323 -58.38 
L 156.001645 -58.38 
L 157.030059 -58.38 
L 158.058474 -58.38 
L 159.086889 -58.38 
L 160.115304 -58.38 
L 161.143719 -58.38 
L 162.172133 -58.38 
L 163.200548 -58.38 
L 164.228963 -58.38 
L 165.257378 -58.38 
L 166.285793 -58.38 
L 167.314207 -58.38 
L 168.342622 -58.38 
L 169.371037 -58.38 
L 170.399452 -58.38 
L 171.427867 -58.38 
L 172.456281 -58.38 
L 173.484696 -58.38 
L 174.513111 -58.38 
L 175.541526 -58.38 
L 176.569941 -58.38 
L 177.598355 -58.38 
L 178.62677 -58.38 
L 179.655185 -58.38 
L 180.6836 -58.38 
L 181.712015 -58.38 
L 182.740429 -58.38 
L 183.768844 -58.38 
L 184.797259 -58.38 
L 185.825674 -58.38 
L 186.854089 -58.38 
L 187.882503 -58.38 
L 188.910918 -58.38 
L 189.939333 -58.38 
L 190.967748 -58.38 
L 191.996163 -58.38 
L 193.024577 -58.38 
L 194.052992 -58.38 
L 195.081407 -58.38 
L 196.109822 -58.38 
L 197.138237 -58.38 
L 198.166651 -58.38 
L 199.195066 -58.38 
L 200.223481 -58.38 
L 201.251896 -58.38 
L 202.280311 -58.38 
L 203.308725 -58.38 
L 204.33714 -58.38 
L 205.365555 -58.38 
L 206.39397 -58.38 
L 207.422385 -58.38 
L 208.450799 -58.38 
L 209.479214 -58.38 
L 210.507629 -58.38 
L 211.536044 -58.38 
L 212.564459 -58.38 
L 213.592873 -58.38 
L 214.621288 -58.38 
L 215.649703 -58.38 
L 216.678118 -58.38 
L 217.706533 -58.38 
L 218.734947 -58.38 
L 219.763362 -58.38 
L 220.791777 -58.38 
L 221.820192 -58.38 
L 222.848607 -58.38 
L 223.877021 -58.38 
L 224.905436 -58.38 
L 225.933851 -58.38 
L 226.962266 -58.38 
L 227.990681 -58.38 
L 229.019095 -58.38 
L 230.04751 -58.38 
L 231.075925 -58.38 
L 232.10434 -58.38 
L 233.132755 -58.38 
L 234.161169 -58.38 
L 235.189584 -58.38 
L 236.217999 -58.38 
L 237.246414 -58.38 
L 238.274829 -58.38 
L 239.303243 -58.38 
L 240.331658 -58.38 
L 241.360073 -58.38 
L 242.388488 -58.38 
L 243.416903 -58.38 
L 244.445317 -58.38 
L 245.473732 -58.38 
L 246.502147 -58.38 
L 247.530562 -58.38 
L 248.558977 -58.38 
L 249.587392 -58.38 
L 250.615806 -58.38 
L 251.644221 -58.38 
L 252.672636 -58.38 
L 253.701051 -58.38 
L 254.729466 -58.38 
L 255.75788 -58.38 
L 256.786295 -58.38 
L 257.81471 -58.38 
L 258.843125 -58.38 
L 259.87154 -58.38 
L 260.899954 -58.38 
L 261.928369 -58.38 
L 262.956784 -58.38 
L 263.985199 -58.38 
L 265.013614 -58.38 
L 266.042028 -58.38 
L 267.070443 -58.38 
L 268.098858 -58.38 
L 269.127273 -58.38 
L 269.127273 -58.386782 
L 269.127273 -58.386782 
L 268.098858 -58.39202 
L 267.070443 -58.400491 
L 266.042028 -58.4136 
L 265.013614 -58.43299 
L 263.985199 -58.460382 
L 262.956784 -58.497279 
L 261.928369 -58.544583 
L 260.899954 -58.602151 
L 259.87154 -58.668412 
L 258.843125 -58.740146 
L 257.81471 -58.812558 
L 256.786295 -58.879701 
L 255.75788 -58.935235 
L 254.729466 -58.973397 
L 253.701051 -58.98998 
L 252.672636 -58.983102 
L 251.644221 -58.953557 
L 250.615806 -58.904676 
L 249.587392 -58.841718 
L 248.558977 -58.770969 
L 247.530562 -58.698762 
L 246.502147 -58.630644 
L 245.473732 -58.570848 
L 244.445317 -58.522143 
L 243.416903 -58.485997 
L 242.388488 -58.462961 
L 241.360073 -58.453112 
L 240.331658 -58.456417 
L 239.303243 -58.472908 
L 238.274829 -58.502636 
L 237.246414 -58.545403 
L 236.217999 -58.60038 
L 235.189584 -58.665715 
L 234.161169 -58.738316 
L 233.132755 -58.81393 
L 232.10434 -58.887614 
L 231.075925 -58.954577 
L 230.04751 -59.011245 
L 229.019095 -59.056315 
L 227.990681 -59.091511 
L 226.962266 -59.121773 
L 225.933851 -59.154759 
L 224.905436 -59.199717 
L 223.877021 -59.265996 
L 222.848607 -59.361641 
L 221.820192 -59.4926 
L 220.791777 -59.662986 
L 219.763362 -59.876638 
L 218.734947 -60.139861 
L 217.706533 -60.464745 
L 216.678118 -60.872073 
L 215.649703 -61.392506 
L 214.621288 -62.064768 
L 213.592873 -62.930036 
L 212.564459 -64.022622 
L 211.536044 -65.358323 
L 210.507629 -66.923051 
L 209.479214 -68.665191 
L 208.450799 -70.495058 
L 207.422385 -72.293547 
L 206.39397 -73.929828 
L 205.365555 -75.285129 
L 204.33714 -76.277373 
L 203.308725 -76.880412 
L 202.280311 -77.132474 
L 201.251896 -77.13109 
L 200.223481 -77.01537 
L 199.195066 -76.940006 
L 198.166651 -77.047581 
L 197.138237 -77.446096 
L 196.109822 -78.197023 
L 195.081407 -79.316325 
L 194.052992 -80.787513 
L 193.024577 -82.582852 
L 191.996163 -84.68688 
L 190.967748 -87.115667 
L 189.939333 -89.925943 
L 188.910918 -93.210213 
L 187.882503 -97.077128 
L 186.854089 -101.620327 
L 185.825674 -106.882827 
L 184.797259 -112.826755 
L 183.768844 -119.318514 
L 182.740429 -126.136628 
L 181.712015 -133.00372 
L 180.6836 -139.636772 
L 179.655185 -145.803452 
L 178.62677 -151.369299 
L 177.598355 -156.322402 
L 176.569941 -160.76862 
L 175.541526 -164.899196 
L 174.513111 -168.940763 
L 173.484696 -173.102289 
L 172.456281 -177.533194 
L 171.427867 -182.302169 
L 170.399452 -187.399162 
L 169.371037 -192.756308 
L 168.342622 -198.27911 
L 167.314207 -203.877892 
L 166.285793 -209.491058 
L 165.257378 -215.094748 
L 164.228963 -220.697188 
L 163.200548 -226.319406 
L 162.172133 -231.966937 
L 161.143719 -237.599462 
L 160.115304 -243.106863 
L 159.086889 -248.300055 
L 158.058474 -252.922676 
L 157.030059 -256.684842 
L 156.001645 -259.313613 
L 154.97323 -260.608571 
L 153.944815 -260.487422 
L 152.9164 -259.007768 
L 151.887985 -256.35739 
L 150.859571 -252.814556 
L 149.831156 -248.688976 
L 148.802741 -244.259578 
L 147.774326 -239.725487 
L 146.745911 -235.18167 
L 145.717497 -230.622805 
L 144.689082 -225.97093 
L 143.660667 -221.116838 
L 142.632252 -215.963186 
L 141.603837 -210.458638 
L 140.575423 -204.616005 
L 139.547008 -198.511754 
L 138.518593 -192.268522 
L 137.490178 -186.025594 
L 136.461763 -179.904606 
L 135.433349 -173.978767 
L 134.404934 -168.253458 
L 133.376519 -162.663967 
L 132.348104 -157.09229 
L 131.319689 -151.399992 
L 130.291275 -145.469329 
L 129.26286 -139.241695 
L 128.234445 -132.742529 
L 127.20603 -126.085204 
L 126.177615 -119.452505 
L 125.149201 -113.060877 
L 124.120786 -107.117503 
L 123.092371 -101.781846 
L 122.063956 -97.141206 
L 121.035541 -93.205096 
L 120.007127 -89.917654 
L 118.978712 -87.182713 
L 117.950297 -84.893616 
L 116.921882 -82.959775 
L 115.893467 -81.323812 
L 114.865053 -79.9661 
L 113.836638 -78.896766 
L 112.808223 -78.138158 
L 111.779808 -77.702882 
L 110.751393 -77.573505 
L 109.722979 -77.689696 
L 108.694564 -77.94685 
L 107.666149 -78.207432 
L 106.637734 -78.322878 
L 105.609319 -78.160889 
L 104.580905 -77.631192 
L 103.55249 -76.703072 
L 102.524075 -75.410122 
L 101.49566 -73.841216 
L 100.467245 -72.120465 
L 99.438831 -70.3817 
L 98.410416 -68.74402 
L 97.382001 -67.293986 
L 96.353586 -66.077591 
L 95.325171 -65.102245 
L 94.296757 -64.346422 
L 93.268342 -63.77319 
L 92.239927 -63.343582 
L 91.211512 -63.026595 
L 90.183097 -62.804004 
L 89.154683 -62.669751 
L 88.126268 -62.624979 
L 87.097853 -62.670725 
L 86.069438 -62.800613 
L 85.041023 -62.995728 
L 84.012608 -63.223231 
L 82.984194 -63.439214 
L 81.955779 -63.595218 
L 80.927364 -63.646797 
L 79.898949 -63.56195 
L 78.870534 -63.327263 
L 77.84212 -62.950236 
L 76.813705 -62.457325 
L 75.78529 -61.888376 
L 74.756875 -61.289026 
L 73.72846 -60.702959 
L 72.700046 -60.165721 
L 71.671631 -59.701131 
L 70.643216 -59.320499 
L 69.614801 -59.024164 
L 68.586386 -58.804445 
L 67.557972 -58.649035 
L 66.529557 -58.544036 
L 65.501142 -58.476206 
L 64.472727 -58.434273 
z
" id="m78ca80426e" style="stroke:#4c72b0;stroke-width:2;"/>
    </defs>
    <g clip-path="url(#p1a461b3e02)">
     <use style="fill:#4c72b0;fill-opacity:0.1;stroke:#4c72b0;stroke-width:2;" x="0" xlink:href="#m78ca80426e" y="288"/>
    </g>
   </g>
   <g id="patch_3">
    <path d="M 54.24 229.62 
L 54.24 17.28 
" style="fill:none;stroke:#262626;stroke-linecap:square;stroke-linejoin:miter;"/>
   </g>
   <g id="patch_4">
    <path d="M 279.36 229.62 
L 279.36 17.28 
" style="fill:none;stroke:#262626;stroke-linecap:square;stroke-linejoin:miter;"/>
   </g>
   <g id="patch_5">
    <path d="M 54.24 229.62 
L 279.36 229.62 
" style="fill:none;stroke:#262626;stroke-linecap:square;stroke-linejoin:miter;"/>
   </g>
   <g id="patch_6">
    <path d="M 54.24 17.28 
L 279.36 17.28 
" style="fill:none;stroke:#262626;stroke-linecap:square;stroke-linejoin:miter;"/>
   </g>
  </g>
  <g id="axes_2">
   <g id="patch_7">
    <path d="M 333.6 229.62 
L 558.72 229.62 
L 558.72 17.28 
L 333.6 17.28 
z
" style="fill:#ffffff;"/>
   </g>
   <g id="matplotlib.axis_3">
    <g id="xtick_4">
     <g id="line2d_10">
      <g>
       <use style="fill:#262626;stroke:#262626;" x="396.624584" xlink:href="#m6146f6ec31" y="229.62"/>
      </g>
     </g>
     <g id="text_12">
      <!-- 0.25 -->
      <g style="fill:#262626;" transform="translate(378.812084 250.0775)scale(0.16 -0.16)">
       <use xlink:href="#DejaVuSans-30"/>
       <use x="63.623047" xlink:href="#DejaVuSans-2e"/>
       <use x="95.410156" xlink:href="#DejaVuSans-32"/>
       <use x="159.033203" xlink:href="#DejaVuSans-35"/>
      </g>
     </g>
    </g>
    <g id="xtick_5">
     <g id="line2d_11">
      <g>
       <use style="fill:#262626;stroke:#262626;" x="458.543854" xlink:href="#m6146f6ec31" y="229.62"/>
      </g>
     </g>
     <g id="text_13">
      <!-- 0.50 -->
      <g style="fill:#262626;" transform="translate(440.731354 250.0775)scale(0.16 -0.16)">
       <use xlink:href="#DejaVuSans-30"/>
       <use x="63.623047" xlink:href="#DejaVuSans-2e"/>
       <use x="95.410156" xlink:href="#DejaVuSans-35"/>
       <use x="159.033203" xlink:href="#DejaVuSans-30"/>
      </g>
     </g>
    </g>
    <g id="xtick_6">
     <g id="line2d_12">
      <g>
       <use style="fill:#262626;stroke:#262626;" x="520.463125" xlink:href="#m6146f6ec31" y="229.62"/>
      </g>
     </g>
     <g id="text_14">
      <!-- 0.75 -->
      <g style="fill:#262626;" transform="translate(502.650625 250.0775)scale(0.16 -0.16)">
       <use xlink:href="#DejaVuSans-30"/>
       <use x="63.623047" xlink:href="#DejaVuSans-2e"/>
       <use x="95.410156" xlink:href="#DejaVuSans-37"/>
       <use x="159.033203" xlink:href="#DejaVuSans-35"/>
      </g>
     </g>
    </g>
    <g id="text_15">
     <!-- Fraction of -ve Edges -->
     <g style="fill:#262626;" transform="translate(362.25 269.5625)scale(0.16 -0.16)">
      <defs>
       <path d="M 313 2009 
L 1997 2009 
L 1997 1497 
L 313 1497 
L 313 2009 
z
" id="DejaVuSans-2d" transform="scale(0.015625)"/>
      </defs>
      <use xlink:href="#DejaVuSans-46"/>
      <use x="50.269531" xlink:href="#DejaVuSans-72"/>
      <use x="91.382812" xlink:href="#DejaVuSans-61"/>
      <use x="152.662109" xlink:href="#DejaVuSans-63"/>
      <use x="207.642578" xlink:href="#DejaVuSans-74"/>
      <use x="246.851562" xlink:href="#DejaVuSans-69"/>
      <use x="274.634766" xlink:href="#DejaVuSans-6f"/>
      <use x="335.816406" xlink:href="#DejaVuSans-6e"/>
      <use x="399.195312" xlink:href="#DejaVuSans-20"/>
      <use x="430.982422" xlink:href="#DejaVuSans-6f"/>
      <use x="492.164062" xlink:href="#DejaVuSans-66"/>
      <use x="527.369141" xlink:href="#DejaVuSans-20"/>
      <use x="559.15625" xlink:href="#DejaVuSans-2d"/>
      <use x="592.615234" xlink:href="#DejaVuSans-76"/>
      <use x="651.794922" xlink:href="#DejaVuSans-65"/>
      <use x="713.318359" xlink:href="#DejaVuSans-20"/>
      <use x="745.105469" xlink:href="#DejaVuSans-45"/>
      <use x="808.289062" xlink:href="#DejaVuSans-64"/>
      <use x="871.765625" xlink:href="#DejaVuSans-67"/>
      <use x="935.242188" xlink:href="#DejaVuSans-65"/>
      <use x="996.765625" xlink:href="#DejaVuSans-73"/>
     </g>
    </g>
   </g>
   <g id="matplotlib.axis_4">
    <g id="ytick_7">
     <g id="line2d_13">
      <g>
       <use style="fill:#262626;stroke:#262626;" x="333.6" xlink:href="#m6234278768" y="229.62"/>
      </g>
     </g>
     <g id="text_16">
      <!-- 0 -->
      <g style="fill:#262626;" transform="translate(315.12 235.69875)scale(0.16 -0.16)">
       <use xlink:href="#DejaVuSans-30"/>
      </g>
     </g>
    </g>
    <g id="ytick_8">
     <g id="line2d_14">
      <g>
       <use style="fill:#262626;stroke:#262626;" x="333.6" xlink:href="#m6234278768" y="190.966742"/>
      </g>
     </g>
     <g id="text_17">
      <!-- 1 -->
      <g style="fill:#262626;" transform="translate(315.12 197.045492)scale(0.16 -0.16)">
       <use xlink:href="#DejaVuSans-31"/>
      </g>
     </g>
    </g>
    <g id="ytick_9">
     <g id="line2d_15">
      <g>
       <use style="fill:#262626;stroke:#262626;" x="333.6" xlink:href="#m6234278768" y="152.313483"/>
      </g>
     </g>
     <g id="text_18">
      <!-- 2 -->
      <g style="fill:#262626;" transform="translate(315.12 158.392233)scale(0.16 -0.16)">
       <use xlink:href="#DejaVuSans-32"/>
      </g>
     </g>
    </g>
    <g id="ytick_10">
     <g id="line2d_16">
      <g>
       <use style="fill:#262626;stroke:#262626;" x="333.6" xlink:href="#m6234278768" y="113.660225"/>
      </g>
     </g>
     <g id="text_19">
      <!-- 3 -->
      <g style="fill:#262626;" transform="translate(315.12 119.738975)scale(0.16 -0.16)">
       <use xlink:href="#DejaVuSans-33"/>
      </g>
     </g>
    </g>
    <g id="ytick_11">
     <g id="line2d_17">
      <g>
       <use style="fill:#262626;stroke:#262626;" x="333.6" xlink:href="#m6234278768" y="75.006966"/>
      </g>
     </g>
     <g id="text_20">
      <!-- 4 -->
      <g style="fill:#262626;" transform="translate(315.12 81.085716)scale(0.16 -0.16)">
       <use xlink:href="#DejaVuSans-34"/>
      </g>
     </g>
    </g>
    <g id="ytick_12">
     <g id="line2d_18">
      <g>
       <use style="fill:#262626;stroke:#262626;" x="333.6" xlink:href="#m6234278768" y="36.353708"/>
      </g>
     </g>
     <g id="text_21">
      <!-- 5 -->
      <g style="fill:#262626;" transform="translate(315.12 42.432458)scale(0.16 -0.16)">
       <use xlink:href="#DejaVuSans-35"/>
      </g>
     </g>
    </g>
    <g id="text_22">
     <!-- Density -->
     <g style="fill:#262626;" transform="translate(307.7925 153.86375)rotate(-90)scale(0.16 -0.16)">
      <use xlink:href="#DejaVuSans-44"/>
      <use x="77.001953" xlink:href="#DejaVuSans-65"/>
      <use x="138.525391" xlink:href="#DejaVuSans-6e"/>
      <use x="201.904297" xlink:href="#DejaVuSans-73"/>
      <use x="254.003906" xlink:href="#DejaVuSans-69"/>
      <use x="281.787109" xlink:href="#DejaVuSans-74"/>
      <use x="320.996094" xlink:href="#DejaVuSans-79"/>
     </g>
    </g>
   </g>
   <g id="PolyCollection_2">
    <defs>
     <path d="M 343.832727 -58.386782 
L 343.832727 -58.38 
L 344.861142 -58.38 
L 345.889557 -58.38 
L 346.917972 -58.38 
L 347.946386 -58.38 
L 348.974801 -58.38 
L 350.003216 -58.38 
L 351.031631 -58.38 
L 352.060046 -58.38 
L 353.08846 -58.38 
L 354.116875 -58.38 
L 355.14529 -58.38 
L 356.173705 -58.38 
L 357.20212 -58.38 
L 358.230534 -58.38 
L 359.258949 -58.38 
L 360.287364 -58.38 
L 361.315779 -58.38 
L 362.344194 -58.38 
L 363.372608 -58.38 
L 364.401023 -58.38 
L 365.429438 -58.38 
L 366.457853 -58.38 
L 367.486268 -58.38 
L 368.514683 -58.38 
L 369.543097 -58.38 
L 370.571512 -58.38 
L 371.599927 -58.38 
L 372.628342 -58.38 
L 373.656757 -58.38 
L 374.685171 -58.38 
L 375.713586 -58.38 
L 376.742001 -58.38 
L 377.770416 -58.38 
L 378.798831 -58.38 
L 379.827245 -58.38 
L 380.85566 -58.38 
L 381.884075 -58.38 
L 382.91249 -58.38 
L 383.940905 -58.38 
L 384.969319 -58.38 
L 385.997734 -58.38 
L 387.026149 -58.38 
L 388.054564 -58.38 
L 389.082979 -58.38 
L 390.111393 -58.38 
L 391.139808 -58.38 
L 392.168223 -58.38 
L 393.196638 -58.38 
L 394.225053 -58.38 
L 395.253467 -58.38 
L 396.281882 -58.38 
L 397.310297 -58.38 
L 398.338712 -58.38 
L 399.367127 -58.38 
L 400.395541 -58.38 
L 401.423956 -58.38 
L 402.452371 -58.38 
L 403.480786 -58.38 
L 404.509201 -58.38 
L 405.537615 -58.38 
L 406.56603 -58.38 
L 407.594445 -58.38 
L 408.62286 -58.38 
L 409.651275 -58.38 
L 410.679689 -58.38 
L 411.708104 -58.38 
L 412.736519 -58.38 
L 413.764934 -58.38 
L 414.793349 -58.38 
L 415.821763 -58.38 
L 416.850178 -58.38 
L 417.878593 -58.38 
L 418.907008 -58.38 
L 419.935423 -58.38 
L 420.963837 -58.38 
L 421.992252 -58.38 
L 423.020667 -58.38 
L 424.049082 -58.38 
L 425.077497 -58.38 
L 426.105911 -58.38 
L 427.134326 -58.38 
L 428.162741 -58.38 
L 429.191156 -58.38 
L 430.219571 -58.38 
L 431.247985 -58.38 
L 432.2764 -58.38 
L 433.304815 -58.38 
L 434.33323 -58.38 
L 435.361645 -58.38 
L 436.390059 -58.38 
L 437.418474 -58.38 
L 438.446889 -58.38 
L 439.475304 -58.38 
L 440.503719 -58.38 
L 441.532133 -58.38 
L 442.560548 -58.38 
L 443.588963 -58.38 
L 444.617378 -58.38 
L 445.645793 -58.38 
L 446.674207 -58.38 
L 447.702622 -58.38 
L 448.731037 -58.38 
L 449.759452 -58.38 
L 450.787867 -58.38 
L 451.816281 -58.38 
L 452.844696 -58.38 
L 453.873111 -58.38 
L 454.901526 -58.38 
L 455.929941 -58.38 
L 456.958355 -58.38 
L 457.98677 -58.38 
L 459.015185 -58.38 
L 460.0436 -58.38 
L 461.072015 -58.38 
L 462.100429 -58.38 
L 463.128844 -58.38 
L 464.157259 -58.38 
L 465.185674 -58.38 
L 466.214089 -58.38 
L 467.242503 -58.38 
L 468.270918 -58.38 
L 469.299333 -58.38 
L 470.327748 -58.38 
L 471.356163 -58.38 
L 472.384577 -58.38 
L 473.412992 -58.38 
L 474.441407 -58.38 
L 475.469822 -58.38 
L 476.498237 -58.38 
L 477.526651 -58.38 
L 478.555066 -58.38 
L 479.583481 -58.38 
L 480.611896 -58.38 
L 481.640311 -58.38 
L 482.668725 -58.38 
L 483.69714 -58.38 
L 484.725555 -58.38 
L 485.75397 -58.38 
L 486.782385 -58.38 
L 487.810799 -58.38 
L 488.839214 -58.38 
L 489.867629 -58.38 
L 490.896044 -58.38 
L 491.924459 -58.38 
L 492.952873 -58.38 
L 493.981288 -58.38 
L 495.009703 -58.38 
L 496.038118 -58.38 
L 497.066533 -58.38 
L 498.094947 -58.38 
L 499.123362 -58.38 
L 500.151777 -58.38 
L 501.180192 -58.38 
L 502.208607 -58.38 
L 503.237021 -58.38 
L 504.265436 -58.38 
L 505.293851 -58.38 
L 506.322266 -58.38 
L 507.350681 -58.38 
L 508.379095 -58.38 
L 509.40751 -58.38 
L 510.435925 -58.38 
L 511.46434 -58.38 
L 512.492755 -58.38 
L 513.521169 -58.38 
L 514.549584 -58.38 
L 515.577999 -58.38 
L 516.606414 -58.38 
L 517.634829 -58.38 
L 518.663243 -58.38 
L 519.691658 -58.38 
L 520.720073 -58.38 
L 521.748488 -58.38 
L 522.776903 -58.38 
L 523.805317 -58.38 
L 524.833732 -58.38 
L 525.862147 -58.38 
L 526.890562 -58.38 
L 527.918977 -58.38 
L 528.947392 -58.38 
L 529.975806 -58.38 
L 531.004221 -58.38 
L 532.032636 -58.38 
L 533.061051 -58.38 
L 534.089466 -58.38 
L 535.11788 -58.38 
L 536.146295 -58.38 
L 537.17471 -58.38 
L 538.203125 -58.38 
L 539.23154 -58.38 
L 540.259954 -58.38 
L 541.288369 -58.38 
L 542.316784 -58.38 
L 543.345199 -58.38 
L 544.373614 -58.38 
L 545.402028 -58.38 
L 546.430443 -58.38 
L 547.458858 -58.38 
L 548.487273 -58.38 
L 548.487273 -58.434273 
L 548.487273 -58.434273 
L 547.458858 -58.476206 
L 546.430443 -58.544036 
L 545.402028 -58.649035 
L 544.373614 -58.804445 
L 543.345199 -59.024164 
L 542.316784 -59.320499 
L 541.288369 -59.701131 
L 540.259954 -60.165721 
L 539.23154 -60.702959 
L 538.203125 -61.289026 
L 537.17471 -61.888376 
L 536.146295 -62.457325 
L 535.11788 -62.950236 
L 534.089466 -63.327263 
L 533.061051 -63.56195 
L 532.032636 -63.646797 
L 531.004221 -63.595218 
L 529.975806 -63.439214 
L 528.947392 -63.223231 
L 527.918977 -62.995728 
L 526.890562 -62.800613 
L 525.862147 -62.670725 
L 524.833732 -62.624979 
L 523.805317 -62.669751 
L 522.776903 -62.804004 
L 521.748488 -63.026595 
L 520.720073 -63.343582 
L 519.691658 -63.77319 
L 518.663243 -64.346422 
L 517.634829 -65.102245 
L 516.606414 -66.077591 
L 515.577999 -67.293986 
L 514.549584 -68.74402 
L 513.521169 -70.3817 
L 512.492755 -72.120465 
L 511.46434 -73.841216 
L 510.435925 -75.410122 
L 509.40751 -76.703072 
L 508.379095 -77.631192 
L 507.350681 -78.160889 
L 506.322266 -78.322878 
L 505.293851 -78.207432 
L 504.265436 -77.94685 
L 503.237021 -77.689696 
L 502.208607 -77.573505 
L 501.180192 -77.702882 
L 500.151777 -78.138158 
L 499.123362 -78.896766 
L 498.094947 -79.9661 
L 497.066533 -81.323812 
L 496.038118 -82.959775 
L 495.009703 -84.893616 
L 493.981288 -87.182713 
L 492.952873 -89.917654 
L 491.924459 -93.205096 
L 490.896044 -97.141206 
L 489.867629 -101.781846 
L 488.839214 -107.117503 
L 487.810799 -113.060877 
L 486.782385 -119.452505 
L 485.75397 -126.085204 
L 484.725555 -132.742529 
L 483.69714 -139.241695 
L 482.668725 -145.469329 
L 481.640311 -151.399992 
L 480.611896 -157.09229 
L 479.583481 -162.663967 
L 478.555066 -168.253458 
L 477.526651 -173.978767 
L 476.498237 -179.904606 
L 475.469822 -186.025594 
L 474.441407 -192.268522 
L 473.412992 -198.511754 
L 472.384577 -204.616005 
L 471.356163 -210.458638 
L 470.327748 -215.963186 
L 469.299333 -221.116838 
L 468.270918 -225.97093 
L 467.242503 -230.622805 
L 466.214089 -235.18167 
L 465.185674 -239.725487 
L 464.157259 -244.259578 
L 463.128844 -248.688976 
L 462.100429 -252.814556 
L 461.072015 -256.35739 
L 460.0436 -259.007768 
L 459.015185 -260.487422 
L 457.98677 -260.608571 
L 456.958355 -259.313613 
L 455.929941 -256.684842 
L 454.901526 -252.922676 
L 453.873111 -248.300055 
L 452.844696 -243.106863 
L 451.816281 -237.599462 
L 450.787867 -231.966937 
L 449.759452 -226.319406 
L 448.731037 -220.697188 
L 447.702622 -215.094748 
L 446.674207 -209.491058 
L 445.645793 -203.877892 
L 444.617378 -198.27911 
L 443.588963 -192.756308 
L 442.560548 -187.399162 
L 441.532133 -182.302169 
L 440.503719 -177.533194 
L 439.475304 -173.102289 
L 438.446889 -168.940763 
L 437.418474 -164.899196 
L 436.390059 -160.76862 
L 435.361645 -156.322402 
L 434.33323 -151.369299 
L 433.304815 -145.803452 
L 432.2764 -139.636772 
L 431.247985 -133.00372 
L 430.219571 -126.136628 
L 429.191156 -119.318514 
L 428.162741 -112.826755 
L 427.134326 -106.882827 
L 426.105911 -101.620327 
L 425.077497 -97.077128 
L 424.049082 -93.210213 
L 423.020667 -89.925943 
L 421.992252 -87.115667 
L 420.963837 -84.68688 
L 419.935423 -82.582852 
L 418.907008 -80.787513 
L 417.878593 -79.316325 
L 416.850178 -78.197023 
L 415.821763 -77.446096 
L 414.793349 -77.047581 
L 413.764934 -76.940006 
L 412.736519 -77.01537 
L 411.708104 -77.13109 
L 410.679689 -77.132474 
L 409.651275 -76.880412 
L 408.62286 -76.277373 
L 407.594445 -75.285129 
L 406.56603 -73.929828 
L 405.537615 -72.293547 
L 404.509201 -70.495058 
L 403.480786 -68.665191 
L 402.452371 -66.923051 
L 401.423956 -65.358323 
L 400.395541 -64.022622 
L 399.367127 -62.930036 
L 398.338712 -62.064768 
L 397.310297 -61.392506 
L 396.281882 -60.872073 
L 395.253467 -60.464745 
L 394.225053 -60.139861 
L 393.196638 -59.876638 
L 392.168223 -59.662986 
L 391.139808 -59.4926 
L 390.111393 -59.361641 
L 389.082979 -59.265996 
L 388.054564 -59.199717 
L 387.026149 -59.154759 
L 385.997734 -59.121773 
L 384.969319 -59.091511 
L 383.940905 -59.056315 
L 382.91249 -59.011245 
L 381.884075 -58.954577 
L 380.85566 -58.887614 
L 379.827245 -58.81393 
L 378.798831 -58.738316 
L 377.770416 -58.665715 
L 376.742001 -58.60038 
L 375.713586 -58.545403 
L 374.685171 -58.502636 
L 373.656757 -58.472908 
L 372.628342 -58.456417 
L 371.599927 -58.453112 
L 370.571512 -58.462961 
L 369.543097 -58.485997 
L 368.514683 -58.522143 
L 367.486268 -58.570848 
L 366.457853 -58.630644 
L 365.429438 -58.698762 
L 364.401023 -58.770969 
L 363.372608 -58.841718 
L 362.344194 -58.904676 
L 361.315779 -58.953557 
L 360.287364 -58.983102 
L 359.258949 -58.98998 
L 358.230534 -58.973397 
L 357.20212 -58.935235 
L 356.173705 -58.879701 
L 355.14529 -58.812558 
L 354.116875 -58.740146 
L 353.08846 -58.668412 
L 352.060046 -58.602151 
L 351.031631 -58.544583 
L 350.003216 -58.497279 
L 348.974801 -58.460382 
L 347.946386 -58.43299 
L 346.917972 -58.4136 
L 345.889557 -58.400491 
L 344.861142 -58.39202 
L 343.832727 -58.386782 
z
" id="ma550be29e9" style="stroke:#4c72b0;stroke-width:2;"/>
    </defs>
    <g clip-path="url(#pd54099e393)">
     <use style="fill:#4c72b0;fill-opacity:0.1;stroke:#4c72b0;stroke-width:2;" x="0" xlink:href="#ma550be29e9" y="288"/>
    </g>
   </g>
   <g id="patch_8">
    <path d="M 333.6 229.62 
L 333.6 17.28 
" style="fill:none;stroke:#262626;stroke-linecap:square;stroke-linejoin:miter;"/>
   </g>
   <g id="patch_9">
    <path d="M 558.72 229.62 
L 558.72 17.28 
" style="fill:none;stroke:#262626;stroke-linecap:square;stroke-linejoin:miter;"/>
   </g>
   <g id="patch_10">
    <path d="M 333.6 229.62 
L 558.72 229.62 
" style="fill:none;stroke:#262626;stroke-linecap:square;stroke-linejoin:miter;"/>
   </g>
   <g id="patch_11">
    <path d="M 333.6 17.28 
L 558.72 17.28 
" style="fill:none;stroke:#262626;stroke-linecap:square;stroke-linejoin:miter;"/>
   </g>
  </g>
 </g>
 <defs>
  <clipPath id="p1a461b3e02">
   <rect height="212.34" width="225.12" x="54.24" y="17.28"/>
  </clipPath>
  <clipPath id="pd54099e393">
   <rect height="212.34" width="225.12" x="333.6" y="17.28"/>
  </clipPath>
 </defs>
</svg>
