<?xml version="1.0" encoding="utf-8" standalone="no"?>
<!DOCTYPE svg PUBLIC "-//W3C//DTD SVG 1.1//EN"
  "http://www.w3.org/Graphics/SVG/1.1/DTD/svg11.dtd">
<svg height="295.2pt" version="1.1" viewBox="0 0 576 295.2" width="576pt" xmlns="http://www.w3.org/2000/svg" xmlns:xlink="http://www.w3.org/1999/xlink">
 <metadata>
  <rdf:RDF xmlns:cc="http://creativecommons.org/ns#" xmlns:dc="http://purl.org/dc/elements/1.1/" xmlns:rdf="http://www.w3.org/1999/02/22-rdf-syntax-ns#">
   <cc:Work>
    <dc:type rdf:resource="http://purl.org/dc/dcmitype/StillImage"/>
    <dc:date>2022-04-24T09:15:51.962853</dc:date>
    <dc:format>image/svg+xml</dc:format>
    <dc:creator>
     <cc:Agent>
      <dc:title>Matplotlib v3.4.2, https://matplotlib.org/</dc:title>
     </cc:Agent>
    </dc:creator>
   </cc:Work>
  </rdf:RDF>
 </metadata>
 <defs>
  <style type="text/css">*{stroke-linecap:butt;stroke-linejoin:round;}</style>
 </defs>
 <g id="figure_1">
  <g id="patch_1">
   <path d="M 0 295.2 
L 576 295.2 
L 576 0 
L 0 0 
z
" style="fill:#ffffff;"/>
  </g>
  <g id="axes_1">
   <g id="patch_2">
    <path d="M 54.24 236.82 
L 279.36 236.82 
L 279.36 17.28 
L 54.24 17.28 
z
" style="fill:#ffffff;"/>
   </g>
   <g id="matplotlib.axis_1">
    <g id="xtick_1">
     <g id="line2d_1">
      <defs>
       <path d="M 0 0 
L 0 4.8 
" id="mfb833196f8" style="stroke:#262626;"/>
      </defs>
      <g>
       <use style="fill:#262626;stroke:#262626;" x="92.623258" xlink:href="#mfb833196f8" y="236.82"/>
      </g>
     </g>
     <g id="text_1">
      <!-- 0.25 -->
      <g style="fill:#262626;" transform="translate(74.810758 257.2775)scale(0.16 -0.16)">
       <defs>
        <path d="M 2034 4250 
Q 1547 4250 1301 3770 
Q 1056 3291 1056 2328 
Q 1056 1369 1301 889 
Q 1547 409 2034 409 
Q 2525 409 2770 889 
Q 3016 1369 3016 2328 
Q 3016 3291 2770 3770 
Q 2525 4250 2034 4250 
z
M 2034 4750 
Q 2819 4750 3233 4129 
Q 3647 3509 3647 2328 
Q 3647 1150 3233 529 
Q 2819 -91 2034 -91 
Q 1250 -91 836 529 
Q 422 1150 422 2328 
Q 422 3509 836 4129 
Q 1250 4750 2034 4750 
z
" id="DejaVuSans-30" transform="scale(0.015625)"/>
        <path d="M 684 794 
L 1344 794 
L 1344 0 
L 684 0 
L 684 794 
z
" id="DejaVuSans-2e" transform="scale(0.015625)"/>
        <path d="M 1228 531 
L 3431 531 
L 3431 0 
L 469 0 
L 469 531 
Q 828 903 1448 1529 
Q 2069 2156 2228 2338 
Q 2531 2678 2651 2914 
Q 2772 3150 2772 3378 
Q 2772 3750 2511 3984 
Q 2250 4219 1831 4219 
Q 1534 4219 1204 4116 
Q 875 4013 500 3803 
L 500 4441 
Q 881 4594 1212 4672 
Q 1544 4750 1819 4750 
Q 2544 4750 2975 4387 
Q 3406 4025 3406 3419 
Q 3406 3131 3298 2873 
Q 3191 2616 2906 2266 
Q 2828 2175 2409 1742 
Q 1991 1309 1228 531 
z
" id="DejaVuSans-32" transform="scale(0.015625)"/>
        <path d="M 691 4666 
L 3169 4666 
L 3169 4134 
L 1269 4134 
L 1269 2991 
Q 1406 3038 1543 3061 
Q 1681 3084 1819 3084 
Q 2600 3084 3056 2656 
Q 3513 2228 3513 1497 
Q 3513 744 3044 326 
Q 2575 -91 1722 -91 
Q 1428 -91 1123 -41 
Q 819 9 494 109 
L 494 744 
Q 775 591 1075 516 
Q 1375 441 1709 441 
Q 2250 441 2565 725 
Q 2881 1009 2881 1497 
Q 2881 1984 2565 2268 
Q 2250 2553 1709 2553 
Q 1456 2553 1204 2497 
Q 953 2441 691 2322 
L 691 4666 
z
" id="DejaVuSans-35" transform="scale(0.015625)"/>
       </defs>
       <use xlink:href="#DejaVuSans-30"/>
       <use x="63.623047" xlink:href="#DejaVuSans-2e"/>
       <use x="95.410156" xlink:href="#DejaVuSans-32"/>
       <use x="159.033203" xlink:href="#DejaVuSans-35"/>
      </g>
     </g>
    </g>
    <g id="xtick_2">
     <g id="line2d_2">
      <g>
       <use style="fill:#262626;stroke:#262626;" x="154.43721" xlink:href="#mfb833196f8" y="236.82"/>
      </g>
     </g>
     <g id="text_2">
      <!-- 0.50 -->
      <g style="fill:#262626;" transform="translate(136.62471 257.2775)scale(0.16 -0.16)">
       <use xlink:href="#DejaVuSans-30"/>
       <use x="63.623047" xlink:href="#DejaVuSans-2e"/>
       <use x="95.410156" xlink:href="#DejaVuSans-35"/>
       <use x="159.033203" xlink:href="#DejaVuSans-30"/>
      </g>
     </g>
    </g>
    <g id="xtick_3">
     <g id="line2d_3">
      <g>
       <use style="fill:#262626;stroke:#262626;" x="216.251161" xlink:href="#mfb833196f8" y="236.82"/>
      </g>
     </g>
     <g id="text_3">
      <!-- 0.75 -->
      <g style="fill:#262626;" transform="translate(198.438661 257.2775)scale(0.16 -0.16)">
       <defs>
        <path d="M 525 4666 
L 3525 4666 
L 3525 4397 
L 1831 0 
L 1172 0 
L 2766 4134 
L 525 4134 
L 525 4666 
z
" id="DejaVuSans-37" transform="scale(0.015625)"/>
       </defs>
       <use xlink:href="#DejaVuSans-30"/>
       <use x="63.623047" xlink:href="#DejaVuSans-2e"/>
       <use x="95.410156" xlink:href="#DejaVuSans-37"/>
       <use x="159.033203" xlink:href="#DejaVuSans-35"/>
      </g>
     </g>
    </g>
    <g id="text_4">
     <!-- Fraction of +ve Edges -->
     <g style="fill:#262626;" transform="translate(78.8625 276.7625)scale(0.16 -0.16)">
      <defs>
       <path d="M 628 4666 
L 3309 4666 
L 3309 4134 
L 1259 4134 
L 1259 2759 
L 3109 2759 
L 3109 2228 
L 1259 2228 
L 1259 0 
L 628 0 
L 628 4666 
z
" id="DejaVuSans-46" transform="scale(0.015625)"/>
       <path d="M 2631 2963 
Q 2534 3019 2420 3045 
Q 2306 3072 2169 3072 
Q 1681 3072 1420 2755 
Q 1159 2438 1159 1844 
L 1159 0 
L 581 0 
L 581 3500 
L 1159 3500 
L 1159 2956 
Q 1341 3275 1631 3429 
Q 1922 3584 2338 3584 
Q 2397 3584 2469 3576 
Q 2541 3569 2628 3553 
L 2631 2963 
z
" id="DejaVuSans-72" transform="scale(0.015625)"/>
       <path d="M 2194 1759 
Q 1497 1759 1228 1600 
Q 959 1441 959 1056 
Q 959 750 1161 570 
Q 1363 391 1709 391 
Q 2188 391 2477 730 
Q 2766 1069 2766 1631 
L 2766 1759 
L 2194 1759 
z
M 3341 1997 
L 3341 0 
L 2766 0 
L 2766 531 
Q 2569 213 2275 61 
Q 1981 -91 1556 -91 
Q 1019 -91 701 211 
Q 384 513 384 1019 
Q 384 1609 779 1909 
Q 1175 2209 1959 2209 
L 2766 2209 
L 2766 2266 
Q 2766 2663 2505 2880 
Q 2244 3097 1772 3097 
Q 1472 3097 1187 3025 
Q 903 2953 641 2809 
L 641 3341 
Q 956 3463 1253 3523 
Q 1550 3584 1831 3584 
Q 2591 3584 2966 3190 
Q 3341 2797 3341 1997 
z
" id="DejaVuSans-61" transform="scale(0.015625)"/>
       <path d="M 3122 3366 
L 3122 2828 
Q 2878 2963 2633 3030 
Q 2388 3097 2138 3097 
Q 1578 3097 1268 2742 
Q 959 2388 959 1747 
Q 959 1106 1268 751 
Q 1578 397 2138 397 
Q 2388 397 2633 464 
Q 2878 531 3122 666 
L 3122 134 
Q 2881 22 2623 -34 
Q 2366 -91 2075 -91 
Q 1284 -91 818 406 
Q 353 903 353 1747 
Q 353 2603 823 3093 
Q 1294 3584 2113 3584 
Q 2378 3584 2631 3529 
Q 2884 3475 3122 3366 
z
" id="DejaVuSans-63" transform="scale(0.015625)"/>
       <path d="M 1172 4494 
L 1172 3500 
L 2356 3500 
L 2356 3053 
L 1172 3053 
L 1172 1153 
Q 1172 725 1289 603 
Q 1406 481 1766 481 
L 2356 481 
L 2356 0 
L 1766 0 
Q 1100 0 847 248 
Q 594 497 594 1153 
L 594 3053 
L 172 3053 
L 172 3500 
L 594 3500 
L 594 4494 
L 1172 4494 
z
" id="DejaVuSans-74" transform="scale(0.015625)"/>
       <path d="M 603 3500 
L 1178 3500 
L 1178 0 
L 603 0 
L 603 3500 
z
M 603 4863 
L 1178 4863 
L 1178 4134 
L 603 4134 
L 603 4863 
z
" id="DejaVuSans-69" transform="scale(0.015625)"/>
       <path d="M 1959 3097 
Q 1497 3097 1228 2736 
Q 959 2375 959 1747 
Q 959 1119 1226 758 
Q 1494 397 1959 397 
Q 2419 397 2687 759 
Q 2956 1122 2956 1747 
Q 2956 2369 2687 2733 
Q 2419 3097 1959 3097 
z
M 1959 3584 
Q 2709 3584 3137 3096 
Q 3566 2609 3566 1747 
Q 3566 888 3137 398 
Q 2709 -91 1959 -91 
Q 1206 -91 779 398 
Q 353 888 353 1747 
Q 353 2609 779 3096 
Q 1206 3584 1959 3584 
z
" id="DejaVuSans-6f" transform="scale(0.015625)"/>
       <path d="M 3513 2113 
L 3513 0 
L 2938 0 
L 2938 2094 
Q 2938 2591 2744 2837 
Q 2550 3084 2163 3084 
Q 1697 3084 1428 2787 
Q 1159 2491 1159 1978 
L 1159 0 
L 581 0 
L 581 3500 
L 1159 3500 
L 1159 2956 
Q 1366 3272 1645 3428 
Q 1925 3584 2291 3584 
Q 2894 3584 3203 3211 
Q 3513 2838 3513 2113 
z
" id="DejaVuSans-6e" transform="scale(0.015625)"/>
       <path id="DejaVuSans-20" transform="scale(0.015625)"/>
       <path d="M 2375 4863 
L 2375 4384 
L 1825 4384 
Q 1516 4384 1395 4259 
Q 1275 4134 1275 3809 
L 1275 3500 
L 2222 3500 
L 2222 3053 
L 1275 3053 
L 1275 0 
L 697 0 
L 697 3053 
L 147 3053 
L 147 3500 
L 697 3500 
L 697 3744 
Q 697 4328 969 4595 
Q 1241 4863 1831 4863 
L 2375 4863 
z
" id="DejaVuSans-66" transform="scale(0.015625)"/>
       <path d="M 2944 4013 
L 2944 2272 
L 4684 2272 
L 4684 1741 
L 2944 1741 
L 2944 0 
L 2419 0 
L 2419 1741 
L 678 1741 
L 678 2272 
L 2419 2272 
L 2419 4013 
L 2944 4013 
z
" id="DejaVuSans-2b" transform="scale(0.015625)"/>
       <path d="M 191 3500 
L 800 3500 
L 1894 563 
L 2988 3500 
L 3597 3500 
L 2284 0 
L 1503 0 
L 191 3500 
z
" id="DejaVuSans-76" transform="scale(0.015625)"/>
       <path d="M 3597 1894 
L 3597 1613 
L 953 1613 
Q 991 1019 1311 708 
Q 1631 397 2203 397 
Q 2534 397 2845 478 
Q 3156 559 3463 722 
L 3463 178 
Q 3153 47 2828 -22 
Q 2503 -91 2169 -91 
Q 1331 -91 842 396 
Q 353 884 353 1716 
Q 353 2575 817 3079 
Q 1281 3584 2069 3584 
Q 2775 3584 3186 3129 
Q 3597 2675 3597 1894 
z
M 3022 2063 
Q 3016 2534 2758 2815 
Q 2500 3097 2075 3097 
Q 1594 3097 1305 2825 
Q 1016 2553 972 2059 
L 3022 2063 
z
" id="DejaVuSans-65" transform="scale(0.015625)"/>
       <path d="M 628 4666 
L 3578 4666 
L 3578 4134 
L 1259 4134 
L 1259 2753 
L 3481 2753 
L 3481 2222 
L 1259 2222 
L 1259 531 
L 3634 531 
L 3634 0 
L 628 0 
L 628 4666 
z
" id="DejaVuSans-45" transform="scale(0.015625)"/>
       <path d="M 2906 2969 
L 2906 4863 
L 3481 4863 
L 3481 0 
L 2906 0 
L 2906 525 
Q 2725 213 2448 61 
Q 2172 -91 1784 -91 
Q 1150 -91 751 415 
Q 353 922 353 1747 
Q 353 2572 751 3078 
Q 1150 3584 1784 3584 
Q 2172 3584 2448 3432 
Q 2725 3281 2906 2969 
z
M 947 1747 
Q 947 1113 1208 752 
Q 1469 391 1925 391 
Q 2381 391 2643 752 
Q 2906 1113 2906 1747 
Q 2906 2381 2643 2742 
Q 2381 3103 1925 3103 
Q 1469 3103 1208 2742 
Q 947 2381 947 1747 
z
" id="DejaVuSans-64" transform="scale(0.015625)"/>
       <path d="M 2906 1791 
Q 2906 2416 2648 2759 
Q 2391 3103 1925 3103 
Q 1463 3103 1205 2759 
Q 947 2416 947 1791 
Q 947 1169 1205 825 
Q 1463 481 1925 481 
Q 2391 481 2648 825 
Q 2906 1169 2906 1791 
z
M 3481 434 
Q 3481 -459 3084 -895 
Q 2688 -1331 1869 -1331 
Q 1566 -1331 1297 -1286 
Q 1028 -1241 775 -1147 
L 775 -588 
Q 1028 -725 1275 -790 
Q 1522 -856 1778 -856 
Q 2344 -856 2625 -561 
Q 2906 -266 2906 331 
L 2906 616 
Q 2728 306 2450 153 
Q 2172 0 1784 0 
Q 1141 0 747 490 
Q 353 981 353 1791 
Q 353 2603 747 3093 
Q 1141 3584 1784 3584 
Q 2172 3584 2450 3431 
Q 2728 3278 2906 2969 
L 2906 3500 
L 3481 3500 
L 3481 434 
z
" id="DejaVuSans-67" transform="scale(0.015625)"/>
       <path d="M 2834 3397 
L 2834 2853 
Q 2591 2978 2328 3040 
Q 2066 3103 1784 3103 
Q 1356 3103 1142 2972 
Q 928 2841 928 2578 
Q 928 2378 1081 2264 
Q 1234 2150 1697 2047 
L 1894 2003 
Q 2506 1872 2764 1633 
Q 3022 1394 3022 966 
Q 3022 478 2636 193 
Q 2250 -91 1575 -91 
Q 1294 -91 989 -36 
Q 684 19 347 128 
L 347 722 
Q 666 556 975 473 
Q 1284 391 1588 391 
Q 1994 391 2212 530 
Q 2431 669 2431 922 
Q 2431 1156 2273 1281 
Q 2116 1406 1581 1522 
L 1381 1569 
Q 847 1681 609 1914 
Q 372 2147 372 2553 
Q 372 3047 722 3315 
Q 1072 3584 1716 3584 
Q 2034 3584 2315 3537 
Q 2597 3491 2834 3397 
z
" id="DejaVuSans-73" transform="scale(0.015625)"/>
      </defs>
      <use xlink:href="#DejaVuSans-46"/>
      <use x="50.269531" xlink:href="#DejaVuSans-72"/>
      <use x="91.382812" xlink:href="#DejaVuSans-61"/>
      <use x="152.662109" xlink:href="#DejaVuSans-63"/>
      <use x="207.642578" xlink:href="#DejaVuSans-74"/>
      <use x="246.851562" xlink:href="#DejaVuSans-69"/>
      <use x="274.634766" xlink:href="#DejaVuSans-6f"/>
      <use x="335.816406" xlink:href="#DejaVuSans-6e"/>
      <use x="399.195312" xlink:href="#DejaVuSans-20"/>
      <use x="430.982422" xlink:href="#DejaVuSans-6f"/>
      <use x="492.164062" xlink:href="#DejaVuSans-66"/>
      <use x="527.369141" xlink:href="#DejaVuSans-20"/>
      <use x="559.15625" xlink:href="#DejaVuSans-2b"/>
      <use x="642.945312" xlink:href="#DejaVuSans-76"/>
      <use x="702.125" xlink:href="#DejaVuSans-65"/>
      <use x="763.648438" xlink:href="#DejaVuSans-20"/>
      <use x="795.435547" xlink:href="#DejaVuSans-45"/>
      <use x="858.619141" xlink:href="#DejaVuSans-64"/>
      <use x="922.095703" xlink:href="#DejaVuSans-67"/>
      <use x="985.572266" xlink:href="#DejaVuSans-65"/>
      <use x="1047.095703" xlink:href="#DejaVuSans-73"/>
     </g>
    </g>
   </g>
   <g id="matplotlib.axis_2">
    <g id="ytick_1">
     <g id="line2d_4">
      <defs>
       <path d="M 0 0 
L -4.8 0 
" id="m8fc579ea83" style="stroke:#262626;"/>
      </defs>
      <g>
       <use style="fill:#262626;stroke:#262626;" x="54.24" xlink:href="#m8fc579ea83" y="236.82"/>
      </g>
     </g>
     <g id="text_5">
      <!-- 0 -->
      <g style="fill:#262626;" transform="translate(35.76 242.89875)scale(0.16 -0.16)">
       <use xlink:href="#DejaVuSans-30"/>
      </g>
     </g>
    </g>
    <g id="ytick_2">
     <g id="line2d_5">
      <g>
       <use style="fill:#262626;stroke:#262626;" x="54.24" xlink:href="#m8fc579ea83" y="196.574108"/>
      </g>
     </g>
     <g id="text_6">
      <!-- 1 -->
      <g style="fill:#262626;" transform="translate(35.76 202.652858)scale(0.16 -0.16)">
       <defs>
        <path d="M 794 531 
L 1825 531 
L 1825 4091 
L 703 3866 
L 703 4441 
L 1819 4666 
L 2450 4666 
L 2450 531 
L 3481 531 
L 3481 0 
L 794 0 
L 794 531 
z
" id="DejaVuSans-31" transform="scale(0.015625)"/>
       </defs>
       <use xlink:href="#DejaVuSans-31"/>
      </g>
     </g>
    </g>
    <g id="ytick_3">
     <g id="line2d_6">
      <g>
       <use style="fill:#262626;stroke:#262626;" x="54.24" xlink:href="#m8fc579ea83" y="156.328216"/>
      </g>
     </g>
     <g id="text_7">
      <!-- 2 -->
      <g style="fill:#262626;" transform="translate(35.76 162.406966)scale(0.16 -0.16)">
       <use xlink:href="#DejaVuSans-32"/>
      </g>
     </g>
    </g>
    <g id="ytick_4">
     <g id="line2d_7">
      <g>
       <use style="fill:#262626;stroke:#262626;" x="54.24" xlink:href="#m8fc579ea83" y="116.082325"/>
      </g>
     </g>
     <g id="text_8">
      <!-- 3 -->
      <g style="fill:#262626;" transform="translate(35.76 122.161075)scale(0.16 -0.16)">
       <defs>
        <path d="M 2597 2516 
Q 3050 2419 3304 2112 
Q 3559 1806 3559 1356 
Q 3559 666 3084 287 
Q 2609 -91 1734 -91 
Q 1441 -91 1130 -33 
Q 819 25 488 141 
L 488 750 
Q 750 597 1062 519 
Q 1375 441 1716 441 
Q 2309 441 2620 675 
Q 2931 909 2931 1356 
Q 2931 1769 2642 2001 
Q 2353 2234 1838 2234 
L 1294 2234 
L 1294 2753 
L 1863 2753 
Q 2328 2753 2575 2939 
Q 2822 3125 2822 3475 
Q 2822 3834 2567 4026 
Q 2313 4219 1838 4219 
Q 1578 4219 1281 4162 
Q 984 4106 628 3988 
L 628 4550 
Q 988 4650 1302 4700 
Q 1616 4750 1894 4750 
Q 2613 4750 3031 4423 
Q 3450 4097 3450 3541 
Q 3450 3153 3228 2886 
Q 3006 2619 2597 2516 
z
" id="DejaVuSans-33" transform="scale(0.015625)"/>
       </defs>
       <use xlink:href="#DejaVuSans-33"/>
      </g>
     </g>
    </g>
    <g id="ytick_5">
     <g id="line2d_8">
      <g>
       <use style="fill:#262626;stroke:#262626;" x="54.24" xlink:href="#m8fc579ea83" y="75.836433"/>
      </g>
     </g>
     <g id="text_9">
      <!-- 4 -->
      <g style="fill:#262626;" transform="translate(35.76 81.915183)scale(0.16 -0.16)">
       <defs>
        <path d="M 2419 4116 
L 825 1625 
L 2419 1625 
L 2419 4116 
z
M 2253 4666 
L 3047 4666 
L 3047 1625 
L 3713 1625 
L 3713 1100 
L 3047 1100 
L 3047 0 
L 2419 0 
L 2419 1100 
L 313 1100 
L 313 1709 
L 2253 4666 
z
" id="DejaVuSans-34" transform="scale(0.015625)"/>
       </defs>
       <use xlink:href="#DejaVuSans-34"/>
      </g>
     </g>
    </g>
    <g id="ytick_6">
     <g id="line2d_9">
      <g>
       <use style="fill:#262626;stroke:#262626;" x="54.24" xlink:href="#m8fc579ea83" y="35.590541"/>
      </g>
     </g>
     <g id="text_10">
      <!-- 5 -->
      <g style="fill:#262626;" transform="translate(35.76 41.669291)scale(0.16 -0.16)">
       <use xlink:href="#DejaVuSans-35"/>
      </g>
     </g>
    </g>
    <g id="text_11">
     <!-- Density -->
     <g style="fill:#262626;" transform="translate(28.4325 157.46375)rotate(-90)scale(0.16 -0.16)">
      <defs>
       <path d="M 1259 4147 
L 1259 519 
L 2022 519 
Q 2988 519 3436 956 
Q 3884 1394 3884 2338 
Q 3884 3275 3436 3711 
Q 2988 4147 2022 4147 
L 1259 4147 
z
M 628 4666 
L 1925 4666 
Q 3281 4666 3915 4102 
Q 4550 3538 4550 2338 
Q 4550 1131 3912 565 
Q 3275 0 1925 0 
L 628 0 
L 628 4666 
z
" id="DejaVuSans-44" transform="scale(0.015625)"/>
       <path d="M 2059 -325 
Q 1816 -950 1584 -1140 
Q 1353 -1331 966 -1331 
L 506 -1331 
L 506 -850 
L 844 -850 
Q 1081 -850 1212 -737 
Q 1344 -625 1503 -206 
L 1606 56 
L 191 3500 
L 800 3500 
L 1894 763 
L 2988 3500 
L 3597 3500 
L 2059 -325 
z
" id="DejaVuSans-79" transform="scale(0.015625)"/>
      </defs>
      <use xlink:href="#DejaVuSans-44"/>
      <use x="77.001953" xlink:href="#DejaVuSans-65"/>
      <use x="138.525391" xlink:href="#DejaVuSans-6e"/>
      <use x="201.904297" xlink:href="#DejaVuSans-73"/>
      <use x="254.003906" xlink:href="#DejaVuSans-69"/>
      <use x="281.787109" xlink:href="#DejaVuSans-74"/>
      <use x="320.996094" xlink:href="#DejaVuSans-79"/>
     </g>
    </g>
   </g>
   <g id="PolyCollection_1">
    <defs>
     <path d="M 64.472727 -58.40095 
L 64.472727 -58.38 
L 65.501142 -58.38 
L 66.529557 -58.38 
L 67.557972 -58.38 
L 68.586386 -58.38 
L 69.614801 -58.38 
L 70.643216 -58.38 
L 71.671631 -58.38 
L 72.700046 -58.38 
L 73.72846 -58.38 
L 74.756875 -58.38 
L 75.78529 -58.38 
L 76.813705 -58.38 
L 77.84212 -58.38 
L 78.870534 -58.38 
L 79.898949 -58.38 
L 80.927364 -58.38 
L 81.955779 -58.38 
L 82.984194 -58.38 
L 84.012608 -58.38 
L 85.041023 -58.38 
L 86.069438 -58.38 
L 87.097853 -58.38 
L 88.126268 -58.38 
L 89.154683 -58.38 
L 90.183097 -58.38 
L 91.211512 -58.38 
L 92.239927 -58.38 
L 93.268342 -58.38 
L 94.296757 -58.38 
L 95.325171 -58.38 
L 96.353586 -58.38 
L 97.382001 -58.38 
L 98.410416 -58.38 
L 99.438831 -58.38 
L 100.467245 -58.38 
L 101.49566 -58.38 
L 102.524075 -58.38 
L 103.55249 -58.38 
L 104.580905 -58.38 
L 105.609319 -58.38 
L 106.637734 -58.38 
L 107.666149 -58.38 
L 108.694564 -58.38 
L 109.722979 -58.38 
L 110.751393 -58.38 
L 111.779808 -58.38 
L 112.808223 -58.38 
L 113.836638 -58.38 
L 114.865053 -58.38 
L 115.893467 -58.38 
L 116.921882 -58.38 
L 117.950297 -58.38 
L 118.978712 -58.38 
L 120.007127 -58.38 
L 121.035541 -58.38 
L 122.063956 -58.38 
L 123.092371 -58.38 
L 124.120786 -58.38 
L 125.149201 -58.38 
L 126.177615 -58.38 
L 127.20603 -58.38 
L 128.234445 -58.38 
L 129.26286 -58.38 
L 130.291275 -58.38 
L 131.319689 -58.38 
L 132.348104 -58.38 
L 133.376519 -58.38 
L 134.404934 -58.38 
L 135.433349 -58.38 
L 136.461763 -58.38 
L 137.490178 -58.38 
L 138.518593 -58.38 
L 139.547008 -58.38 
L 140.575423 -58.38 
L 141.603837 -58.38 
L 142.632252 -58.38 
L 143.660667 -58.38 
L 144.689082 -58.38 
L 145.717497 -58.38 
L 146.745911 -58.38 
L 147.774326 -58.38 
L 148.802741 -58.38 
L 149.831156 -58.38 
L 150.859571 -58.38 
L 151.887985 -58.38 
L 152.9164 -58.38 
L 153.944815 -58.38 
L 154.97323 -58.38 
L 156.001645 -58.38 
L 157.030059 -58.38 
L 158.058474 -58.38 
L 159.086889 -58.38 
L 160.115304 -58.38 
L 161.143719 -58.38 
L 162.172133 -58.38 
L 163.200548 -58.38 
L 164.228963 -58.38 
L 165.257378 -58.38 
L 166.285793 -58.38 
L 167.314207 -58.38 
L 168.342622 -58.38 
L 169.371037 -58.38 
L 170.399452 -58.38 
L 171.427867 -58.38 
L 172.456281 -58.38 
L 173.484696 -58.38 
L 174.513111 -58.38 
L 175.541526 -58.38 
L 176.569941 -58.38 
L 177.598355 -58.38 
L 178.62677 -58.38 
L 179.655185 -58.38 
L 180.6836 -58.38 
L 181.712015 -58.38 
L 182.740429 -58.38 
L 183.768844 -58.38 
L 184.797259 -58.38 
L 185.825674 -58.38 
L 186.854089 -58.38 
L 187.882503 -58.38 
L 188.910918 -58.38 
L 189.939333 -58.38 
L 190.967748 -58.38 
L 191.996163 -58.38 
L 193.024577 -58.38 
L 194.052992 -58.38 
L 195.081407 -58.38 
L 196.109822 -58.38 
L 197.138237 -58.38 
L 198.166651 -58.38 
L 199.195066 -58.38 
L 200.223481 -58.38 
L 201.251896 -58.38 
L 202.280311 -58.38 
L 203.308725 -58.38 
L 204.33714 -58.38 
L 205.365555 -58.38 
L 206.39397 -58.38 
L 207.422385 -58.38 
L 208.450799 -58.38 
L 209.479214 -58.38 
L 210.507629 -58.38 
L 211.536044 -58.38 
L 212.564459 -58.38 
L 213.592873 -58.38 
L 214.621288 -58.38 
L 215.649703 -58.38 
L 216.678118 -58.38 
L 217.706533 -58.38 
L 218.734947 -58.38 
L 219.763362 -58.38 
L 220.791777 -58.38 
L 221.820192 -58.38 
L 222.848607 -58.38 
L 223.877021 -58.38 
L 224.905436 -58.38 
L 225.933851 -58.38 
L 226.962266 -58.38 
L 227.990681 -58.38 
L 229.019095 -58.38 
L 230.04751 -58.38 
L 231.075925 -58.38 
L 232.10434 -58.38 
L 233.132755 -58.38 
L 234.161169 -58.38 
L 235.189584 -58.38 
L 236.217999 -58.38 
L 237.246414 -58.38 
L 238.274829 -58.38 
L 239.303243 -58.38 
L 240.331658 -58.38 
L 241.360073 -58.38 
L 242.388488 -58.38 
L 243.416903 -58.38 
L 244.445317 -58.38 
L 245.473732 -58.38 
L 246.502147 -58.38 
L 247.530562 -58.38 
L 248.558977 -58.38 
L 249.587392 -58.38 
L 250.615806 -58.38 
L 251.644221 -58.38 
L 252.672636 -58.38 
L 253.701051 -58.38 
L 254.729466 -58.38 
L 255.75788 -58.38 
L 256.786295 -58.38 
L 257.81471 -58.38 
L 258.843125 -58.38 
L 259.87154 -58.38 
L 260.899954 -58.38 
L 261.928369 -58.38 
L 262.956784 -58.38 
L 263.985199 -58.38 
L 265.013614 -58.38 
L 266.042028 -58.38 
L 267.070443 -58.38 
L 268.098858 -58.38 
L 269.127273 -58.38 
L 269.127273 -58.386983 
L 269.127273 -58.386983 
L 268.098858 -58.392314 
L 267.070443 -58.400899 
L 266.042028 -58.41414 
L 265.013614 -58.433682 
L 263.985199 -58.461247 
L 262.956784 -58.498358 
L 261.928369 -58.545959 
L 260.899954 -58.603986 
L 259.87154 -58.670976 
L 258.843125 -58.743837 
L 257.81471 -58.817896 
L 256.786295 -58.887284 
L 255.75788 -58.945651 
L 254.729466 -58.987109 
L 253.701051 -59.007211 
L 252.672636 -59.003753 
L 251.644221 -58.977196 
L 250.615806 -58.930638 
L 249.587392 -58.86933 
L 248.558977 -58.799933 
L 247.530562 -58.729704 
L 246.502147 -58.665879 
L 245.473732 -58.615424 
L 244.445317 -58.585205 
L 243.416903 -58.582518 
L 242.388488 -58.615748 
L 241.360073 -58.694858 
L 240.331658 -58.831335 
L 239.303243 -59.03729 
L 238.274829 -59.323535 
L 237.246414 -59.696746 
L 236.217999 -60.156131 
L 235.189584 -60.690384 
L 234.161169 -61.275891 
L 233.132755 -61.877155 
L 232.10434 -62.449983 
L 231.075925 -62.947385 
L 230.04751 -63.327251 
L 229.019095 -63.560237 
L 227.990681 -63.635908 
L 226.962266 -63.565467 
L 225.933851 -63.380109 
L 224.905436 -63.125222 
L 223.877021 -62.851771 
L 222.848607 -62.607024 
L 221.820192 -62.427016 
L 220.791777 -62.332695 
L 219.763362 -62.330709 
L 218.734947 -62.418511 
L 217.706533 -62.592237 
L 216.678118 -62.854924 
L 215.649703 -63.222376 
L 214.621288 -63.724427 
L 213.592873 -64.400396 
L 212.564459 -65.289123 
L 211.536044 -66.415584 
L 210.507629 -67.777481 
L 209.479214 -69.335815 
L 208.450799 -71.013046 
L 207.422385 -72.700929 
L 206.39397 -74.277706 
L 205.365555 -75.631697 
L 204.33714 -76.6861 
L 203.308725 -77.418891 
L 202.280311 -77.872409 
L 201.251896 -78.149537 
L 200.223481 -78.396716 
L 199.195066 -78.77748 
L 198.166651 -79.442713 
L 197.138237 -80.504733 
L 196.109822 -82.021374 
L 195.081407 -83.993684 
L 194.052992 -86.377437 
L 193.024577 -89.105188 
L 191.996163 -92.112895 
L 190.967748 -95.36387 
L 189.939333 -98.86324 
L 188.910918 -102.658257 
L 187.882503 -106.823258 
L 186.854089 -111.432265 
L 185.825674 -116.526055 
L 184.797259 -122.083043 
L 183.768844 -128.003446 
L 182.740429 -134.113508 
L 181.712015 -140.191321 
L 180.6836 -146.009404 
L 179.655185 -151.383569 
L 178.62677 -156.214866 
L 177.598355 -160.512726 
L 176.569941 -164.392633 
L 175.541526 -168.049054 
L 174.513111 -171.711438 
L 173.484696 -175.595458 
L 172.456281 -179.862091 
L 171.427867 -184.593789 
L 170.399452 -189.791506 
L 169.371037 -195.390484 
L 168.342622 -201.288314 
L 167.314207 -207.376515 
L 166.285793 -213.566872 
L 165.257378 -219.805571 
L 164.228963 -226.07118 
L 163.200548 -232.356429 
L 162.172133 -238.637957 
L 161.143719 -244.842183 
L 160.115304 -250.81807 
L 159.086889 -256.32765 
L 158.058474 -261.061901 
L 157.030059 -264.683067 
L 156.001645 -266.886248 
L 154.97323 -267.465714 
L 153.944815 -266.367772 
L 152.9164 -263.713889 
L 151.887985 -259.785298 
L 150.859571 -254.97099 
L 149.831156 -249.691544 
L 148.802741 -244.317991 
L 147.774326 -239.105832 
L 146.745911 -234.159545 
L 145.717497 -229.434176 
L 144.689082 -224.771072 
L 143.660667 -219.95682 
L 142.632252 -214.790091 
L 141.603837 -209.140498 
L 140.575423 -202.986552 
L 139.547008 -196.425182 
L 138.518593 -189.651844 
L 137.490178 -182.916837 
L 136.461763 -176.468769 
L 135.433349 -170.499057 
L 134.404934 -165.101148 
L 133.376519 -160.254489 
L 132.348104 -155.836891 
L 131.319689 -151.66131 
L 130.291275 -147.526414 
L 129.26286 -143.266723 
L 128.234445 -138.78879 
L 127.20603 -134.084691 
L 126.177615 -129.221391 
L 125.149201 -124.311804 
L 124.120786 -119.478218 
L 123.092371 -114.819775 
L 122.063956 -110.392951 
L 121.035541 -106.208856 
L 120.007127 -102.245632 
L 118.978712 -98.470009 
L 117.950297 -94.86027 
L 116.921882 -91.423465 
L 115.893467 -88.202061 
L 114.865053 -85.268452 
L 113.836638 -82.708929 
L 112.808223 -80.601179 
L 111.779808 -78.990884 
L 110.751393 -77.873226 
L 109.722979 -77.184143 
L 108.694564 -76.804067 
L 107.666149 -76.574077 
L 106.637734 -76.321372 
L 105.609319 -75.888598 
L 104.580905 -75.16044 
L 103.55249 -74.081523 
L 102.524075 -72.661879 
L 101.49566 -70.969459 
L 100.467245 -69.112373 
L 99.438831 -67.215809 
L 98.410416 -65.399309 
L 97.382001 -63.759134 
L 96.353586 -62.358465 
L 95.325171 -61.225775 
L 94.296757 -60.359743 
L 93.268342 -59.737951 
L 92.239927 -59.326482 
L 91.211512 -59.088134 
L 90.183097 -58.987954 
L 89.154683 -58.99579 
L 88.126268 -59.086344 
L 87.097853 -59.237666 
L 86.069438 -59.429122 
L 85.041023 -59.639804 
L 84.012608 -59.847992 
L 82.984194 -60.031913 
L 81.955779 -60.171589 
L 80.927364 -60.251258 
L 79.898949 -60.261634 
L 78.870534 -60.201327 
L 77.84212 -60.076954 
L 76.813705 -59.901853 
L 75.78529 -59.693688 
L 74.756875 -59.47151 
L 73.72846 -59.252927 
L 72.700046 -59.051959 
L 71.671631 -58.877878 
L 70.643216 -58.735073 
L 69.614801 -58.62374 
L 68.586386 -58.541046 
L 67.557972 -58.482421 
L 66.529557 -58.442696 
L 65.501142 -58.416941 
L 64.472727 -58.40095 
z
" id="me0517b7d28" style="stroke:#4c72b0;stroke-width:2;"/>
    </defs>
    <g clip-path="url(#pf8eafdc5e9)">
     <use style="fill:#4c72b0;fill-opacity:0.1;stroke:#4c72b0;stroke-width:2;" x="0" xlink:href="#me0517b7d28" y="295.2"/>
    </g>
   </g>
   <g id="patch_3">
    <path d="M 54.24 236.82 
L 54.24 17.28 
" style="fill:none;stroke:#262626;stroke-linecap:square;stroke-linejoin:miter;"/>
   </g>
   <g id="patch_4">
    <path d="M 279.36 236.82 
L 279.36 17.28 
" style="fill:none;stroke:#262626;stroke-linecap:square;stroke-linejoin:miter;"/>
   </g>
   <g id="patch_5">
    <path d="M 54.24 236.82 
L 279.36 236.82 
" style="fill:none;stroke:#262626;stroke-linecap:square;stroke-linejoin:miter;"/>
   </g>
   <g id="patch_6">
    <path d="M 54.24 17.28 
L 279.36 17.28 
" style="fill:none;stroke:#262626;stroke-linecap:square;stroke-linejoin:miter;"/>
   </g>
  </g>
  <g id="axes_2">
   <g id="patch_7">
    <path d="M 333.6 236.82 
L 558.72 236.82 
L 558.72 17.28 
L 333.6 17.28 
z
" style="fill:#ffffff;"/>
   </g>
   <g id="matplotlib.axis_3">
    <g id="xtick_4">
     <g id="line2d_10">
      <g>
       <use style="fill:#262626;stroke:#262626;" x="334.894887" xlink:href="#mfb833196f8" y="236.82"/>
      </g>
     </g>
     <g id="text_12">
      <!-- 0.00 -->
      <g style="fill:#262626;" transform="translate(317.082387 257.2775)scale(0.16 -0.16)">
       <use xlink:href="#DejaVuSans-30"/>
       <use x="63.623047" xlink:href="#DejaVuSans-2e"/>
       <use x="95.410156" xlink:href="#DejaVuSans-30"/>
       <use x="159.033203" xlink:href="#DejaVuSans-30"/>
      </g>
     </g>
    </g>
    <g id="xtick_5">
     <g id="line2d_11">
      <g>
       <use style="fill:#262626;stroke:#262626;" x="396.708839" xlink:href="#mfb833196f8" y="236.82"/>
      </g>
     </g>
     <g id="text_13">
      <!-- 0.25 -->
      <g style="fill:#262626;" transform="translate(378.896339 257.2775)scale(0.16 -0.16)">
       <use xlink:href="#DejaVuSans-30"/>
       <use x="63.623047" xlink:href="#DejaVuSans-2e"/>
       <use x="95.410156" xlink:href="#DejaVuSans-32"/>
       <use x="159.033203" xlink:href="#DejaVuSans-35"/>
      </g>
     </g>
    </g>
    <g id="xtick_6">
     <g id="line2d_12">
      <g>
       <use style="fill:#262626;stroke:#262626;" x="458.52279" xlink:href="#mfb833196f8" y="236.82"/>
      </g>
     </g>
     <g id="text_14">
      <!-- 0.50 -->
      <g style="fill:#262626;" transform="translate(440.71029 257.2775)scale(0.16 -0.16)">
       <use xlink:href="#DejaVuSans-30"/>
       <use x="63.623047" xlink:href="#DejaVuSans-2e"/>
       <use x="95.410156" xlink:href="#DejaVuSans-35"/>
       <use x="159.033203" xlink:href="#DejaVuSans-30"/>
      </g>
     </g>
    </g>
    <g id="xtick_7">
     <g id="line2d_13">
      <g>
       <use style="fill:#262626;stroke:#262626;" x="520.336742" xlink:href="#mfb833196f8" y="236.82"/>
      </g>
     </g>
     <g id="text_15">
      <!-- 0.75 -->
      <g style="fill:#262626;" transform="translate(502.524242 257.2775)scale(0.16 -0.16)">
       <use xlink:href="#DejaVuSans-30"/>
       <use x="63.623047" xlink:href="#DejaVuSans-2e"/>
       <use x="95.410156" xlink:href="#DejaVuSans-37"/>
       <use x="159.033203" xlink:href="#DejaVuSans-35"/>
      </g>
     </g>
    </g>
    <g id="text_16">
     <!-- Fraction of -ve Edges -->
     <g style="fill:#262626;" transform="translate(362.25 276.7625)scale(0.16 -0.16)">
      <defs>
       <path d="M 313 2009 
L 1997 2009 
L 1997 1497 
L 313 1497 
L 313 2009 
z
" id="DejaVuSans-2d" transform="scale(0.015625)"/>
      </defs>
      <use xlink:href="#DejaVuSans-46"/>
      <use x="50.269531" xlink:href="#DejaVuSans-72"/>
      <use x="91.382812" xlink:href="#DejaVuSans-61"/>
      <use x="152.662109" xlink:href="#DejaVuSans-63"/>
      <use x="207.642578" xlink:href="#DejaVuSans-74"/>
      <use x="246.851562" xlink:href="#DejaVuSans-69"/>
      <use x="274.634766" xlink:href="#DejaVuSans-6f"/>
      <use x="335.816406" xlink:href="#DejaVuSans-6e"/>
      <use x="399.195312" xlink:href="#DejaVuSans-20"/>
      <use x="430.982422" xlink:href="#DejaVuSans-6f"/>
      <use x="492.164062" xlink:href="#DejaVuSans-66"/>
      <use x="527.369141" xlink:href="#DejaVuSans-20"/>
      <use x="559.15625" xlink:href="#DejaVuSans-2d"/>
      <use x="592.615234" xlink:href="#DejaVuSans-76"/>
      <use x="651.794922" xlink:href="#DejaVuSans-65"/>
      <use x="713.318359" xlink:href="#DejaVuSans-20"/>
      <use x="745.105469" xlink:href="#DejaVuSans-45"/>
      <use x="808.289062" xlink:href="#DejaVuSans-64"/>
      <use x="871.765625" xlink:href="#DejaVuSans-67"/>
      <use x="935.242188" xlink:href="#DejaVuSans-65"/>
      <use x="996.765625" xlink:href="#DejaVuSans-73"/>
     </g>
    </g>
   </g>
   <g id="matplotlib.axis_4">
    <g id="ytick_7">
     <g id="line2d_14">
      <g>
       <use style="fill:#262626;stroke:#262626;" x="333.6" xlink:href="#m8fc579ea83" y="236.82"/>
      </g>
     </g>
     <g id="text_17">
      <!-- 0 -->
      <g style="fill:#262626;" transform="translate(315.12 242.89875)scale(0.16 -0.16)">
       <use xlink:href="#DejaVuSans-30"/>
      </g>
     </g>
    </g>
    <g id="ytick_8">
     <g id="line2d_15">
      <g>
       <use style="fill:#262626;stroke:#262626;" x="333.6" xlink:href="#m8fc579ea83" y="196.574108"/>
      </g>
     </g>
     <g id="text_18">
      <!-- 1 -->
      <g style="fill:#262626;" transform="translate(315.12 202.652858)scale(0.16 -0.16)">
       <use xlink:href="#DejaVuSans-31"/>
      </g>
     </g>
    </g>
    <g id="ytick_9">
     <g id="line2d_16">
      <g>
       <use style="fill:#262626;stroke:#262626;" x="333.6" xlink:href="#m8fc579ea83" y="156.328216"/>
      </g>
     </g>
     <g id="text_19">
      <!-- 2 -->
      <g style="fill:#262626;" transform="translate(315.12 162.406966)scale(0.16 -0.16)">
       <use xlink:href="#DejaVuSans-32"/>
      </g>
     </g>
    </g>
    <g id="ytick_10">
     <g id="line2d_17">
      <g>
       <use style="fill:#262626;stroke:#262626;" x="333.6" xlink:href="#m8fc579ea83" y="116.082325"/>
      </g>
     </g>
     <g id="text_20">
      <!-- 3 -->
      <g style="fill:#262626;" transform="translate(315.12 122.161075)scale(0.16 -0.16)">
       <use xlink:href="#DejaVuSans-33"/>
      </g>
     </g>
    </g>
    <g id="ytick_11">
     <g id="line2d_18">
      <g>
       <use style="fill:#262626;stroke:#262626;" x="333.6" xlink:href="#m8fc579ea83" y="75.836433"/>
      </g>
     </g>
     <g id="text_21">
      <!-- 4 -->
      <g style="fill:#262626;" transform="translate(315.12 81.915183)scale(0.16 -0.16)">
       <use xlink:href="#DejaVuSans-34"/>
      </g>
     </g>
    </g>
    <g id="ytick_12">
     <g id="line2d_19">
      <g>
       <use style="fill:#262626;stroke:#262626;" x="333.6" xlink:href="#m8fc579ea83" y="35.590541"/>
      </g>
     </g>
     <g id="text_22">
      <!-- 5 -->
      <g style="fill:#262626;" transform="translate(315.12 41.669291)scale(0.16 -0.16)">
       <use xlink:href="#DejaVuSans-35"/>
      </g>
     </g>
    </g>
    <g id="text_23">
     <!-- Density -->
     <g style="fill:#262626;" transform="translate(307.7925 157.46375)rotate(-90)scale(0.16 -0.16)">
      <use xlink:href="#DejaVuSans-44"/>
      <use x="77.001953" xlink:href="#DejaVuSans-65"/>
      <use x="138.525391" xlink:href="#DejaVuSans-6e"/>
      <use x="201.904297" xlink:href="#DejaVuSans-73"/>
      <use x="254.003906" xlink:href="#DejaVuSans-69"/>
      <use x="281.787109" xlink:href="#DejaVuSans-74"/>
      <use x="320.996094" xlink:href="#DejaVuSans-79"/>
     </g>
    </g>
   </g>
   <g id="PolyCollection_2">
    <defs>
     <path d="M 343.832727 -58.386983 
L 343.832727 -58.38 
L 344.861142 -58.38 
L 345.889557 -58.38 
L 346.917972 -58.38 
L 347.946386 -58.38 
L 348.974801 -58.38 
L 350.003216 -58.38 
L 351.031631 -58.38 
L 352.060046 -58.38 
L 353.08846 -58.38 
L 354.116875 -58.38 
L 355.14529 -58.38 
L 356.173705 -58.38 
L 357.20212 -58.38 
L 358.230534 -58.38 
L 359.258949 -58.38 
L 360.287364 -58.38 
L 361.315779 -58.38 
L 362.344194 -58.38 
L 363.372608 -58.38 
L 364.401023 -58.38 
L 365.429438 -58.38 
L 366.457853 -58.38 
L 367.486268 -58.38 
L 368.514683 -58.38 
L 369.543097 -58.38 
L 370.571512 -58.38 
L 371.599927 -58.38 
L 372.628342 -58.38 
L 373.656757 -58.38 
L 374.685171 -58.38 
L 375.713586 -58.38 
L 376.742001 -58.38 
L 377.770416 -58.38 
L 378.798831 -58.38 
L 379.827245 -58.38 
L 380.85566 -58.38 
L 381.884075 -58.38 
L 382.91249 -58.38 
L 383.940905 -58.38 
L 384.969319 -58.38 
L 385.997734 -58.38 
L 387.026149 -58.38 
L 388.054564 -58.38 
L 389.082979 -58.38 
L 390.111393 -58.38 
L 391.139808 -58.38 
L 392.168223 -58.38 
L 393.196638 -58.38 
L 394.225053 -58.38 
L 395.253467 -58.38 
L 396.281882 -58.38 
L 397.310297 -58.38 
L 398.338712 -58.38 
L 399.367127 -58.38 
L 400.395541 -58.38 
L 401.423956 -58.38 
L 402.452371 -58.38 
L 403.480786 -58.38 
L 404.509201 -58.38 
L 405.537615 -58.38 
L 406.56603 -58.38 
L 407.594445 -58.38 
L 408.62286 -58.38 
L 409.651275 -58.38 
L 410.679689 -58.38 
L 411.708104 -58.38 
L 412.736519 -58.38 
L 413.764934 -58.38 
L 414.793349 -58.38 
L 415.821763 -58.38 
L 416.850178 -58.38 
L 417.878593 -58.38 
L 418.907008 -58.38 
L 419.935423 -58.38 
L 420.963837 -58.38 
L 421.992252 -58.38 
L 423.020667 -58.38 
L 424.049082 -58.38 
L 425.077497 -58.38 
L 426.105911 -58.38 
L 427.134326 -58.38 
L 428.162741 -58.38 
L 429.191156 -58.38 
L 430.219571 -58.38 
L 431.247985 -58.38 
L 432.2764 -58.38 
L 433.304815 -58.38 
L 434.33323 -58.38 
L 435.361645 -58.38 
L 436.390059 -58.38 
L 437.418474 -58.38 
L 438.446889 -58.38 
L 439.475304 -58.38 
L 440.503719 -58.38 
L 441.532133 -58.38 
L 442.560548 -58.38 
L 443.588963 -58.38 
L 444.617378 -58.38 
L 445.645793 -58.38 
L 446.674207 -58.38 
L 447.702622 -58.38 
L 448.731037 -58.38 
L 449.759452 -58.38 
L 450.787867 -58.38 
L 451.816281 -58.38 
L 452.844696 -58.38 
L 453.873111 -58.38 
L 454.901526 -58.38 
L 455.929941 -58.38 
L 456.958355 -58.38 
L 457.98677 -58.38 
L 459.015185 -58.38 
L 460.0436 -58.38 
L 461.072015 -58.38 
L 462.100429 -58.38 
L 463.128844 -58.38 
L 464.157259 -58.38 
L 465.185674 -58.38 
L 466.214089 -58.38 
L 467.242503 -58.38 
L 468.270918 -58.38 
L 469.299333 -58.38 
L 470.327748 -58.38 
L 471.356163 -58.38 
L 472.384577 -58.38 
L 473.412992 -58.38 
L 474.441407 -58.38 
L 475.469822 -58.38 
L 476.498237 -58.38 
L 477.526651 -58.38 
L 478.555066 -58.38 
L 479.583481 -58.38 
L 480.611896 -58.38 
L 481.640311 -58.38 
L 482.668725 -58.38 
L 483.69714 -58.38 
L 484.725555 -58.38 
L 485.75397 -58.38 
L 486.782385 -58.38 
L 487.810799 -58.38 
L 488.839214 -58.38 
L 489.867629 -58.38 
L 490.896044 -58.38 
L 491.924459 -58.38 
L 492.952873 -58.38 
L 493.981288 -58.38 
L 495.009703 -58.38 
L 496.038118 -58.38 
L 497.066533 -58.38 
L 498.094947 -58.38 
L 499.123362 -58.38 
L 500.151777 -58.38 
L 501.180192 -58.38 
L 502.208607 -58.38 
L 503.237021 -58.38 
L 504.265436 -58.38 
L 505.293851 -58.38 
L 506.322266 -58.38 
L 507.350681 -58.38 
L 508.379095 -58.38 
L 509.40751 -58.38 
L 510.435925 -58.38 
L 511.46434 -58.38 
L 512.492755 -58.38 
L 513.521169 -58.38 
L 514.549584 -58.38 
L 515.577999 -58.38 
L 516.606414 -58.38 
L 517.634829 -58.38 
L 518.663243 -58.38 
L 519.691658 -58.38 
L 520.720073 -58.38 
L 521.748488 -58.38 
L 522.776903 -58.38 
L 523.805317 -58.38 
L 524.833732 -58.38 
L 525.862147 -58.38 
L 526.890562 -58.38 
L 527.918977 -58.38 
L 528.947392 -58.38 
L 529.975806 -58.38 
L 531.004221 -58.38 
L 532.032636 -58.38 
L 533.061051 -58.38 
L 534.089466 -58.38 
L 535.11788 -58.38 
L 536.146295 -58.38 
L 537.17471 -58.38 
L 538.203125 -58.38 
L 539.23154 -58.38 
L 540.259954 -58.38 
L 541.288369 -58.38 
L 542.316784 -58.38 
L 543.345199 -58.38 
L 544.373614 -58.38 
L 545.402028 -58.38 
L 546.430443 -58.38 
L 547.458858 -58.38 
L 548.487273 -58.38 
L 548.487273 -58.40095 
L 548.487273 -58.40095 
L 547.458858 -58.416941 
L 546.430443 -58.442696 
L 545.402028 -58.482421 
L 544.373614 -58.541046 
L 543.345199 -58.62374 
L 542.316784 -58.735073 
L 541.288369 -58.877878 
L 540.259954 -59.051959 
L 539.23154 -59.252927 
L 538.203125 -59.47151 
L 537.17471 -59.693688 
L 536.146295 -59.901853 
L 535.11788 -60.076954 
L 534.089466 -60.201327 
L 533.061051 -60.261634 
L 532.032636 -60.251258 
L 531.004221 -60.171589 
L 529.975806 -60.031913 
L 528.947392 -59.847992 
L 527.918977 -59.639804 
L 526.890562 -59.429122 
L 525.862147 -59.237666 
L 524.833732 -59.086344 
L 523.805317 -58.99579 
L 522.776903 -58.987954 
L 521.748488 -59.088134 
L 520.720073 -59.326482 
L 519.691658 -59.737951 
L 518.663243 -60.359743 
L 517.634829 -61.225775 
L 516.606414 -62.358465 
L 515.577999 -63.759134 
L 514.549584 -65.399309 
L 513.521169 -67.215809 
L 512.492755 -69.112373 
L 511.46434 -70.969459 
L 510.435925 -72.661879 
L 509.40751 -74.081523 
L 508.379095 -75.16044 
L 507.350681 -75.888598 
L 506.322266 -76.321372 
L 505.293851 -76.574077 
L 504.265436 -76.804067 
L 503.237021 -77.184143 
L 502.208607 -77.873226 
L 501.180192 -78.990884 
L 500.151777 -80.601179 
L 499.123362 -82.708929 
L 498.094947 -85.268452 
L 497.066533 -88.202061 
L 496.038118 -91.423465 
L 495.009703 -94.86027 
L 493.981288 -98.470009 
L 492.952873 -102.245632 
L 491.924459 -106.208856 
L 490.896044 -110.392951 
L 489.867629 -114.819775 
L 488.839214 -119.478218 
L 487.810799 -124.311804 
L 486.782385 -129.221391 
L 485.75397 -134.084691 
L 484.725555 -138.78879 
L 483.69714 -143.266723 
L 482.668725 -147.526414 
L 481.640311 -151.66131 
L 480.611896 -155.836891 
L 479.583481 -160.254489 
L 478.555066 -165.101148 
L 477.526651 -170.499057 
L 476.498237 -176.468769 
L 475.469822 -182.916837 
L 474.441407 -189.651844 
L 473.412992 -196.425182 
L 472.384577 -202.986552 
L 471.356163 -209.140498 
L 470.327748 -214.790091 
L 469.299333 -219.95682 
L 468.270918 -224.771072 
L 467.242503 -229.434176 
L 466.214089 -234.159545 
L 465.185674 -239.105832 
L 464.157259 -244.317991 
L 463.128844 -249.691544 
L 462.100429 -254.97099 
L 461.072015 -259.785298 
L 460.0436 -263.713889 
L 459.015185 -266.367772 
L 457.98677 -267.465714 
L 456.958355 -266.886248 
L 455.929941 -264.683067 
L 454.901526 -261.061901 
L 453.873111 -256.32765 
L 452.844696 -250.81807 
L 451.816281 -244.842183 
L 450.787867 -238.637957 
L 449.759452 -232.356429 
L 448.731037 -226.07118 
L 447.702622 -219.805571 
L 446.674207 -213.566872 
L 445.645793 -207.376515 
L 444.617378 -201.288314 
L 443.588963 -195.390484 
L 442.560548 -189.791506 
L 441.532133 -184.593789 
L 440.503719 -179.862091 
L 439.475304 -175.595458 
L 438.446889 -171.711438 
L 437.418474 -168.049054 
L 436.390059 -164.392633 
L 435.361645 -160.512726 
L 434.33323 -156.214866 
L 433.304815 -151.383569 
L 432.2764 -146.009404 
L 431.247985 -140.191321 
L 430.219571 -134.113508 
L 429.191156 -128.003446 
L 428.162741 -122.083043 
L 427.134326 -116.526055 
L 426.105911 -111.432265 
L 425.077497 -106.823258 
L 424.049082 -102.658257 
L 423.020667 -98.86324 
L 421.992252 -95.36387 
L 420.963837 -92.112895 
L 419.935423 -89.105188 
L 418.907008 -86.377437 
L 417.878593 -83.993684 
L 416.850178 -82.021374 
L 415.821763 -80.504733 
L 414.793349 -79.442713 
L 413.764934 -78.77748 
L 412.736519 -78.396716 
L 411.708104 -78.149537 
L 410.679689 -77.872409 
L 409.651275 -77.418891 
L 408.62286 -76.6861 
L 407.594445 -75.631697 
L 406.56603 -74.277706 
L 405.537615 -72.700929 
L 404.509201 -71.013046 
L 403.480786 -69.335815 
L 402.452371 -67.777481 
L 401.423956 -66.415584 
L 400.395541 -65.289123 
L 399.367127 -64.400396 
L 398.338712 -63.724427 
L 397.310297 -63.222376 
L 396.281882 -62.854924 
L 395.253467 -62.592237 
L 394.225053 -62.418511 
L 393.196638 -62.330709 
L 392.168223 -62.332695 
L 391.139808 -62.427016 
L 390.111393 -62.607024 
L 389.082979 -62.851771 
L 388.054564 -63.125222 
L 387.026149 -63.380109 
L 385.997734 -63.565467 
L 384.969319 -63.635908 
L 383.940905 -63.560237 
L 382.91249 -63.327251 
L 381.884075 -62.947385 
L 380.85566 -62.449983 
L 379.827245 -61.877155 
L 378.798831 -61.275891 
L 377.770416 -60.690384 
L 376.742001 -60.156131 
L 375.713586 -59.696746 
L 374.685171 -59.323535 
L 373.656757 -59.03729 
L 372.628342 -58.831335 
L 371.599927 -58.694858 
L 370.571512 -58.615748 
L 369.543097 -58.582518 
L 368.514683 -58.585205 
L 367.486268 -58.615424 
L 366.457853 -58.665879 
L 365.429438 -58.729704 
L 364.401023 -58.799933 
L 363.372608 -58.86933 
L 362.344194 -58.930638 
L 361.315779 -58.977196 
L 360.287364 -59.003753 
L 359.258949 -59.007211 
L 358.230534 -58.987109 
L 357.20212 -58.945651 
L 356.173705 -58.887284 
L 355.14529 -58.817896 
L 354.116875 -58.743837 
L 353.08846 -58.670976 
L 352.060046 -58.603986 
L 351.031631 -58.545959 
L 350.003216 -58.498358 
L 348.974801 -58.461247 
L 347.946386 -58.433682 
L 346.917972 -58.41414 
L 345.889557 -58.400899 
L 344.861142 -58.392314 
L 343.832727 -58.386983 
z
" id="mf5d25e68a7" style="stroke:#4c72b0;stroke-width:2;"/>
    </defs>
    <g clip-path="url(#p57ac932085)">
     <use style="fill:#4c72b0;fill-opacity:0.1;stroke:#4c72b0;stroke-width:2;" x="0" xlink:href="#mf5d25e68a7" y="295.2"/>
    </g>
   </g>
   <g id="patch_8">
    <path d="M 333.6 236.82 
L 333.6 17.28 
" style="fill:none;stroke:#262626;stroke-linecap:square;stroke-linejoin:miter;"/>
   </g>
   <g id="patch_9">
    <path d="M 558.72 236.82 
L 558.72 17.28 
" style="fill:none;stroke:#262626;stroke-linecap:square;stroke-linejoin:miter;"/>
   </g>
   <g id="patch_10">
    <path d="M 333.6 236.82 
L 558.72 236.82 
" style="fill:none;stroke:#262626;stroke-linecap:square;stroke-linejoin:miter;"/>
   </g>
   <g id="patch_11">
    <path d="M 333.6 17.28 
L 558.72 17.28 
" style="fill:none;stroke:#262626;stroke-linecap:square;stroke-linejoin:miter;"/>
   </g>
  </g>
 </g>
 <defs>
  <clipPath id="pf8eafdc5e9">
   <rect height="219.54" width="225.12" x="54.24" y="17.28"/>
  </clipPath>
  <clipPath id="p57ac932085">
   <rect height="219.54" width="225.12" x="333.6" y="17.28"/>
  </clipPath>
 </defs>
</svg>
