<?xml version="1.0" encoding="utf-8" standalone="no"?>
<!DOCTYPE svg PUBLIC "-//W3C//DTD SVG 1.1//EN"
  "http://www.w3.org/Graphics/SVG/1.1/DTD/svg11.dtd">
<svg height="252pt" version="1.1" viewBox="0 0 288 252" width="288pt" xmlns="http://www.w3.org/2000/svg" xmlns:xlink="http://www.w3.org/1999/xlink">
 <metadata>
  <rdf:RDF xmlns:cc="http://creativecommons.org/ns#" xmlns:dc="http://purl.org/dc/elements/1.1/" xmlns:rdf="http://www.w3.org/1999/02/22-rdf-syntax-ns#">
   <cc:Work>
    <dc:type rdf:resource="http://purl.org/dc/dcmitype/StillImage"/>
    <dc:date>2022-03-31T13:22:18.036100</dc:date>
    <dc:format>image/svg+xml</dc:format>
    <dc:creator>
     <cc:Agent>
      <dc:title>Matplotlib v3.4.2, https://matplotlib.org/</dc:title>
     </cc:Agent>
    </dc:creator>
   </cc:Work>
  </rdf:RDF>
 </metadata>
 <defs>
  <style type="text/css">*{stroke-linecap:butt;stroke-linejoin:round;}</style>
 </defs>
 <g id="figure_1">
  <g id="patch_1">
   <path d="M 0 252 
L 288 252 
L 288 0 
L 0 0 
z
" style="fill:#ffffff;"/>
  </g>
  <g id="axes_1">
   <g id="patch_2">
    <path d="M 74.76 200.82 
L 275.04 200.82 
L 275.04 15.044125 
L 74.76 15.044125 
z
" style="fill:#ffffff;"/>
   </g>
   <g id="matplotlib.axis_1">
    <g id="xtick_1">
     <g id="line2d_1">
      <defs>
       <path d="M 0 0 
L 0 4.8 
" id="m9332a7fe96" style="stroke:#262626;"/>
      </defs>
      <g>
       <use style="fill:#262626;stroke:#262626;" x="97.425714" xlink:href="#m9332a7fe96" y="200.82"/>
      </g>
     </g>
     <g id="text_1">
      <!-- −2 -->
      <g style="fill:#262626;" transform="translate(88.580402 218.238125)scale(0.12 -0.12)">
       <defs>
        <path d="M 678 2272 
L 4684 2272 
L 4684 1741 
L 678 1741 
L 678 2272 
z
" id="DejaVuSans-2212" transform="scale(0.015625)"/>
        <path d="M 1228 531 
L 3431 531 
L 3431 0 
L 469 0 
L 469 531 
Q 828 903 1448 1529 
Q 2069 2156 2228 2338 
Q 2531 2678 2651 2914 
Q 2772 3150 2772 3378 
Q 2772 3750 2511 3984 
Q 2250 4219 1831 4219 
Q 1534 4219 1204 4116 
Q 875 4013 500 3803 
L 500 4441 
Q 881 4594 1212 4672 
Q 1544 4750 1819 4750 
Q 2544 4750 2975 4387 
Q 3406 4025 3406 3419 
Q 3406 3131 3298 2873 
Q 3191 2616 2906 2266 
Q 2828 2175 2409 1742 
Q 1991 1309 1228 531 
z
" id="DejaVuSans-32" transform="scale(0.015625)"/>
       </defs>
       <use xlink:href="#DejaVuSans-2212"/>
       <use x="83.789062" xlink:href="#DejaVuSans-32"/>
      </g>
     </g>
    </g>
    <g id="xtick_2">
     <g id="line2d_2">
      <g>
       <use style="fill:#262626;stroke:#262626;" x="139.553377" xlink:href="#m9332a7fe96" y="200.82"/>
      </g>
     </g>
     <g id="text_2">
      <!-- −1 -->
      <g style="fill:#262626;" transform="translate(130.708064 218.238125)scale(0.12 -0.12)">
       <defs>
        <path d="M 794 531 
L 1825 531 
L 1825 4091 
L 703 3866 
L 703 4441 
L 1819 4666 
L 2450 4666 
L 2450 531 
L 3481 531 
L 3481 0 
L 794 0 
L 794 531 
z
" id="DejaVuSans-31" transform="scale(0.015625)"/>
       </defs>
       <use xlink:href="#DejaVuSans-2212"/>
       <use x="83.789062" xlink:href="#DejaVuSans-31"/>
      </g>
     </g>
    </g>
    <g id="xtick_3">
     <g id="line2d_3">
      <g>
       <use style="fill:#262626;stroke:#262626;" x="181.681039" xlink:href="#m9332a7fe96" y="200.82"/>
      </g>
     </g>
     <g id="text_3">
      <!-- 0 -->
      <g style="fill:#262626;" transform="translate(177.863539 218.238125)scale(0.12 -0.12)">
       <defs>
        <path d="M 2034 4250 
Q 1547 4250 1301 3770 
Q 1056 3291 1056 2328 
Q 1056 1369 1301 889 
Q 1547 409 2034 409 
Q 2525 409 2770 889 
Q 3016 1369 3016 2328 
Q 3016 3291 2770 3770 
Q 2525 4250 2034 4250 
z
M 2034 4750 
Q 2819 4750 3233 4129 
Q 3647 3509 3647 2328 
Q 3647 1150 3233 529 
Q 2819 -91 2034 -91 
Q 1250 -91 836 529 
Q 422 1150 422 2328 
Q 422 3509 836 4129 
Q 1250 4750 2034 4750 
z
" id="DejaVuSans-30" transform="scale(0.015625)"/>
       </defs>
       <use xlink:href="#DejaVuSans-30"/>
      </g>
     </g>
    </g>
    <g id="xtick_4">
     <g id="line2d_4">
      <g>
       <use style="fill:#262626;stroke:#262626;" x="223.808701" xlink:href="#m9332a7fe96" y="200.82"/>
      </g>
     </g>
     <g id="text_4">
      <!-- 1 -->
      <g style="fill:#262626;" transform="translate(219.991201 218.238125)scale(0.12 -0.12)">
       <use xlink:href="#DejaVuSans-31"/>
      </g>
     </g>
    </g>
    <g id="xtick_5">
     <g id="line2d_5">
      <g>
       <use style="fill:#262626;stroke:#262626;" x="265.936364" xlink:href="#m9332a7fe96" y="200.82"/>
      </g>
     </g>
     <g id="text_5">
      <!-- 2 -->
      <g style="fill:#262626;" transform="translate(262.118864 218.238125)scale(0.12 -0.12)">
       <use xlink:href="#DejaVuSans-32"/>
      </g>
     </g>
    </g>
    <g id="text_6">
     <!-- log2(InA/InB) -->
     <g style="fill:#262626;" transform="translate(135.86625 233.851875)scale(0.12 -0.12)">
      <defs>
       <path d="M 603 4863 
L 1178 4863 
L 1178 0 
L 603 0 
L 603 4863 
z
" id="DejaVuSans-6c" transform="scale(0.015625)"/>
       <path d="M 1959 3097 
Q 1497 3097 1228 2736 
Q 959 2375 959 1747 
Q 959 1119 1226 758 
Q 1494 397 1959 397 
Q 2419 397 2687 759 
Q 2956 1122 2956 1747 
Q 2956 2369 2687 2733 
Q 2419 3097 1959 3097 
z
M 1959 3584 
Q 2709 3584 3137 3096 
Q 3566 2609 3566 1747 
Q 3566 888 3137 398 
Q 2709 -91 1959 -91 
Q 1206 -91 779 398 
Q 353 888 353 1747 
Q 353 2609 779 3096 
Q 1206 3584 1959 3584 
z
" id="DejaVuSans-6f" transform="scale(0.015625)"/>
       <path d="M 2906 1791 
Q 2906 2416 2648 2759 
Q 2391 3103 1925 3103 
Q 1463 3103 1205 2759 
Q 947 2416 947 1791 
Q 947 1169 1205 825 
Q 1463 481 1925 481 
Q 2391 481 2648 825 
Q 2906 1169 2906 1791 
z
M 3481 434 
Q 3481 -459 3084 -895 
Q 2688 -1331 1869 -1331 
Q 1566 -1331 1297 -1286 
Q 1028 -1241 775 -1147 
L 775 -588 
Q 1028 -725 1275 -790 
Q 1522 -856 1778 -856 
Q 2344 -856 2625 -561 
Q 2906 -266 2906 331 
L 2906 616 
Q 2728 306 2450 153 
Q 2172 0 1784 0 
Q 1141 0 747 490 
Q 353 981 353 1791 
Q 353 2603 747 3093 
Q 1141 3584 1784 3584 
Q 2172 3584 2450 3431 
Q 2728 3278 2906 2969 
L 2906 3500 
L 3481 3500 
L 3481 434 
z
" id="DejaVuSans-67" transform="scale(0.015625)"/>
       <path d="M 1984 4856 
Q 1566 4138 1362 3434 
Q 1159 2731 1159 2009 
Q 1159 1288 1364 580 
Q 1569 -128 1984 -844 
L 1484 -844 
Q 1016 -109 783 600 
Q 550 1309 550 2009 
Q 550 2706 781 3412 
Q 1013 4119 1484 4856 
L 1984 4856 
z
" id="DejaVuSans-28" transform="scale(0.015625)"/>
       <path d="M 628 4666 
L 1259 4666 
L 1259 0 
L 628 0 
L 628 4666 
z
" id="DejaVuSans-49" transform="scale(0.015625)"/>
       <path d="M 3513 2113 
L 3513 0 
L 2938 0 
L 2938 2094 
Q 2938 2591 2744 2837 
Q 2550 3084 2163 3084 
Q 1697 3084 1428 2787 
Q 1159 2491 1159 1978 
L 1159 0 
L 581 0 
L 581 3500 
L 1159 3500 
L 1159 2956 
Q 1366 3272 1645 3428 
Q 1925 3584 2291 3584 
Q 2894 3584 3203 3211 
Q 3513 2838 3513 2113 
z
" id="DejaVuSans-6e" transform="scale(0.015625)"/>
       <path d="M 2188 4044 
L 1331 1722 
L 3047 1722 
L 2188 4044 
z
M 1831 4666 
L 2547 4666 
L 4325 0 
L 3669 0 
L 3244 1197 
L 1141 1197 
L 716 0 
L 50 0 
L 1831 4666 
z
" id="DejaVuSans-41" transform="scale(0.015625)"/>
       <path d="M 1625 4666 
L 2156 4666 
L 531 -594 
L 0 -594 
L 1625 4666 
z
" id="DejaVuSans-2f" transform="scale(0.015625)"/>
       <path d="M 1259 2228 
L 1259 519 
L 2272 519 
Q 2781 519 3026 730 
Q 3272 941 3272 1375 
Q 3272 1813 3026 2020 
Q 2781 2228 2272 2228 
L 1259 2228 
z
M 1259 4147 
L 1259 2741 
L 2194 2741 
Q 2656 2741 2882 2914 
Q 3109 3088 3109 3444 
Q 3109 3797 2882 3972 
Q 2656 4147 2194 4147 
L 1259 4147 
z
M 628 4666 
L 2241 4666 
Q 2963 4666 3353 4366 
Q 3744 4066 3744 3513 
Q 3744 3084 3544 2831 
Q 3344 2578 2956 2516 
Q 3422 2416 3680 2098 
Q 3938 1781 3938 1306 
Q 3938 681 3513 340 
Q 3088 0 2303 0 
L 628 0 
L 628 4666 
z
" id="DejaVuSans-42" transform="scale(0.015625)"/>
       <path d="M 513 4856 
L 1013 4856 
Q 1481 4119 1714 3412 
Q 1947 2706 1947 2009 
Q 1947 1309 1714 600 
Q 1481 -109 1013 -844 
L 513 -844 
Q 928 -128 1133 580 
Q 1338 1288 1338 2009 
Q 1338 2731 1133 3434 
Q 928 4138 513 4856 
z
" id="DejaVuSans-29" transform="scale(0.015625)"/>
      </defs>
      <use xlink:href="#DejaVuSans-6c"/>
      <use x="27.783203" xlink:href="#DejaVuSans-6f"/>
      <use x="88.964844" xlink:href="#DejaVuSans-67"/>
      <use x="152.441406" xlink:href="#DejaVuSans-32"/>
      <use x="216.064453" xlink:href="#DejaVuSans-28"/>
      <use x="255.078125" xlink:href="#DejaVuSans-49"/>
      <use x="284.570312" xlink:href="#DejaVuSans-6e"/>
      <use x="347.949219" xlink:href="#DejaVuSans-41"/>
      <use x="416.357422" xlink:href="#DejaVuSans-2f"/>
      <use x="450.048828" xlink:href="#DejaVuSans-49"/>
      <use x="479.541016" xlink:href="#DejaVuSans-6e"/>
      <use x="542.919922" xlink:href="#DejaVuSans-42"/>
      <use x="611.523438" xlink:href="#DejaVuSans-29"/>
     </g>
    </g>
   </g>
   <g id="matplotlib.axis_2">
    <g id="ytick_1">
     <g id="line2d_6">
      <defs>
       <path d="M 0 0 
L -4.8 0 
" id="mc2bd4f6cab" style="stroke:#262626;"/>
      </defs>
      <g>
       <use style="fill:#262626;stroke:#262626;" x="74.76" xlink:href="#mc2bd4f6cab" y="197.961597"/>
      </g>
     </g>
     <g id="text_7">
      <!-- −0.875 -->
      <g style="fill:#262626;" transform="translate(22.050625 202.52066)scale(0.12 -0.12)">
       <defs>
        <path d="M 684 794 
L 1344 794 
L 1344 0 
L 684 0 
L 684 794 
z
" id="DejaVuSans-2e" transform="scale(0.015625)"/>
        <path d="M 2034 2216 
Q 1584 2216 1326 1975 
Q 1069 1734 1069 1313 
Q 1069 891 1326 650 
Q 1584 409 2034 409 
Q 2484 409 2743 651 
Q 3003 894 3003 1313 
Q 3003 1734 2745 1975 
Q 2488 2216 2034 2216 
z
M 1403 2484 
Q 997 2584 770 2862 
Q 544 3141 544 3541 
Q 544 4100 942 4425 
Q 1341 4750 2034 4750 
Q 2731 4750 3128 4425 
Q 3525 4100 3525 3541 
Q 3525 3141 3298 2862 
Q 3072 2584 2669 2484 
Q 3125 2378 3379 2068 
Q 3634 1759 3634 1313 
Q 3634 634 3220 271 
Q 2806 -91 2034 -91 
Q 1263 -91 848 271 
Q 434 634 434 1313 
Q 434 1759 690 2068 
Q 947 2378 1403 2484 
z
M 1172 3481 
Q 1172 3119 1398 2916 
Q 1625 2713 2034 2713 
Q 2441 2713 2670 2916 
Q 2900 3119 2900 3481 
Q 2900 3844 2670 4047 
Q 2441 4250 2034 4250 
Q 1625 4250 1398 4047 
Q 1172 3844 1172 3481 
z
" id="DejaVuSans-38" transform="scale(0.015625)"/>
        <path d="M 525 4666 
L 3525 4666 
L 3525 4397 
L 1831 0 
L 1172 0 
L 2766 4134 
L 525 4134 
L 525 4666 
z
" id="DejaVuSans-37" transform="scale(0.015625)"/>
        <path d="M 691 4666 
L 3169 4666 
L 3169 4134 
L 1269 4134 
L 1269 2991 
Q 1406 3038 1543 3061 
Q 1681 3084 1819 3084 
Q 2600 3084 3056 2656 
Q 3513 2228 3513 1497 
Q 3513 744 3044 326 
Q 2575 -91 1722 -91 
Q 1428 -91 1123 -41 
Q 819 9 494 109 
L 494 744 
Q 775 591 1075 516 
Q 1375 441 1709 441 
Q 2250 441 2565 725 
Q 2881 1009 2881 1497 
Q 2881 1984 2565 2268 
Q 2250 2553 1709 2553 
Q 1456 2553 1204 2497 
Q 953 2441 691 2322 
L 691 4666 
z
" id="DejaVuSans-35" transform="scale(0.015625)"/>
       </defs>
       <use xlink:href="#DejaVuSans-2212"/>
       <use x="83.789062" xlink:href="#DejaVuSans-30"/>
       <use x="147.412109" xlink:href="#DejaVuSans-2e"/>
       <use x="179.199219" xlink:href="#DejaVuSans-38"/>
       <use x="242.822266" xlink:href="#DejaVuSans-37"/>
       <use x="306.445312" xlink:href="#DejaVuSans-35"/>
      </g>
     </g>
    </g>
    <g id="ytick_2">
     <g id="line2d_7">
      <g>
       <use style="fill:#262626;stroke:#262626;" x="74.76" xlink:href="#mc2bd4f6cab" y="168.915228"/>
      </g>
     </g>
     <g id="text_8">
      <!-- −0.850 -->
      <g style="fill:#262626;" transform="translate(22.050625 173.474291)scale(0.12 -0.12)">
       <use xlink:href="#DejaVuSans-2212"/>
       <use x="83.789062" xlink:href="#DejaVuSans-30"/>
       <use x="147.412109" xlink:href="#DejaVuSans-2e"/>
       <use x="179.199219" xlink:href="#DejaVuSans-38"/>
       <use x="242.822266" xlink:href="#DejaVuSans-35"/>
       <use x="306.445312" xlink:href="#DejaVuSans-30"/>
      </g>
     </g>
    </g>
    <g id="ytick_3">
     <g id="line2d_8">
      <g>
       <use style="fill:#262626;stroke:#262626;" x="74.76" xlink:href="#mc2bd4f6cab" y="139.868859"/>
      </g>
     </g>
     <g id="text_9">
      <!-- −0.825 -->
      <g style="fill:#262626;" transform="translate(22.050625 144.427922)scale(0.12 -0.12)">
       <use xlink:href="#DejaVuSans-2212"/>
       <use x="83.789062" xlink:href="#DejaVuSans-30"/>
       <use x="147.412109" xlink:href="#DejaVuSans-2e"/>
       <use x="179.199219" xlink:href="#DejaVuSans-38"/>
       <use x="242.822266" xlink:href="#DejaVuSans-32"/>
       <use x="306.445312" xlink:href="#DejaVuSans-35"/>
      </g>
     </g>
    </g>
    <g id="ytick_4">
     <g id="line2d_9">
      <g>
       <use style="fill:#262626;stroke:#262626;" x="74.76" xlink:href="#mc2bd4f6cab" y="110.822491"/>
      </g>
     </g>
     <g id="text_10">
      <!-- −0.800 -->
      <g style="fill:#262626;" transform="translate(22.050625 115.381553)scale(0.12 -0.12)">
       <use xlink:href="#DejaVuSans-2212"/>
       <use x="83.789062" xlink:href="#DejaVuSans-30"/>
       <use x="147.412109" xlink:href="#DejaVuSans-2e"/>
       <use x="179.199219" xlink:href="#DejaVuSans-38"/>
       <use x="242.822266" xlink:href="#DejaVuSans-30"/>
       <use x="306.445312" xlink:href="#DejaVuSans-30"/>
      </g>
     </g>
    </g>
    <g id="ytick_5">
     <g id="line2d_10">
      <g>
       <use style="fill:#262626;stroke:#262626;" x="74.76" xlink:href="#mc2bd4f6cab" y="81.776122"/>
      </g>
     </g>
     <g id="text_11">
      <!-- −0.775 -->
      <g style="fill:#262626;" transform="translate(22.050625 86.335184)scale(0.12 -0.12)">
       <use xlink:href="#DejaVuSans-2212"/>
       <use x="83.789062" xlink:href="#DejaVuSans-30"/>
       <use x="147.412109" xlink:href="#DejaVuSans-2e"/>
       <use x="179.199219" xlink:href="#DejaVuSans-37"/>
       <use x="242.822266" xlink:href="#DejaVuSans-37"/>
       <use x="306.445312" xlink:href="#DejaVuSans-35"/>
      </g>
     </g>
    </g>
    <g id="ytick_6">
     <g id="line2d_11">
      <g>
       <use style="fill:#262626;stroke:#262626;" x="74.76" xlink:href="#mc2bd4f6cab" y="52.729753"/>
      </g>
     </g>
     <g id="text_12">
      <!-- −0.750 -->
      <g style="fill:#262626;" transform="translate(22.050625 57.288815)scale(0.12 -0.12)">
       <use xlink:href="#DejaVuSans-2212"/>
       <use x="83.789062" xlink:href="#DejaVuSans-30"/>
       <use x="147.412109" xlink:href="#DejaVuSans-2e"/>
       <use x="179.199219" xlink:href="#DejaVuSans-37"/>
       <use x="242.822266" xlink:href="#DejaVuSans-35"/>
       <use x="306.445312" xlink:href="#DejaVuSans-30"/>
      </g>
     </g>
    </g>
    <g id="ytick_7">
     <g id="line2d_12">
      <g>
       <use style="fill:#262626;stroke:#262626;" x="74.76" xlink:href="#mc2bd4f6cab" y="23.683384"/>
      </g>
     </g>
     <g id="text_13">
      <!-- −0.725 -->
      <g style="fill:#262626;" transform="translate(22.050625 28.242446)scale(0.12 -0.12)">
       <use xlink:href="#DejaVuSans-2212"/>
       <use x="83.789062" xlink:href="#DejaVuSans-30"/>
       <use x="147.412109" xlink:href="#DejaVuSans-2e"/>
       <use x="179.199219" xlink:href="#DejaVuSans-37"/>
       <use x="242.822266" xlink:href="#DejaVuSans-32"/>
       <use x="306.445312" xlink:href="#DejaVuSans-35"/>
      </g>
     </g>
    </g>
    <g id="text_14">
     <!-- CC AB -->
     <g style="fill:#262626;" transform="translate(15.555 126.43925)rotate(-90)scale(0.12 -0.12)">
      <defs>
       <path d="M 4122 4306 
L 4122 3641 
Q 3803 3938 3442 4084 
Q 3081 4231 2675 4231 
Q 1875 4231 1450 3742 
Q 1025 3253 1025 2328 
Q 1025 1406 1450 917 
Q 1875 428 2675 428 
Q 3081 428 3442 575 
Q 3803 722 4122 1019 
L 4122 359 
Q 3791 134 3420 21 
Q 3050 -91 2638 -91 
Q 1578 -91 968 557 
Q 359 1206 359 2328 
Q 359 3453 968 4101 
Q 1578 4750 2638 4750 
Q 3056 4750 3426 4639 
Q 3797 4528 4122 4306 
z
" id="DejaVuSans-43" transform="scale(0.015625)"/>
       <path id="DejaVuSans-20" transform="scale(0.015625)"/>
      </defs>
      <use xlink:href="#DejaVuSans-43"/>
      <use x="69.824219" xlink:href="#DejaVuSans-43"/>
      <use x="139.648438" xlink:href="#DejaVuSans-20"/>
      <use x="171.435547" xlink:href="#DejaVuSans-41"/>
      <use x="239.84375" xlink:href="#DejaVuSans-42"/>
     </g>
    </g>
   </g>
   <g id="PathCollection_1">
    <path clip-path="url(#p0b5c383fe3)" d="M 180.881039 151.09526 
L 182.481039 151.09526 
L 182.481039 149.49526 
L 184.081039 149.49526 
L 184.081039 147.89526 
L 182.481039 147.89526 
L 182.481039 146.29526 
L 180.881039 146.29526 
L 180.881039 147.89526 
L 179.281039 147.89526 
L 179.281039 149.49526 
L 180.881039 149.49526 
z
" style="fill:#4c72b0;stroke:#ffffff;stroke-width:0.384;"/>
    <path clip-path="url(#p0b5c383fe3)" d="M 138.753377 142.92827 
L 140.353377 142.92827 
L 140.353377 141.32827 
L 141.953377 141.32827 
L 141.953377 139.72827 
L 140.353377 139.72827 
L 140.353377 138.12827 
L 138.753377 138.12827 
L 138.753377 139.72827 
L 137.153377 139.72827 
L 137.153377 141.32827 
L 138.753377 141.32827 
z
" style="fill:#4c72b0;stroke:#ffffff;stroke-width:0.384;"/>
    <path clip-path="url(#p0b5c383fe3)" d="M 138.753377 138.012801 
L 140.353377 138.012801 
L 140.353377 136.412801 
L 141.953377 136.412801 
L 141.953377 134.812801 
L 140.353377 134.812801 
L 140.353377 133.212801 
L 138.753377 133.212801 
L 138.753377 134.812801 
L 137.153377 134.812801 
L 137.153377 136.412801 
L 138.753377 136.412801 
z
" style="fill:#4c72b0;stroke:#ffffff;stroke-width:0.384;"/>
    <path clip-path="url(#p0b5c383fe3)" d="M 180.881039 148.571522 
L 182.481039 148.571522 
L 182.481039 146.971522 
L 184.081039 146.971522 
L 184.081039 145.371522 
L 182.481039 145.371522 
L 182.481039 143.771522 
L 180.881039 143.771522 
L 180.881039 145.371522 
L 179.281039 145.371522 
L 179.281039 146.971522 
L 180.881039 146.971522 
z
" style="fill:#4c72b0;stroke:#ffffff;stroke-width:0.384;"/>
    <path clip-path="url(#p0b5c383fe3)" d="M 180.881039 134.899832 
L 182.481039 134.899832 
L 182.481039 133.299832 
L 184.081039 133.299832 
L 184.081039 131.699832 
L 182.481039 131.699832 
L 182.481039 130.099832 
L 180.881039 130.099832 
L 180.881039 131.699832 
L 179.281039 131.699832 
L 179.281039 133.299832 
L 180.881039 133.299832 
z
" style="fill:#4c72b0;stroke:#ffffff;stroke-width:0.384;"/>
    <path clip-path="url(#p0b5c383fe3)" d="M 138.753377 137.628936 
L 140.353377 137.628936 
L 140.353377 136.028936 
L 141.953377 136.028936 
L 141.953377 134.428936 
L 140.353377 134.428936 
L 140.353377 132.828936 
L 138.753377 132.828936 
L 138.753377 134.428936 
L 137.153377 134.428936 
L 137.153377 136.028936 
L 138.753377 136.028936 
z
" style="fill:#4c72b0;stroke:#ffffff;stroke-width:0.384;"/>
    <path clip-path="url(#p0b5c383fe3)" d="M 205.524142 140.952391 
L 207.124142 140.952391 
L 207.124142 139.352391 
L 208.724142 139.352391 
L 208.724142 137.752391 
L 207.124142 137.752391 
L 207.124142 136.152391 
L 205.524142 136.152391 
L 205.524142 137.752391 
L 203.924142 137.752391 
L 203.924142 139.352391 
L 205.524142 139.352391 
z
" style="fill:#4c72b0;stroke:#ffffff;stroke-width:0.384;"/>
    <path clip-path="url(#p0b5c383fe3)" d="M 156.237936 142.582252 
L 157.837936 142.582252 
L 157.837936 140.982252 
L 159.437936 140.982252 
L 159.437936 139.382252 
L 157.837936 139.382252 
L 157.837936 137.782252 
L 156.237936 137.782252 
L 156.237936 139.382252 
L 154.637936 139.382252 
L 154.637936 140.982252 
L 156.237936 140.982252 
z
" style="fill:#4c72b0;stroke:#ffffff;stroke-width:0.384;"/>
    <path clip-path="url(#p0b5c383fe3)" d="M 180.881039 155.436448 
L 182.481039 155.436448 
L 182.481039 153.836448 
L 184.081039 153.836448 
L 184.081039 152.236448 
L 182.481039 152.236448 
L 182.481039 150.636448 
L 180.881039 150.636448 
L 180.881039 152.236448 
L 179.281039 152.236448 
L 179.281039 153.836448 
L 180.881039 153.836448 
z
" style="fill:#4c72b0;stroke:#ffffff;stroke-width:0.384;"/>
    <path clip-path="url(#p0b5c383fe3)" d="M 180.881039 160.319474 
L 182.481039 160.319474 
L 182.481039 158.719474 
L 184.081039 158.719474 
L 184.081039 157.119474 
L 182.481039 157.119474 
L 182.481039 155.519474 
L 180.881039 155.519474 
L 180.881039 157.119474 
L 179.281039 157.119474 
L 179.281039 158.719474 
L 180.881039 158.719474 
z
" style="fill:#4c72b0;stroke:#ffffff;stroke-width:0.384;"/>
    <path clip-path="url(#p0b5c383fe3)" d="M 156.237936 115.743999 
L 157.837936 115.743999 
L 157.837936 114.143999 
L 159.437936 114.143999 
L 159.437936 112.543999 
L 157.837936 112.543999 
L 157.837936 110.943999 
L 156.237936 110.943999 
L 156.237936 112.543999 
L 154.637936 112.543999 
L 154.637936 114.143999 
L 156.237936 114.143999 
z
" style="fill:#4c72b0;stroke:#ffffff;stroke-width:0.384;"/>
    <path clip-path="url(#p0b5c383fe3)" d="M 138.753377 152.475533 
L 140.353377 152.475533 
L 140.353377 150.875533 
L 141.953377 150.875533 
L 141.953377 149.275533 
L 140.353377 149.275533 
L 140.353377 147.675533 
L 138.753377 147.675533 
L 138.753377 149.275533 
L 137.153377 149.275533 
L 137.153377 150.875533 
L 138.753377 150.875533 
z
" style="fill:#4c72b0;stroke:#ffffff;stroke-width:0.384;"/>
    <path clip-path="url(#p0b5c383fe3)" d="M 180.881039 157.422797 
L 182.481039 157.422797 
L 182.481039 155.822797 
L 184.081039 155.822797 
L 184.081039 154.222797 
L 182.481039 154.222797 
L 182.481039 152.622797 
L 180.881039 152.622797 
L 180.881039 154.222797 
L 179.281039 154.222797 
L 179.281039 155.822797 
L 180.881039 155.822797 
z
" style="fill:#4c72b0;stroke:#ffffff;stroke-width:0.384;"/>
    <path clip-path="url(#p0b5c383fe3)" d="M 138.753377 169.159903 
L 140.353377 169.159903 
L 140.353377 167.559903 
L 141.953377 167.559903 
L 141.953377 165.959903 
L 140.353377 165.959903 
L 140.353377 164.359903 
L 138.753377 164.359903 
L 138.753377 165.959903 
L 137.153377 165.959903 
L 137.153377 167.559903 
L 138.753377 167.559903 
z
" style="fill:#4c72b0;stroke:#ffffff;stroke-width:0.384;"/>
    <path clip-path="url(#p0b5c383fe3)" d="M 247.651804 169.261454 
L 249.251804 169.261454 
L 249.251804 167.661454 
L 250.851804 167.661454 
L 250.851804 166.061454 
L 249.251804 166.061454 
L 249.251804 164.461454 
L 247.651804 164.461454 
L 247.651804 166.061454 
L 246.051804 166.061454 
L 246.051804 167.661454 
L 247.651804 167.661454 
z
" style="fill:#4c72b0;stroke:#ffffff;stroke-width:0.384;"/>
    <path clip-path="url(#p0b5c383fe3)" d="M 156.237936 83.63721 
L 157.837936 83.63721 
L 157.837936 82.03721 
L 159.437936 82.03721 
L 159.437936 80.43721 
L 157.837936 80.43721 
L 157.837936 78.83721 
L 156.237936 78.83721 
L 156.237936 80.43721 
L 154.637936 80.43721 
L 154.637936 82.03721 
L 156.237936 82.03721 
z
" style="fill:#4c72b0;stroke:#ffffff;stroke-width:0.384;"/>
    <path clip-path="url(#p0b5c383fe3)" d="M 180.881039 155.276026 
L 182.481039 155.276026 
L 182.481039 153.676026 
L 184.081039 153.676026 
L 184.081039 152.076026 
L 182.481039 152.076026 
L 182.481039 150.476026 
L 180.881039 150.476026 
L 180.881039 152.076026 
L 179.281039 152.076026 
L 179.281039 153.676026 
L 180.881039 153.676026 
z
" style="fill:#4c72b0;stroke:#ffffff;stroke-width:0.384;"/>
    <path clip-path="url(#p0b5c383fe3)" d="M 247.651804 162.227083 
L 249.251804 162.227083 
L 249.251804 160.627083 
L 250.851804 160.627083 
L 250.851804 159.027083 
L 249.251804 159.027083 
L 249.251804 157.427083 
L 247.651804 157.427083 
L 247.651804 159.027083 
L 246.051804 159.027083 
L 246.051804 160.627083 
L 247.651804 160.627083 
z
" style="fill:#4c72b0;stroke:#ffffff;stroke-width:0.384;"/>
    <path clip-path="url(#p0b5c383fe3)" d="M 138.753377 143.898382 
L 140.353377 143.898382 
L 140.353377 142.298382 
L 141.953377 142.298382 
L 141.953377 140.698382 
L 140.353377 140.698382 
L 140.353377 139.098382 
L 138.753377 139.098382 
L 138.753377 140.698382 
L 137.153377 140.698382 
L 137.153377 142.298382 
L 138.753377 142.298382 
z
" style="fill:#4c72b0;stroke:#ffffff;stroke-width:0.384;"/>
    <path clip-path="url(#p0b5c383fe3)" d="M 205.524142 161.483832 
L 207.124142 161.483832 
L 207.124142 159.883832 
L 208.724142 159.883832 
L 208.724142 158.283832 
L 207.124142 158.283832 
L 207.124142 156.683832 
L 205.524142 156.683832 
L 205.524142 158.283832 
L 203.924142 158.283832 
L 203.924142 159.883832 
L 205.524142 159.883832 
z
" style="fill:#4c72b0;stroke:#ffffff;stroke-width:0.384;"/>
    <path clip-path="url(#p0b5c383fe3)" d="M 138.753377 180.385954 
L 140.353377 180.385954 
L 140.353377 178.785954 
L 141.953377 178.785954 
L 141.953377 177.185954 
L 140.353377 177.185954 
L 140.353377 175.585954 
L 138.753377 175.585954 
L 138.753377 177.185954 
L 137.153377 177.185954 
L 137.153377 178.785954 
L 138.753377 178.785954 
z
" style="fill:#4c72b0;stroke:#ffffff;stroke-width:0.384;"/>
    <path clip-path="url(#p0b5c383fe3)" d="M 138.753377 160.657169 
L 140.353377 160.657169 
L 140.353377 159.057169 
L 141.953377 159.057169 
L 141.953377 157.457169 
L 140.353377 157.457169 
L 140.353377 155.857169 
L 138.753377 155.857169 
L 138.753377 157.457169 
L 137.153377 157.457169 
L 137.153377 159.057169 
L 138.753377 159.057169 
z
" style="fill:#4c72b0;stroke:#ffffff;stroke-width:0.384;"/>
    <path clip-path="url(#p0b5c383fe3)" d="M 180.881039 148.233705 
L 182.481039 148.233705 
L 182.481039 146.633705 
L 184.081039 146.633705 
L 184.081039 145.033705 
L 182.481039 145.033705 
L 182.481039 143.433705 
L 180.881039 143.433705 
L 180.881039 145.033705 
L 179.281039 145.033705 
L 179.281039 146.633705 
L 180.881039 146.633705 
z
" style="fill:#4c72b0;stroke:#ffffff;stroke-width:0.384;"/>
    <path clip-path="url(#p0b5c383fe3)" d="M 138.753377 176.453558 
L 140.353377 176.453558 
L 140.353377 174.853558 
L 141.953377 174.853558 
L 141.953377 173.253558 
L 140.353377 173.253558 
L 140.353377 171.653558 
L 138.753377 171.653558 
L 138.753377 173.253558 
L 137.153377 173.253558 
L 137.153377 174.853558 
L 138.753377 174.853558 
z
" style="fill:#4c72b0;stroke:#ffffff;stroke-width:0.384;"/>
    <path clip-path="url(#p0b5c383fe3)" d="M 156.237936 112.130242 
L 157.837936 112.130242 
L 157.837936 110.530242 
L 159.437936 110.530242 
L 159.437936 108.930242 
L 157.837936 108.930242 
L 157.837936 107.330242 
L 156.237936 107.330242 
L 156.237936 108.930242 
L 154.637936 108.930242 
L 154.637936 110.530242 
L 156.237936 110.530242 
z
" style="fill:#4c72b0;stroke:#ffffff;stroke-width:0.384;"/>
    <path clip-path="url(#p0b5c383fe3)" d="M 206.324142 90.223156 
C 206.960629 90.223156 207.571133 89.970276 208.021198 89.520212 
C 208.471263 89.070147 208.724142 88.459643 208.724142 87.823156 
C 208.724142 87.186668 208.471263 86.576164 208.021198 86.126099 
C 207.571133 85.676035 206.960629 85.423156 206.324142 85.423156 
C 205.687654 85.423156 205.07715 85.676035 204.627085 86.126099 
C 204.177021 86.576164 203.924142 87.186668 203.924142 87.823156 
C 203.924142 88.459643 204.177021 89.070147 204.627085 89.520212 
C 205.07715 89.970276 205.687654 90.223156 206.324142 90.223156 
z
" style="fill:#c44e52;stroke:#ffffff;stroke-width:0.384;"/>
    <path clip-path="url(#p0b5c383fe3)" d="M 223.808701 159.046895 
C 224.445189 159.046895 225.055693 158.794016 225.505758 158.343952 
C 225.955822 157.893887 226.208701 157.283383 226.208701 156.646895 
C 226.208701 156.010408 225.955822 155.399904 225.505758 154.949839 
C 225.055693 154.499775 224.445189 154.246895 223.808701 154.246895 
C 223.172214 154.246895 222.56171 154.499775 222.111645 154.949839 
C 221.66158 155.399904 221.408701 156.010408 221.408701 156.646895 
C 221.408701 157.283383 221.66158 157.893887 222.111645 158.343952 
C 222.56171 158.794016 223.172214 159.046895 223.808701 159.046895 
z
" style="fill:#c44e52;stroke:#ffffff;stroke-width:0.384;"/>
    <path clip-path="url(#p0b5c383fe3)" d="M 181.681039 148.304093 
C 182.317526 148.304093 182.928031 148.051214 183.378095 147.60115 
C 183.82816 147.151085 184.081039 146.540581 184.081039 145.904093 
C 184.081039 145.267606 183.82816 144.657102 183.378095 144.207037 
C 182.928031 143.756972 182.317526 143.504093 181.681039 143.504093 
C 181.044552 143.504093 180.434047 143.756972 179.983983 144.207037 
C 179.533918 144.657102 179.281039 145.267606 179.281039 145.904093 
C 179.281039 146.540581 179.533918 147.151085 179.983983 147.60115 
C 180.434047 148.051214 181.044552 148.304093 181.681039 148.304093 
z
" style="fill:#c44e52;stroke:#ffffff;stroke-width:0.384;"/>
    <path clip-path="url(#p0b5c383fe3)" d="M 181.681039 141.950993 
C 182.317526 141.950993 182.928031 141.698114 183.378095 141.248049 
C 183.82816 140.797985 184.081039 140.18748 184.081039 139.550993 
C 184.081039 138.914506 183.82816 138.304001 183.378095 137.853937 
C 182.928031 137.403872 182.317526 137.150993 181.681039 137.150993 
C 181.044552 137.150993 180.434047 137.403872 179.983983 137.853937 
C 179.533918 138.304001 179.281039 138.914506 179.281039 139.550993 
C 179.281039 140.18748 179.533918 140.797985 179.983983 141.248049 
C 180.434047 141.698114 181.044552 141.950993 181.681039 141.950993 
z
" style="fill:#c44e52;stroke:#ffffff;stroke-width:0.384;"/>
    <path clip-path="url(#p0b5c383fe3)" d="M 181.681039 109.419236 
C 182.317526 109.419236 182.928031 109.166357 183.378095 108.716293 
C 183.82816 108.266228 184.081039 107.655724 184.081039 107.019236 
C 184.081039 106.382749 183.82816 105.772245 183.378095 105.32218 
C 182.928031 104.872115 182.317526 104.619236 181.681039 104.619236 
C 181.044552 104.619236 180.434047 104.872115 179.983983 105.32218 
C 179.533918 105.772245 179.281039 106.382749 179.281039 107.019236 
C 179.281039 107.655724 179.533918 108.266228 179.983983 108.716293 
C 180.434047 109.166357 181.044552 109.419236 181.681039 109.419236 
z
" style="fill:#c44e52;stroke:#ffffff;stroke-width:0.384;"/>
    <path clip-path="url(#p0b5c383fe3)" d="M 139.553377 145.752819 
C 140.189864 145.752819 140.800368 145.49994 141.250433 145.049875 
C 141.700498 144.59981 141.953377 143.989306 141.953377 143.352819 
C 141.953377 142.716331 141.700498 142.105827 141.250433 141.655762 
C 140.800368 141.205698 140.189864 140.952819 139.553377 140.952819 
C 138.916889 140.952819 138.306385 141.205698 137.85632 141.655762 
C 137.406256 142.105827 137.153377 142.716331 137.153377 143.352819 
C 137.153377 143.989306 137.406256 144.59981 137.85632 145.049875 
C 138.306385 145.49994 138.916889 145.752819 139.553377 145.752819 
z
" style="fill:#c44e52;stroke:#ffffff;stroke-width:0.384;"/>
    <path clip-path="url(#p0b5c383fe3)" d="M 114.910274 167.187805 
C 115.546761 167.187805 116.157266 166.934926 116.60733 166.484861 
C 117.057395 166.034796 117.310274 165.424292 117.310274 164.787805 
C 117.310274 164.151317 117.057395 163.540813 116.60733 163.090748 
C 116.157266 162.640684 115.546761 162.387805 114.910274 162.387805 
C 114.273787 162.387805 113.663282 162.640684 113.213218 163.090748 
C 112.763153 163.540813 112.510274 164.151317 112.510274 164.787805 
C 112.510274 165.424292 112.763153 166.034796 113.213218 166.484861 
C 113.663282 166.934926 114.273787 167.187805 114.910274 167.187805 
z
" style="fill:#c44e52;stroke:#ffffff;stroke-width:0.384;"/>
    <path clip-path="url(#p0b5c383fe3)" d="M 206.324142 166.268151 
C 206.960629 166.268151 207.571133 166.015272 208.021198 165.565208 
C 208.471263 165.115143 208.724142 164.504639 208.724142 163.868151 
C 208.724142 163.231664 208.471263 162.62116 208.021198 162.171095 
C 207.571133 161.72103 206.960629 161.468151 206.324142 161.468151 
C 205.687654 161.468151 205.07715 161.72103 204.627085 162.171095 
C 204.177021 162.62116 203.924142 163.231664 203.924142 163.868151 
C 203.924142 164.504639 204.177021 165.115143 204.627085 165.565208 
C 205.07715 166.015272 205.687654 166.268151 206.324142 166.268151 
z
" style="fill:#c44e52;stroke:#ffffff;stroke-width:0.384;"/>
    <path clip-path="url(#p0b5c383fe3)" d="M 157.037936 194.775642 
C 157.674424 194.775642 158.284928 194.522763 158.734993 194.072698 
C 159.185057 193.622634 159.437936 193.012129 159.437936 192.375642 
C 159.437936 191.739155 159.185057 191.12865 158.734993 190.678586 
C 158.284928 190.228521 157.674424 189.975642 157.037936 189.975642 
C 156.401449 189.975642 155.790945 190.228521 155.34088 190.678586 
C 154.890815 191.12865 154.637936 191.739155 154.637936 192.375642 
C 154.637936 193.012129 154.890815 193.622634 155.34088 194.072698 
C 155.790945 194.522763 156.401449 194.775642 157.037936 194.775642 
z
" style="fill:#c44e52;stroke:#ffffff;stroke-width:0.384;"/>
    <path clip-path="url(#p0b5c383fe3)" d="M 181.681039 25.888483 
C 182.317526 25.888483 182.928031 25.635604 183.378095 25.185539 
C 183.82816 24.735475 184.081039 24.12497 184.081039 23.488483 
C 184.081039 22.851996 183.82816 22.241491 183.378095 21.791427 
C 182.928031 21.341362 182.317526 21.088483 181.681039 21.088483 
C 181.044552 21.088483 180.434047 21.341362 179.983983 21.791427 
C 179.533918 22.241491 179.281039 22.851996 179.281039 23.488483 
C 179.281039 24.12497 179.533918 24.735475 179.983983 25.185539 
C 180.434047 25.635604 181.044552 25.888483 181.681039 25.888483 
z
" style="fill:#8172b3;stroke:#ffffff;stroke-width:0.384;"/>
    <path clip-path="url(#p0b5c383fe3)" d="M 139.553377 161.194247 
C 140.189864 161.194247 140.800368 160.941368 141.250433 160.491303 
C 141.700498 160.041239 141.953377 159.430735 141.953377 158.794247 
C 141.953377 158.15776 141.700498 157.547256 141.250433 157.097191 
C 140.800368 156.647126 140.189864 156.394247 139.553377 156.394247 
C 138.916889 156.394247 138.306385 156.647126 137.85632 157.097191 
C 137.406256 157.547256 137.153377 158.15776 137.153377 158.794247 
C 137.153377 159.430735 137.406256 160.041239 137.85632 160.491303 
C 138.306385 160.941368 138.916889 161.194247 139.553377 161.194247 
z
" style="fill:#8172b3;stroke:#ffffff;stroke-width:0.384;"/>
    <path clip-path="url(#p0b5c383fe3)" d="M 237.370779 167.680843 
C 238.007267 167.680843 238.617771 167.427963 239.067836 166.977899 
C 239.5179 166.527834 239.770779 165.91733 239.770779 165.280843 
C 239.770779 164.644355 239.5179 164.033851 239.067836 163.583786 
C 238.617771 163.133722 238.007267 162.880843 237.370779 162.880843 
C 236.734292 162.880843 236.123788 163.133722 235.673723 163.583786 
C 235.223659 164.033851 234.970779 164.644355 234.970779 165.280843 
C 234.970779 165.91733 235.223659 166.527834 235.673723 166.977899 
C 236.123788 167.427963 236.734292 167.680843 237.370779 167.680843 
z
" style="fill:#8172b3;stroke:#ffffff;stroke-width:0.384;"/>
    <path clip-path="url(#p0b5c383fe3)" d="M 223.808701 147.273692 
C 224.445189 147.273692 225.055693 147.020813 225.505758 146.570749 
C 225.955822 146.120684 226.208701 145.51018 226.208701 144.873692 
C 226.208701 144.237205 225.955822 143.626701 225.505758 143.176636 
C 225.055693 142.726571 224.445189 142.473692 223.808701 142.473692 
C 223.172214 142.473692 222.56171 142.726571 222.111645 143.176636 
C 221.66158 143.626701 221.408701 144.237205 221.408701 144.873692 
C 221.408701 145.51018 221.66158 146.120684 222.111645 146.570749 
C 222.56171 147.020813 223.172214 147.273692 223.808701 147.273692 
z
" style="fill:#55a868;stroke:#ffffff;stroke-width:0.384;"/>
    <path clip-path="url(#p0b5c383fe3)" d="M 139.553377 163.300483 
C 140.189864 163.300483 140.800368 163.047603 141.250433 162.597539 
C 141.700498 162.147474 141.953377 161.53697 141.953377 160.900483 
C 141.953377 160.263995 141.700498 159.653491 141.250433 159.203426 
C 140.800368 158.753362 140.189864 158.500483 139.553377 158.500483 
C 138.916889 158.500483 138.306385 158.753362 137.85632 159.203426 
C 137.406256 159.653491 137.153377 160.263995 137.153377 160.900483 
C 137.153377 161.53697 137.406256 162.147474 137.85632 162.597539 
C 138.306385 163.047603 138.916889 163.300483 139.553377 163.300483 
z
" style="fill:#55a868;stroke:#ffffff;stroke-width:0.384;"/>
    <path clip-path="url(#p0b5c383fe3)" d="M 223.808701 125.523487 
C 224.445189 125.523487 225.055693 125.270608 225.505758 124.820543 
C 225.955822 124.370479 226.208701 123.759975 226.208701 123.123487 
C 226.208701 122.487 225.955822 121.876495 225.505758 121.426431 
C 225.055693 120.976366 224.445189 120.723487 223.808701 120.723487 
C 223.172214 120.723487 222.56171 120.976366 222.111645 121.426431 
C 221.66158 121.876495 221.408701 122.487 221.408701 123.123487 
C 221.408701 123.759975 221.66158 124.370479 222.111645 124.820543 
C 222.56171 125.270608 223.172214 125.523487 223.808701 125.523487 
z
" style="fill:#55a868;stroke:#ffffff;stroke-width:0.384;"/>
    <path clip-path="url(#p0b5c383fe3)" d="M 181.681039 151.314736 
C 182.317526 151.314736 182.928031 151.061857 183.378095 150.611792 
C 183.82816 150.161727 184.081039 149.551223 184.081039 148.914736 
C 184.081039 148.278248 183.82816 147.667744 183.378095 147.217679 
C 182.928031 146.767615 182.317526 146.514736 181.681039 146.514736 
C 181.044552 146.514736 180.434047 146.767615 179.983983 147.217679 
C 179.533918 147.667744 179.281039 148.278248 179.281039 148.914736 
C 179.281039 149.551223 179.533918 150.161727 179.983983 150.611792 
C 180.434047 151.061857 181.044552 151.314736 181.681039 151.314736 
z
" style="fill:#55a868;stroke:#ffffff;stroke-width:0.384;"/>
    <path clip-path="url(#p0b5c383fe3)" d="M 223.808701 160.961234 
C 224.445189 160.961234 225.055693 160.708354 225.505758 160.25829 
C 225.955822 159.808225 226.208701 159.197721 226.208701 158.561234 
C 226.208701 157.924746 225.955822 157.314242 225.505758 156.864177 
C 225.055693 156.414113 224.445189 156.161234 223.808701 156.161234 
C 223.172214 156.161234 222.56171 156.414113 222.111645 156.864177 
C 221.66158 157.314242 221.408701 157.924746 221.408701 158.561234 
C 221.408701 159.197721 221.66158 159.808225 222.111645 160.25829 
C 222.56171 160.708354 223.172214 160.961234 223.808701 160.961234 
z
" style="fill:#55a868;stroke:#ffffff;stroke-width:0.384;"/>
    <path clip-path="url(#p0b5c383fe3)" d="M 181.681039 141.539393 
C 182.317526 141.539393 182.928031 141.286514 183.378095 140.836449 
C 183.82816 140.386385 184.081039 139.775881 184.081039 139.139393 
C 184.081039 138.502906 183.82816 137.892401 183.378095 137.442337 
C 182.928031 136.992272 182.317526 136.739393 181.681039 136.739393 
C 181.044552 136.739393 180.434047 136.992272 179.983983 137.442337 
C 179.533918 137.892401 179.281039 138.502906 179.281039 139.139393 
C 179.281039 139.775881 179.533918 140.386385 179.983983 140.836449 
C 180.434047 141.286514 181.044552 141.539393 181.681039 141.539393 
z
" style="fill:#55a868;stroke:#ffffff;stroke-width:0.384;"/>
    <path clip-path="url(#p0b5c383fe3)" d="M 181.681039 85.850152 
C 182.317526 85.850152 182.928031 85.597273 183.378095 85.147209 
C 183.82816 84.697144 184.081039 84.08664 184.081039 83.450152 
C 184.081039 82.813665 183.82816 82.203161 183.378095 81.753096 
C 182.928031 81.303031 182.317526 81.050152 181.681039 81.050152 
C 181.044552 81.050152 180.434047 81.303031 179.983983 81.753096 
C 179.533918 82.203161 179.281039 82.813665 179.281039 83.450152 
C 179.281039 84.08664 179.533918 84.697144 179.983983 85.147209 
C 180.434047 85.597273 181.044552 85.850152 181.681039 85.850152 
z
" style="fill:#55a868;stroke:#ffffff;stroke-width:0.384;"/>
    <path clip-path="url(#p0b5c383fe3)" d="M 181.681039 57.133338 
C 182.317526 57.133338 182.928031 56.880459 183.378095 56.430394 
C 183.82816 55.980329 184.081039 55.369825 184.081039 54.733338 
C 184.081039 54.09685 183.82816 53.486346 183.378095 53.036281 
C 182.928031 52.586217 182.317526 52.333338 181.681039 52.333338 
C 181.044552 52.333338 180.434047 52.586217 179.983983 53.036281 
C 179.533918 53.486346 179.281039 54.09685 179.281039 54.733338 
C 179.281039 55.369825 179.533918 55.980329 179.983983 56.430394 
C 180.434047 56.880459 181.044552 57.133338 181.681039 57.133338 
z
" style="fill:#55a868;stroke:#ffffff;stroke-width:0.384;"/>
    <path clip-path="url(#p0b5c383fe3)" d="M 181.681039 69.031617 
C 182.317526 69.031617 182.928031 68.778738 183.378095 68.328674 
C 183.82816 67.878609 184.081039 67.268105 184.081039 66.631617 
C 184.081039 65.99513 183.82816 65.384626 183.378095 64.934561 
C 182.928031 64.484496 182.317526 64.231617 181.681039 64.231617 
C 181.044552 64.231617 180.434047 64.484496 179.983983 64.934561 
C 179.533918 65.384626 179.281039 65.99513 179.281039 66.631617 
C 179.281039 67.268105 179.533918 67.878609 179.983983 68.328674 
C 180.434047 68.778738 181.044552 69.031617 181.681039 69.031617 
z
" style="fill:#55a868;stroke:#ffffff;stroke-width:0.384;"/>
    <path clip-path="url(#p0b5c383fe3)" d="M 181.681039 44.040678 
C 182.317526 44.040678 182.928031 43.787799 183.378095 43.337734 
C 183.82816 42.88767 184.081039 42.277165 184.081039 41.640678 
C 184.081039 41.004191 183.82816 40.393686 183.378095 39.943622 
C 182.928031 39.493557 182.317526 39.240678 181.681039 39.240678 
C 181.044552 39.240678 180.434047 39.493557 179.983983 39.943622 
C 179.533918 40.393686 179.281039 41.004191 179.281039 41.640678 
C 179.281039 42.277165 179.533918 42.88767 179.983983 43.337734 
C 180.434047 43.787799 181.044552 44.040678 181.681039 44.040678 
z
" style="fill:#55a868;stroke:#ffffff;stroke-width:0.384;"/>
    <path clip-path="url(#p0b5c383fe3)" d="M 223.808701 158.588667 
C 224.445189 158.588667 225.055693 158.335787 225.505758 157.885723 
C 225.955822 157.435658 226.208701 156.825154 226.208701 156.188667 
C 226.208701 155.552179 225.955822 154.941675 225.505758 154.49161 
C 225.055693 154.041546 224.445189 153.788667 223.808701 153.788667 
C 223.172214 153.788667 222.56171 154.041546 222.111645 154.49161 
C 221.66158 154.941675 221.408701 155.552179 221.408701 156.188667 
C 221.408701 156.825154 221.66158 157.435658 222.111645 157.885723 
C 222.56171 158.335787 223.172214 158.588667 223.808701 158.588667 
z
" style="fill:#55a868;stroke:#ffffff;stroke-width:0.384;"/>
    <path clip-path="url(#p0b5c383fe3)" d="M 181.681039 148.759719 
C 182.317526 148.759719 182.928031 148.50684 183.378095 148.056775 
C 183.82816 147.606711 184.081039 146.996206 184.081039 146.359719 
C 184.081039 145.723231 183.82816 145.112727 183.378095 144.662663 
C 182.928031 144.212598 182.317526 143.959719 181.681039 143.959719 
C 181.044552 143.959719 180.434047 144.212598 179.983983 144.662663 
C 179.533918 145.112727 179.281039 145.723231 179.281039 146.359719 
C 179.281039 146.996206 179.533918 147.606711 179.983983 148.056775 
C 180.434047 148.50684 181.044552 148.759719 181.681039 148.759719 
z
" style="fill:#55a868;stroke:#ffffff;stroke-width:0.384;"/>
    <path clip-path="url(#p0b5c383fe3)" d="M 139.553377 147.246219 
C 140.189864 147.246219 140.800368 146.99334 141.250433 146.543275 
C 141.700498 146.09321 141.953377 145.482706 141.953377 144.846219 
C 141.953377 144.209731 141.700498 143.599227 141.250433 143.149163 
C 140.800368 142.699098 140.189864 142.446219 139.553377 142.446219 
C 138.916889 142.446219 138.306385 142.699098 137.85632 143.149163 
C 137.406256 143.599227 137.153377 144.209731 137.153377 144.846219 
C 137.153377 145.482706 137.406256 146.09321 137.85632 146.543275 
C 138.306385 146.99334 138.916889 147.246219 139.553377 147.246219 
z
" style="fill:#55a868;stroke:#ffffff;stroke-width:0.384;"/>
    <path clip-path="url(#p0b5c383fe3)" d="M 223.808701 115.05767 
C 224.445189 115.05767 225.055693 114.804791 225.505758 114.354727 
C 225.955822 113.904662 226.208701 113.294158 226.208701 112.65767 
C 226.208701 112.021183 225.955822 111.410679 225.505758 110.960614 
C 225.055693 110.51055 224.445189 110.25767 223.808701 110.25767 
C 223.172214 110.25767 222.56171 110.51055 222.111645 110.960614 
C 221.66158 111.410679 221.408701 112.021183 221.408701 112.65767 
C 221.408701 113.294158 221.66158 113.904662 222.111645 114.354727 
C 222.56171 114.804791 223.172214 115.05767 223.808701 115.05767 
z
" style="fill:#55a868;stroke:#ffffff;stroke-width:0.384;"/>
    <path clip-path="url(#p0b5c383fe3)" d="M 181.681039 142.776993 
C 182.317526 142.776993 182.928031 142.524114 183.378095 142.07405 
C 183.82816 141.623985 184.081039 141.013481 184.081039 140.376993 
C 184.081039 139.740506 183.82816 139.130002 183.378095 138.679937 
C 182.928031 138.229872 182.317526 137.976993 181.681039 137.976993 
C 181.044552 137.976993 180.434047 138.229872 179.983983 138.679937 
C 179.533918 139.130002 179.281039 139.740506 179.281039 140.376993 
C 179.281039 141.013481 179.533918 141.623985 179.983983 142.07405 
C 180.434047 142.524114 181.044552 142.776993 181.681039 142.776993 
z
" style="fill:#55a868;stroke:#ffffff;stroke-width:0.384;"/>
    <path clip-path="url(#p0b5c383fe3)" d="M 223.808701 168.832546 
C 224.445189 168.832546 225.055693 168.579667 225.505758 168.129603 
C 225.955822 167.679538 226.208701 167.069034 226.208701 166.432546 
C 226.208701 165.796059 225.955822 165.185555 225.505758 164.73549 
C 225.055693 164.285425 224.445189 164.032546 223.808701 164.032546 
C 223.172214 164.032546 222.56171 164.285425 222.111645 164.73549 
C 221.66158 165.185555 221.408701 165.796059 221.408701 166.432546 
C 221.408701 167.069034 221.66158 167.679538 222.111645 168.129603 
C 222.56171 168.579667 223.172214 168.832546 223.808701 168.832546 
z
" style="fill:#55a868;stroke:#ffffff;stroke-width:0.384;"/>
    <path clip-path="url(#p0b5c383fe3)" d="M 265.936364 171.869153 
C 266.572851 171.869153 267.183355 171.616274 267.63342 171.166209 
C 268.083484 170.716145 268.336364 170.10564 268.336364 169.469153 
C 268.336364 168.832665 268.083484 168.222161 267.63342 167.772097 
C 267.183355 167.322032 266.572851 167.069153 265.936364 167.069153 
C 265.299876 167.069153 264.689372 167.322032 264.239307 167.772097 
C 263.789243 168.222161 263.536364 168.832665 263.536364 169.469153 
C 263.536364 170.10564 263.789243 170.716145 264.239307 171.166209 
C 264.689372 171.616274 265.299876 171.869153 265.936364 171.869153 
z
" style="fill:#55a868;stroke:#ffffff;stroke-width:0.384;"/>
    <path clip-path="url(#p0b5c383fe3)" d="M 114.910274 172.711949 
C 115.546761 172.711949 116.157266 172.45907 116.60733 172.009005 
C 117.057395 171.558941 117.310274 170.948436 117.310274 170.311949 
C 117.310274 169.675462 117.057395 169.064957 116.60733 168.614893 
C 116.157266 168.164828 115.546761 167.911949 114.910274 167.911949 
C 114.273787 167.911949 113.663282 168.164828 113.213218 168.614893 
C 112.763153 169.064957 112.510274 169.675462 112.510274 170.311949 
C 112.510274 170.948436 112.763153 171.558941 113.213218 172.009005 
C 113.663282 172.45907 114.273787 172.711949 114.910274 172.711949 
z
" style="fill:#c44e52;stroke:#ffffff;stroke-width:0.384;"/>
    <path clip-path="url(#p0b5c383fe3)" d="M 164.196479 80.3055 
C 164.832967 80.3055 165.443471 80.05262 165.893536 79.602556 
C 166.3436 79.152491 166.596479 78.541987 166.596479 77.9055 
C 166.596479 77.269012 166.3436 76.658508 165.893536 76.208443 
C 165.443471 75.758379 164.832967 75.5055 164.196479 75.5055 
C 163.559992 75.5055 162.949488 75.758379 162.499423 76.208443 
C 162.049359 76.658508 161.796479 77.269012 161.796479 77.9055 
C 161.796479 78.541987 162.049359 79.152491 162.499423 79.602556 
C 162.949488 80.05262 163.559992 80.3055 164.196479 80.3055 
z
" style="fill:#c44e52;stroke:#ffffff;stroke-width:0.384;"/>
    <path clip-path="url(#p0b5c383fe3)" d="M 83.863636 178.591993 
C 84.500124 178.591993 85.110628 178.339114 85.560693 177.889049 
C 86.010757 177.438985 86.263636 176.828481 86.263636 176.191993 
C 86.263636 175.555506 86.010757 174.945001 85.560693 174.494937 
C 85.110628 174.044872 84.500124 173.791993 83.863636 173.791993 
C 83.227149 173.791993 82.616645 174.044872 82.16658 174.494937 
C 81.716516 174.945001 81.463636 175.555506 81.463636 176.191993 
C 81.463636 176.828481 81.716516 177.438985 82.16658 177.889049 
C 82.616645 178.339114 83.227149 178.591993 83.863636 178.591993 
z
" style="fill:#c44e52;stroke:#ffffff;stroke-width:0.384;"/>
    <path clip-path="url(#p0b5c383fe3)" d="M 181.681039 60.959496 
C 182.317526 60.959496 182.928031 60.706617 183.378095 60.256552 
C 183.82816 59.806487 184.081039 59.195983 184.081039 58.559496 
C 184.081039 57.923008 183.82816 57.312504 183.378095 56.862439 
C 182.928031 56.412375 182.317526 56.159496 181.681039 56.159496 
C 181.044552 56.159496 180.434047 56.412375 179.983983 56.862439 
C 179.533918 57.312504 179.281039 57.923008 179.281039 58.559496 
C 179.281039 59.195983 179.533918 59.806487 179.983983 60.256552 
C 180.434047 60.706617 181.044552 60.959496 181.681039 60.959496 
z
" style="fill:#c44e52;stroke:#ffffff;stroke-width:0.384;"/>
    <path clip-path="url(#p0b5c383fe3)" d="M 195.243117 102.03013 
C 195.879605 102.03013 196.490109 101.777251 196.940173 101.327186 
C 197.390238 100.877121 197.643117 100.266617 197.643117 99.63013 
C 197.643117 98.993642 197.390238 98.383138 196.940173 97.933073 
C 196.490109 97.483009 195.879605 97.23013 195.243117 97.23013 
C 194.60663 97.23013 193.996125 97.483009 193.546061 97.933073 
C 193.095996 98.383138 192.843117 98.993642 192.843117 99.63013 
C 192.843117 100.266617 193.095996 100.877121 193.546061 101.327186 
C 193.996125 101.777251 194.60663 102.03013 195.243117 102.03013 
z
" style="fill:#8172b3;stroke:#ffffff;stroke-width:0.384;"/>
    <path clip-path="url(#p0b5c383fe3)" d="M 168.118961 178.25857 
C 168.755448 178.25857 169.365953 178.005691 169.816017 177.555627 
C 170.266082 177.105562 170.518961 176.495058 170.518961 175.85857 
C 170.518961 175.222083 170.266082 174.611579 169.816017 174.161514 
C 169.365953 173.711449 168.755448 173.45857 168.118961 173.45857 
C 167.482474 173.45857 166.871969 173.711449 166.421905 174.161514 
C 165.97184 174.611579 165.718961 175.222083 165.718961 175.85857 
C 165.718961 176.495058 165.97184 177.105562 166.421905 177.555627 
C 166.871969 178.005691 167.482474 178.25857 168.118961 178.25857 
z
" style="fill:#8172b3;stroke:#ffffff;stroke-width:0.384;"/>
    <path clip-path="url(#p0b5c383fe3)" d="M 195.243117 167.573856 
C 195.879605 167.573856 196.490109 167.320977 196.940173 166.870912 
C 197.390238 166.420848 197.643117 165.810343 197.643117 165.173856 
C 197.643117 164.537368 197.390238 163.926864 196.940173 163.4768 
C 196.490109 163.026735 195.879605 162.773856 195.243117 162.773856 
C 194.60663 162.773856 193.996125 163.026735 193.546061 163.4768 
C 193.095996 163.926864 192.843117 164.537368 192.843117 165.173856 
C 192.843117 165.810343 193.095996 166.420848 193.546061 166.870912 
C 193.996125 167.320977 194.60663 167.573856 195.243117 167.573856 
z
" style="fill:#8172b3;stroke:#ffffff;stroke-width:0.384;"/>
    <path clip-path="url(#p0b5c383fe3)" d="M 223.808701 159.433413 
C 224.445189 159.433413 225.055693 159.180533 225.505758 158.730469 
C 225.955822 158.280404 226.208701 157.6699 226.208701 157.033413 
C 226.208701 156.396925 225.955822 155.786421 225.505758 155.336356 
C 225.055693 154.886292 224.445189 154.633413 223.808701 154.633413 
C 223.172214 154.633413 222.56171 154.886292 222.111645 155.336356 
C 221.66158 155.786421 221.408701 156.396925 221.408701 157.033413 
C 221.408701 157.6699 221.66158 158.280404 222.111645 158.730469 
C 222.56171 159.180533 223.172214 159.433413 223.808701 159.433413 
z
" style="fill:#55a868;stroke:#ffffff;stroke-width:0.384;"/>
    <path clip-path="url(#p0b5c383fe3)" d="M 181.681039 119.212501 
C 182.317526 119.212501 182.928031 118.959621 183.378095 118.509557 
C 183.82816 118.059492 184.081039 117.448988 184.081039 116.812501 
C 184.081039 116.176013 183.82816 115.565509 183.378095 115.115444 
C 182.928031 114.66538 182.317526 114.412501 181.681039 114.412501 
C 181.044552 114.412501 180.434047 114.66538 179.983983 115.115444 
C 179.533918 115.565509 179.281039 116.176013 179.281039 116.812501 
C 179.281039 117.448988 179.533918 118.059492 179.983983 118.509557 
C 180.434047 118.959621 181.044552 119.212501 181.681039 119.212501 
z
" style="fill:#55a868;stroke:#ffffff;stroke-width:0.384;"/>
    <path clip-path="url(#p0b5c383fe3)" d="M 157.037936 111.103703 
C 157.674424 111.103703 158.284928 110.850824 158.734993 110.400759 
C 159.185057 109.950695 159.437936 109.34019 159.437936 108.703703 
C 159.437936 108.067215 159.185057 107.456711 158.734993 107.006647 
C 158.284928 106.556582 157.674424 106.303703 157.037936 106.303703 
C 156.401449 106.303703 155.790945 106.556582 155.34088 107.006647 
C 154.890815 107.456711 154.637936 108.067215 154.637936 108.703703 
C 154.637936 109.34019 154.890815 109.950695 155.34088 110.400759 
C 155.790945 110.850824 156.401449 111.103703 157.037936 111.103703 
z
" style="fill:#55a868;stroke:#ffffff;stroke-width:0.384;"/>
    <path clip-path="url(#p0b5c383fe3)" d="M 157.037936 83.660629 
C 157.674424 83.660629 158.284928 83.40775 158.734993 82.957685 
C 159.185057 82.507621 159.437936 81.897116 159.437936 81.260629 
C 159.437936 80.624142 159.185057 80.013637 158.734993 79.563573 
C 158.284928 79.113508 157.674424 78.860629 157.037936 78.860629 
C 156.401449 78.860629 155.790945 79.113508 155.34088 79.563573 
C 154.890815 80.013637 154.637936 80.624142 154.637936 81.260629 
C 154.637936 81.897116 154.890815 82.507621 155.34088 82.957685 
C 155.790945 83.40775 156.401449 83.660629 157.037936 83.660629 
z
" style="fill:#55a868;stroke:#ffffff;stroke-width:0.384;"/>
    <path clip-path="url(#p0b5c383fe3)" d="M 157.037936 128.044285 
C 157.674424 128.044285 158.284928 127.791406 158.734993 127.341342 
C 159.185057 126.891277 159.437936 126.280773 159.437936 125.644285 
C 159.437936 125.007798 159.185057 124.397294 158.734993 123.947229 
C 158.284928 123.497165 157.674424 123.244285 157.037936 123.244285 
C 156.401449 123.244285 155.790945 123.497165 155.34088 123.947229 
C 154.890815 124.397294 154.637936 125.007798 154.637936 125.644285 
C 154.637936 126.280773 154.890815 126.891277 155.34088 127.341342 
C 155.790945 127.791406 156.401449 128.044285 157.037936 128.044285 
z
" style="fill:#55a868;stroke:#ffffff;stroke-width:0.384;"/>
    <path clip-path="url(#p0b5c383fe3)" d="M 139.553377 163.200409 
C 140.189864 163.200409 140.800368 162.94753 141.250433 162.497465 
C 141.700498 162.0474 141.953377 161.436896 141.953377 160.800409 
C 141.953377 160.163921 141.700498 159.553417 141.250433 159.103352 
C 140.800368 158.653288 140.189864 158.400409 139.553377 158.400409 
C 138.916889 158.400409 138.306385 158.653288 137.85632 159.103352 
C 137.406256 159.553417 137.153377 160.163921 137.153377 160.800409 
C 137.153377 161.436896 137.406256 162.0474 137.85632 162.497465 
C 138.306385 162.94753 138.916889 163.200409 139.553377 163.200409 
z
" style="fill:#55a868;stroke:#ffffff;stroke-width:0.384;"/>
    <path clip-path="url(#p0b5c383fe3)" d="M 157.037936 141.427774 
C 157.674424 141.427774 158.284928 141.174895 158.734993 140.724831 
C 159.185057 140.274766 159.437936 139.664262 159.437936 139.027774 
C 159.437936 138.391287 159.185057 137.780783 158.734993 137.330718 
C 158.284928 136.880654 157.674424 136.627774 157.037936 136.627774 
C 156.401449 136.627774 155.790945 136.880654 155.34088 137.330718 
C 154.890815 137.780783 154.637936 138.391287 154.637936 139.027774 
C 154.637936 139.664262 154.890815 140.274766 155.34088 140.724831 
C 155.790945 141.174895 156.401449 141.427774 157.037936 141.427774 
z
" style="fill:#55a868;stroke:#ffffff;stroke-width:0.384;"/>
    <path clip-path="url(#p0b5c383fe3)" d="M 223.808701 160.139115 
C 224.445189 160.139115 225.055693 159.886236 225.505758 159.436171 
C 225.955822 158.986107 226.208701 158.375603 226.208701 157.739115 
C 226.208701 157.102628 225.955822 156.492123 225.505758 156.042059 
C 225.055693 155.591994 224.445189 155.339115 223.808701 155.339115 
C 223.172214 155.339115 222.56171 155.591994 222.111645 156.042059 
C 221.66158 156.492123 221.408701 157.102628 221.408701 157.739115 
C 221.408701 158.375603 221.66158 158.986107 222.111645 159.436171 
C 222.56171 159.886236 223.172214 160.139115 223.808701 160.139115 
z
" style="fill:#55a868;stroke:#ffffff;stroke-width:0.384;"/>
    <path clip-path="url(#p0b5c383fe3)" d="M 114.910274 148.104161 
C 115.546761 148.104161 116.157266 147.851282 116.60733 147.401217 
C 117.057395 146.951153 117.310274 146.340648 117.310274 145.704161 
C 117.310274 145.067674 117.057395 144.457169 116.60733 144.007105 
C 116.157266 143.55704 115.546761 143.304161 114.910274 143.304161 
C 114.273787 143.304161 113.663282 143.55704 113.213218 144.007105 
C 112.763153 144.457169 112.510274 145.067674 112.510274 145.704161 
C 112.510274 146.340648 112.763153 146.951153 113.213218 147.401217 
C 113.663282 147.851282 114.273787 148.104161 114.910274 148.104161 
z
" style="fill:#55a868;stroke:#ffffff;stroke-width:0.384;"/>
    <path clip-path="url(#p0b5c383fe3)" d="M 181.681039 140.484736 
C 182.317526 140.484736 182.928031 140.231857 183.378095 139.781792 
C 183.82816 139.331728 184.081039 138.721223 184.081039 138.084736 
C 184.081039 137.448249 183.82816 136.837744 183.378095 136.38768 
C 182.928031 135.937615 182.317526 135.684736 181.681039 135.684736 
C 181.044552 135.684736 180.434047 135.937615 179.983983 136.38768 
C 179.533918 136.837744 179.281039 137.448249 179.281039 138.084736 
C 179.281039 138.721223 179.533918 139.331728 179.983983 139.781792 
C 180.434047 140.231857 181.044552 140.484736 181.681039 140.484736 
z
" style="fill:#55a868;stroke:#ffffff;stroke-width:0.384;"/>
    <path clip-path="url(#p0b5c383fe3)" d="M 223.808701 163.2484 
C 224.445189 163.2484 225.055693 162.995521 225.505758 162.545456 
C 225.955822 162.095391 226.208701 161.484887 226.208701 160.8484 
C 226.208701 160.211912 225.955822 159.601408 225.505758 159.151343 
C 225.055693 158.701279 224.445189 158.4484 223.808701 158.4484 
C 223.172214 158.4484 222.56171 158.701279 222.111645 159.151343 
C 221.66158 159.601408 221.408701 160.211912 221.408701 160.8484 
C 221.408701 161.484887 221.66158 162.095391 222.111645 162.545456 
C 222.56171 162.995521 223.172214 163.2484 223.808701 163.2484 
z
" style="fill:#55a868;stroke:#ffffff;stroke-width:0.384;"/>
    <path clip-path="url(#p0b5c383fe3)" d="M 181.681039 153.060238 
C 182.317526 153.060238 182.928031 152.807358 183.378095 152.357294 
C 183.82816 151.907229 184.081039 151.296725 184.081039 150.660238 
C 184.081039 150.02375 183.82816 149.413246 183.378095 148.963181 
C 182.928031 148.513117 182.317526 148.260238 181.681039 148.260238 
C 181.044552 148.260238 180.434047 148.513117 179.983983 148.963181 
C 179.533918 149.413246 179.281039 150.02375 179.281039 150.660238 
C 179.281039 151.296725 179.533918 151.907229 179.983983 152.357294 
C 180.434047 152.807358 181.044552 153.060238 181.681039 153.060238 
z
" style="fill:#55a868;stroke:#ffffff;stroke-width:0.384;"/>
    <path clip-path="url(#p0b5c383fe3)" d="M 206.324142 84.342388 
C 206.960629 84.342388 207.571133 84.089509 208.021198 83.639445 
C 208.471263 83.18938 208.724142 82.578876 208.724142 81.942388 
C 208.724142 81.305901 208.471263 80.695397 208.021198 80.245332 
C 207.571133 79.795267 206.960629 79.542388 206.324142 79.542388 
C 205.687654 79.542388 205.07715 79.795267 204.627085 80.245332 
C 204.177021 80.695397 203.924142 81.305901 203.924142 81.942388 
C 203.924142 82.578876 204.177021 83.18938 204.627085 83.639445 
C 205.07715 84.089509 205.687654 84.342388 206.324142 84.342388 
z
" style="fill:#55a868;stroke:#ffffff;stroke-width:0.384;"/>
    <path clip-path="url(#p0b5c383fe3)" d="M 223.808701 164.533353 
C 224.445189 164.533353 225.055693 164.280474 225.505758 163.83041 
C 225.955822 163.380345 226.208701 162.769841 226.208701 162.133353 
C 226.208701 161.496866 225.955822 160.886362 225.505758 160.436297 
C 225.055693 159.986232 224.445189 159.733353 223.808701 159.733353 
C 223.172214 159.733353 222.56171 159.986232 222.111645 160.436297 
C 221.66158 160.886362 221.408701 161.496866 221.408701 162.133353 
C 221.408701 162.769841 221.66158 163.380345 222.111645 163.83041 
C 222.56171 164.280474 223.172214 164.533353 223.808701 164.533353 
z
" style="fill:#55a868;stroke:#ffffff;stroke-width:0.384;"/>
    <path clip-path="url(#p0b5c383fe3)" d="M 139.553377 143.654654 
C 140.189864 143.654654 140.800368 143.401775 141.250433 142.95171 
C 141.700498 142.501646 141.953377 141.891142 141.953377 141.254654 
C 141.953377 140.618167 141.700498 140.007662 141.250433 139.557598 
C 140.800368 139.107533 140.189864 138.854654 139.553377 138.854654 
C 138.916889 138.854654 138.306385 139.107533 137.85632 139.557598 
C 137.406256 140.007662 137.153377 140.618167 137.153377 141.254654 
C 137.153377 141.891142 137.406256 142.501646 137.85632 142.95171 
C 138.306385 143.401775 138.916889 143.654654 139.553377 143.654654 
z
" style="fill:#55a868;stroke:#ffffff;stroke-width:0.384;"/>
    <path clip-path="url(#p0b5c383fe3)" d="M 181.681039 139.902538 
C 182.317526 139.902538 182.928031 139.649659 183.378095 139.199594 
C 183.82816 138.749529 184.081039 138.139025 184.081039 137.502538 
C 184.081039 136.86605 183.82816 136.255546 183.378095 135.805482 
C 182.928031 135.355417 182.317526 135.102538 181.681039 135.102538 
C 181.044552 135.102538 180.434047 135.355417 179.983983 135.805482 
C 179.533918 136.255546 179.281039 136.86605 179.281039 137.502538 
C 179.281039 138.139025 179.533918 138.749529 179.983983 139.199594 
C 180.434047 139.649659 181.044552 139.902538 181.681039 139.902538 
z
" style="fill:#55a868;stroke:#ffffff;stroke-width:0.384;"/>
    <path clip-path="url(#p0b5c383fe3)" d="M 139.553377 147.358586 
C 140.189864 147.358586 140.800368 147.105707 141.250433 146.655643 
C 141.700498 146.205578 141.953377 145.595074 141.953377 144.958586 
C 141.953377 144.322099 141.700498 143.711595 141.250433 143.26153 
C 140.800368 142.811466 140.189864 142.558586 139.553377 142.558586 
C 138.916889 142.558586 138.306385 142.811466 137.85632 143.26153 
C 137.406256 143.711595 137.153377 144.322099 137.153377 144.958586 
C 137.153377 145.595074 137.406256 146.205578 137.85632 146.655643 
C 138.306385 147.105707 138.916889 147.358586 139.553377 147.358586 
z
" style="fill:#c44e52;stroke:#ffffff;stroke-width:0.384;"/>
    <path clip-path="url(#p0b5c383fe3)" d="M 139.553377 110.001602 
C 140.189864 110.001602 140.800368 109.748723 141.250433 109.298658 
C 141.700498 108.848594 141.953377 108.238089 141.953377 107.601602 
C 141.953377 106.965115 141.700498 106.35461 141.250433 105.904546 
C 140.800368 105.454481 140.189864 105.201602 139.553377 105.201602 
C 138.916889 105.201602 138.306385 105.454481 137.85632 105.904546 
C 137.406256 106.35461 137.153377 106.965115 137.153377 107.601602 
C 137.153377 108.238089 137.406256 108.848594 137.85632 109.298658 
C 138.306385 109.748723 138.916889 110.001602 139.553377 110.001602 
z
" style="fill:#8172b3;stroke:#ffffff;stroke-width:0.384;"/>
    <path clip-path="url(#p0b5c383fe3)" d="M 181.681039 145.462004 
L 185.075152 142.067892 
L 181.681039 138.673779 
L 178.286926 142.067892 
z
" style="fill:#4c72b0;stroke:#ffffff;stroke-width:0.384;"/>
    <path clip-path="url(#p0b5c383fe3)" d="M 181.681039 107.346689 
L 185.075152 103.952577 
L 181.681039 100.558464 
L 178.286926 103.952577 
z
" style="fill:#4c72b0;stroke:#ffffff;stroke-width:0.384;"/>
    <path clip-path="url(#p0b5c383fe3)" d="M 181.681039 165.904715 
L 185.075152 162.510603 
L 181.681039 159.11649 
L 178.286926 162.510603 
z
" style="fill:#4c72b0;stroke:#ffffff;stroke-width:0.384;"/>
    <path clip-path="url(#p0b5c383fe3)" d="M 181.681039 149.439395 
L 185.075152 146.045283 
L 181.681039 142.65117 
L 178.286926 146.045283 
z
" style="fill:#4c72b0;stroke:#ffffff;stroke-width:0.384;"/>
    <path clip-path="url(#p0b5c383fe3)" d="M 181.681039 162.764514 
L 185.075152 159.370401 
L 181.681039 155.976289 
L 178.286926 159.370401 
z
" style="fill:#4c72b0;stroke:#ffffff;stroke-width:0.384;"/>
    <path clip-path="url(#p0b5c383fe3)" d="M 181.681039 73.289557 
L 185.075152 69.895445 
L 181.681039 66.501332 
L 178.286926 69.895445 
z
" style="fill:#4c72b0;stroke:#ffffff;stroke-width:0.384;"/>
    <path clip-path="url(#p0b5c383fe3)" d="M 181.681039 99.242276 
L 185.075152 95.848163 
L 181.681039 92.454051 
L 178.286926 95.848163 
z
" style="fill:#4c72b0;stroke:#ffffff;stroke-width:0.384;"/>
    <path clip-path="url(#p0b5c383fe3)" d="M 139.553377 143.793839 
L 142.947489 140.399727 
L 139.553377 137.005614 
L 136.159264 140.399727 
z
" style="fill:#4c72b0;stroke:#ffffff;stroke-width:0.384;"/>
    <path clip-path="url(#p0b5c383fe3)" d="M 223.808701 154.077257 
L 227.202814 150.683144 
L 223.808701 147.289031 
L 220.414589 150.683144 
z
" style="fill:#4c72b0;stroke:#ffffff;stroke-width:0.384;"/>
    <path clip-path="url(#p0b5c383fe3)" d="M 223.808701 167.089712 
L 227.202814 163.695599 
L 223.808701 160.301486 
L 220.414589 163.695599 
z
" style="fill:#4c72b0;stroke:#ffffff;stroke-width:0.384;"/>
    <path clip-path="url(#p0b5c383fe3)" d="M 139.553377 137.115606 
L 142.947489 133.721494 
L 139.553377 130.327381 
L 136.159264 133.721494 
z
" style="fill:#4c72b0;stroke:#ffffff;stroke-width:0.384;"/>
    <path clip-path="url(#p0b5c383fe3)" d="M 139.553377 153.031397 
L 142.947489 149.637284 
L 139.553377 146.243172 
L 136.159264 149.637284 
z
" style="fill:#4c72b0;stroke:#ffffff;stroke-width:0.384;"/>
    <path clip-path="url(#p0b5c383fe3)" d="M 139.553377 160.588058 
L 142.947489 157.193945 
L 139.553377 153.799832 
L 136.159264 157.193945 
z
" style="fill:#4c72b0;stroke:#ffffff;stroke-width:0.384;"/>
    <path clip-path="url(#p0b5c383fe3)" d="M 206.324142 62.992143 
C 206.960629 62.992143 207.571133 62.739264 208.021198 62.289199 
C 208.471263 61.839135 208.724142 61.228631 208.724142 60.592143 
C 208.724142 59.955656 208.471263 59.345151 208.021198 58.895087 
C 207.571133 58.445022 206.960629 58.192143 206.324142 58.192143 
C 205.687654 58.192143 205.07715 58.445022 204.627085 58.895087 
C 204.177021 59.345151 203.924142 59.955656 203.924142 60.592143 
C 203.924142 61.228631 204.177021 61.839135 204.627085 62.289199 
C 205.07715 62.739264 205.687654 62.992143 206.324142 62.992143 
z
" style="fill:#c44e52;stroke:#ffffff;stroke-width:0.384;"/>
   </g>
   <g id="PathCollection_2"/>
   <g id="PathCollection_3"/>
   <g id="PathCollection_4"/>
   <g id="PathCollection_5"/>
   <g id="PathCollection_6"/>
   <g id="patch_3">
    <path d="M 74.76 200.82 
L 74.76 15.044125 
" style="fill:none;stroke:#262626;stroke-linecap:square;stroke-linejoin:miter;"/>
   </g>
   <g id="patch_4">
    <path d="M 275.04 200.82 
L 275.04 15.044125 
" style="fill:none;stroke:#262626;stroke-linecap:square;stroke-linejoin:miter;"/>
   </g>
   <g id="patch_5">
    <path d="M 74.76 200.82 
L 275.04 200.82 
" style="fill:none;stroke:#262626;stroke-linecap:square;stroke-linejoin:miter;"/>
   </g>
   <g id="patch_6">
    <path d="M 74.76 15.044125 
L 275.04 15.044125 
" style="fill:none;stroke:#262626;stroke-linecap:square;stroke-linejoin:miter;"/>
   </g>
   <g id="legend_1"/>
  </g>
 </g>
 <defs>
  <clipPath id="p0b5c383fe3">
   <rect height="185.775875" width="200.28" x="74.76" y="15.044125"/>
  </clipPath>
 </defs>
</svg>
