<?xml version="1.0" encoding="utf-8" standalone="no"?>
<!DOCTYPE svg PUBLIC "-//W3C//DTD SVG 1.1//EN"
  "http://www.w3.org/Graphics/SVG/1.1/DTD/svg11.dtd">
<svg height="252pt" version="1.1" viewBox="0 0 360 252" width="360pt" xmlns="http://www.w3.org/2000/svg" xmlns:xlink="http://www.w3.org/1999/xlink">
 <metadata>
  <rdf:RDF xmlns:cc="http://creativecommons.org/ns#" xmlns:dc="http://purl.org/dc/elements/1.1/" xmlns:rdf="http://www.w3.org/1999/02/22-rdf-syntax-ns#">
   <cc:Work>
    <dc:type rdf:resource="http://purl.org/dc/dcmitype/StillImage"/>
    <dc:date>2022-03-31T13:16:14.936294</dc:date>
    <dc:format>image/svg+xml</dc:format>
    <dc:creator>
     <cc:Agent>
      <dc:title>Matplotlib v3.4.2, https://matplotlib.org/</dc:title>
     </cc:Agent>
    </dc:creator>
   </cc:Work>
  </rdf:RDF>
 </metadata>
 <defs>
  <style type="text/css">*{stroke-linecap:butt;stroke-linejoin:round;}</style>
 </defs>
 <g id="figure_1">
  <g id="patch_1">
   <path d="M 0 252 
L 360 252 
L 360 0 
L 0 0 
z
" style="fill:#ffffff;"/>
  </g>
  <g id="axes_1">
   <g id="patch_2">
    <path d="M 72.33 200.82 
L 232.74 200.82 
L 232.74 13.149 
L 72.33 13.149 
z
" style="fill:#ffffff;"/>
   </g>
   <g id="matplotlib.axis_1">
    <g id="xtick_1">
     <g id="line2d_1">
      <defs>
       <path d="M 0 0 
L 0 4.8 
" id="m13ea72fd5d" style="stroke:#262626;"/>
      </defs>
      <g>
       <use style="fill:#262626;stroke:#262626;" x="90.483621" xlink:href="#m13ea72fd5d" y="200.82"/>
      </g>
     </g>
     <g id="text_1">
      <!-- −2 -->
      <g style="fill:#262626;" transform="translate(81.638309 218.238125)scale(0.12 -0.12)">
       <defs>
        <path d="M 678 2272 
L 4684 2272 
L 4684 1741 
L 678 1741 
L 678 2272 
z
" id="DejaVuSans-2212" transform="scale(0.015625)"/>
        <path d="M 1228 531 
L 3431 531 
L 3431 0 
L 469 0 
L 469 531 
Q 828 903 1448 1529 
Q 2069 2156 2228 2338 
Q 2531 2678 2651 2914 
Q 2772 3150 2772 3378 
Q 2772 3750 2511 3984 
Q 2250 4219 1831 4219 
Q 1534 4219 1204 4116 
Q 875 4013 500 3803 
L 500 4441 
Q 881 4594 1212 4672 
Q 1544 4750 1819 4750 
Q 2544 4750 2975 4387 
Q 3406 4025 3406 3419 
Q 3406 3131 3298 2873 
Q 3191 2616 2906 2266 
Q 2828 2175 2409 1742 
Q 1991 1309 1228 531 
z
" id="DejaVuSans-32" transform="scale(0.015625)"/>
       </defs>
       <use xlink:href="#DejaVuSans-2212"/>
       <use x="83.789062" xlink:href="#DejaVuSans-32"/>
      </g>
     </g>
    </g>
    <g id="xtick_2">
     <g id="line2d_2">
      <g>
       <use style="fill:#262626;stroke:#262626;" x="157.966129" xlink:href="#m13ea72fd5d" y="200.82"/>
      </g>
     </g>
     <g id="text_2">
      <!-- 0 -->
      <g style="fill:#262626;" transform="translate(154.148629 218.238125)scale(0.12 -0.12)">
       <defs>
        <path d="M 2034 4250 
Q 1547 4250 1301 3770 
Q 1056 3291 1056 2328 
Q 1056 1369 1301 889 
Q 1547 409 2034 409 
Q 2525 409 2770 889 
Q 3016 1369 3016 2328 
Q 3016 3291 2770 3770 
Q 2525 4250 2034 4250 
z
M 2034 4750 
Q 2819 4750 3233 4129 
Q 3647 3509 3647 2328 
Q 3647 1150 3233 529 
Q 2819 -91 2034 -91 
Q 1250 -91 836 529 
Q 422 1150 422 2328 
Q 422 3509 836 4129 
Q 1250 4750 2034 4750 
z
" id="DejaVuSans-30" transform="scale(0.015625)"/>
       </defs>
       <use xlink:href="#DejaVuSans-30"/>
      </g>
     </g>
    </g>
    <g id="xtick_3">
     <g id="line2d_3">
      <g>
       <use style="fill:#262626;stroke:#262626;" x="225.448636" xlink:href="#m13ea72fd5d" y="200.82"/>
      </g>
     </g>
     <g id="text_3">
      <!-- 2 -->
      <g style="fill:#262626;" transform="translate(221.631136 218.238125)scale(0.12 -0.12)">
       <use xlink:href="#DejaVuSans-32"/>
      </g>
     </g>
    </g>
    <g id="text_4">
     <!-- log2(InA/InB) -->
     <g style="fill:#262626;" transform="translate(113.50125 233.851875)scale(0.12 -0.12)">
      <defs>
       <path d="M 603 4863 
L 1178 4863 
L 1178 0 
L 603 0 
L 603 4863 
z
" id="DejaVuSans-6c" transform="scale(0.015625)"/>
       <path d="M 1959 3097 
Q 1497 3097 1228 2736 
Q 959 2375 959 1747 
Q 959 1119 1226 758 
Q 1494 397 1959 397 
Q 2419 397 2687 759 
Q 2956 1122 2956 1747 
Q 2956 2369 2687 2733 
Q 2419 3097 1959 3097 
z
M 1959 3584 
Q 2709 3584 3137 3096 
Q 3566 2609 3566 1747 
Q 3566 888 3137 398 
Q 2709 -91 1959 -91 
Q 1206 -91 779 398 
Q 353 888 353 1747 
Q 353 2609 779 3096 
Q 1206 3584 1959 3584 
z
" id="DejaVuSans-6f" transform="scale(0.015625)"/>
       <path d="M 2906 1791 
Q 2906 2416 2648 2759 
Q 2391 3103 1925 3103 
Q 1463 3103 1205 2759 
Q 947 2416 947 1791 
Q 947 1169 1205 825 
Q 1463 481 1925 481 
Q 2391 481 2648 825 
Q 2906 1169 2906 1791 
z
M 3481 434 
Q 3481 -459 3084 -895 
Q 2688 -1331 1869 -1331 
Q 1566 -1331 1297 -1286 
Q 1028 -1241 775 -1147 
L 775 -588 
Q 1028 -725 1275 -790 
Q 1522 -856 1778 -856 
Q 2344 -856 2625 -561 
Q 2906 -266 2906 331 
L 2906 616 
Q 2728 306 2450 153 
Q 2172 0 1784 0 
Q 1141 0 747 490 
Q 353 981 353 1791 
Q 353 2603 747 3093 
Q 1141 3584 1784 3584 
Q 2172 3584 2450 3431 
Q 2728 3278 2906 2969 
L 2906 3500 
L 3481 3500 
L 3481 434 
z
" id="DejaVuSans-67" transform="scale(0.015625)"/>
       <path d="M 1984 4856 
Q 1566 4138 1362 3434 
Q 1159 2731 1159 2009 
Q 1159 1288 1364 580 
Q 1569 -128 1984 -844 
L 1484 -844 
Q 1016 -109 783 600 
Q 550 1309 550 2009 
Q 550 2706 781 3412 
Q 1013 4119 1484 4856 
L 1984 4856 
z
" id="DejaVuSans-28" transform="scale(0.015625)"/>
       <path d="M 628 4666 
L 1259 4666 
L 1259 0 
L 628 0 
L 628 4666 
z
" id="DejaVuSans-49" transform="scale(0.015625)"/>
       <path d="M 3513 2113 
L 3513 0 
L 2938 0 
L 2938 2094 
Q 2938 2591 2744 2837 
Q 2550 3084 2163 3084 
Q 1697 3084 1428 2787 
Q 1159 2491 1159 1978 
L 1159 0 
L 581 0 
L 581 3500 
L 1159 3500 
L 1159 2956 
Q 1366 3272 1645 3428 
Q 1925 3584 2291 3584 
Q 2894 3584 3203 3211 
Q 3513 2838 3513 2113 
z
" id="DejaVuSans-6e" transform="scale(0.015625)"/>
       <path d="M 2188 4044 
L 1331 1722 
L 3047 1722 
L 2188 4044 
z
M 1831 4666 
L 2547 4666 
L 4325 0 
L 3669 0 
L 3244 1197 
L 1141 1197 
L 716 0 
L 50 0 
L 1831 4666 
z
" id="DejaVuSans-41" transform="scale(0.015625)"/>
       <path d="M 1625 4666 
L 2156 4666 
L 531 -594 
L 0 -594 
L 1625 4666 
z
" id="DejaVuSans-2f" transform="scale(0.015625)"/>
       <path d="M 1259 2228 
L 1259 519 
L 2272 519 
Q 2781 519 3026 730 
Q 3272 941 3272 1375 
Q 3272 1813 3026 2020 
Q 2781 2228 2272 2228 
L 1259 2228 
z
M 1259 4147 
L 1259 2741 
L 2194 2741 
Q 2656 2741 2882 2914 
Q 3109 3088 3109 3444 
Q 3109 3797 2882 3972 
Q 2656 4147 2194 4147 
L 1259 4147 
z
M 628 4666 
L 2241 4666 
Q 2963 4666 3353 4366 
Q 3744 4066 3744 3513 
Q 3744 3084 3544 2831 
Q 3344 2578 2956 2516 
Q 3422 2416 3680 2098 
Q 3938 1781 3938 1306 
Q 3938 681 3513 340 
Q 3088 0 2303 0 
L 628 0 
L 628 4666 
z
" id="DejaVuSans-42" transform="scale(0.015625)"/>
       <path d="M 513 4856 
L 1013 4856 
Q 1481 4119 1714 3412 
Q 1947 2706 1947 2009 
Q 1947 1309 1714 600 
Q 1481 -109 1013 -844 
L 513 -844 
Q 928 -128 1133 580 
Q 1338 1288 1338 2009 
Q 1338 2731 1133 3434 
Q 928 4138 513 4856 
z
" id="DejaVuSans-29" transform="scale(0.015625)"/>
      </defs>
      <use xlink:href="#DejaVuSans-6c"/>
      <use x="27.783203" xlink:href="#DejaVuSans-6f"/>
      <use x="88.964844" xlink:href="#DejaVuSans-67"/>
      <use x="152.441406" xlink:href="#DejaVuSans-32"/>
      <use x="216.064453" xlink:href="#DejaVuSans-28"/>
      <use x="255.078125" xlink:href="#DejaVuSans-49"/>
      <use x="284.570312" xlink:href="#DejaVuSans-6e"/>
      <use x="347.949219" xlink:href="#DejaVuSans-41"/>
      <use x="416.357422" xlink:href="#DejaVuSans-2f"/>
      <use x="450.048828" xlink:href="#DejaVuSans-49"/>
      <use x="479.541016" xlink:href="#DejaVuSans-6e"/>
      <use x="542.919922" xlink:href="#DejaVuSans-42"/>
      <use x="611.523438" xlink:href="#DejaVuSans-29"/>
     </g>
    </g>
   </g>
   <g id="matplotlib.axis_2">
    <g id="ytick_1">
     <g id="line2d_4">
      <defs>
       <path d="M 0 0 
L -4.8 0 
" id="mb126b2d85a" style="stroke:#262626;"/>
      </defs>
      <g>
       <use style="fill:#262626;stroke:#262626;" x="72.33" xlink:href="#mb126b2d85a" y="182.0529"/>
      </g>
     </g>
     <g id="text_5">
      <!-- 0.80 -->
      <g style="fill:#262626;" transform="translate(37.31125 186.611963)scale(0.12 -0.12)">
       <defs>
        <path d="M 684 794 
L 1344 794 
L 1344 0 
L 684 0 
L 684 794 
z
" id="DejaVuSans-2e" transform="scale(0.015625)"/>
        <path d="M 2034 2216 
Q 1584 2216 1326 1975 
Q 1069 1734 1069 1313 
Q 1069 891 1326 650 
Q 1584 409 2034 409 
Q 2484 409 2743 651 
Q 3003 894 3003 1313 
Q 3003 1734 2745 1975 
Q 2488 2216 2034 2216 
z
M 1403 2484 
Q 997 2584 770 2862 
Q 544 3141 544 3541 
Q 544 4100 942 4425 
Q 1341 4750 2034 4750 
Q 2731 4750 3128 4425 
Q 3525 4100 3525 3541 
Q 3525 3141 3298 2862 
Q 3072 2584 2669 2484 
Q 3125 2378 3379 2068 
Q 3634 1759 3634 1313 
Q 3634 634 3220 271 
Q 2806 -91 2034 -91 
Q 1263 -91 848 271 
Q 434 634 434 1313 
Q 434 1759 690 2068 
Q 947 2378 1403 2484 
z
M 1172 3481 
Q 1172 3119 1398 2916 
Q 1625 2713 2034 2713 
Q 2441 2713 2670 2916 
Q 2900 3119 2900 3481 
Q 2900 3844 2670 4047 
Q 2441 4250 2034 4250 
Q 1625 4250 1398 4047 
Q 1172 3844 1172 3481 
z
" id="DejaVuSans-38" transform="scale(0.015625)"/>
       </defs>
       <use xlink:href="#DejaVuSans-30"/>
       <use x="63.623047" xlink:href="#DejaVuSans-2e"/>
       <use x="95.410156" xlink:href="#DejaVuSans-38"/>
       <use x="159.033203" xlink:href="#DejaVuSans-30"/>
      </g>
     </g>
    </g>
    <g id="ytick_2">
     <g id="line2d_5">
      <g>
       <use style="fill:#262626;stroke:#262626;" x="72.33" xlink:href="#mb126b2d85a" y="135.13515"/>
      </g>
     </g>
     <g id="text_6">
      <!-- 0.85 -->
      <g style="fill:#262626;" transform="translate(37.31125 139.694213)scale(0.12 -0.12)">
       <defs>
        <path d="M 691 4666 
L 3169 4666 
L 3169 4134 
L 1269 4134 
L 1269 2991 
Q 1406 3038 1543 3061 
Q 1681 3084 1819 3084 
Q 2600 3084 3056 2656 
Q 3513 2228 3513 1497 
Q 3513 744 3044 326 
Q 2575 -91 1722 -91 
Q 1428 -91 1123 -41 
Q 819 9 494 109 
L 494 744 
Q 775 591 1075 516 
Q 1375 441 1709 441 
Q 2250 441 2565 725 
Q 2881 1009 2881 1497 
Q 2881 1984 2565 2268 
Q 2250 2553 1709 2553 
Q 1456 2553 1204 2497 
Q 953 2441 691 2322 
L 691 4666 
z
" id="DejaVuSans-35" transform="scale(0.015625)"/>
       </defs>
       <use xlink:href="#DejaVuSans-30"/>
       <use x="63.623047" xlink:href="#DejaVuSans-2e"/>
       <use x="95.410156" xlink:href="#DejaVuSans-38"/>
       <use x="159.033203" xlink:href="#DejaVuSans-35"/>
      </g>
     </g>
    </g>
    <g id="ytick_3">
     <g id="line2d_6">
      <g>
       <use style="fill:#262626;stroke:#262626;" x="72.33" xlink:href="#mb126b2d85a" y="88.2174"/>
      </g>
     </g>
     <g id="text_7">
      <!-- 0.90 -->
      <g style="fill:#262626;" transform="translate(37.31125 92.776463)scale(0.12 -0.12)">
       <defs>
        <path d="M 703 97 
L 703 672 
Q 941 559 1184 500 
Q 1428 441 1663 441 
Q 2288 441 2617 861 
Q 2947 1281 2994 2138 
Q 2813 1869 2534 1725 
Q 2256 1581 1919 1581 
Q 1219 1581 811 2004 
Q 403 2428 403 3163 
Q 403 3881 828 4315 
Q 1253 4750 1959 4750 
Q 2769 4750 3195 4129 
Q 3622 3509 3622 2328 
Q 3622 1225 3098 567 
Q 2575 -91 1691 -91 
Q 1453 -91 1209 -44 
Q 966 3 703 97 
z
M 1959 2075 
Q 2384 2075 2632 2365 
Q 2881 2656 2881 3163 
Q 2881 3666 2632 3958 
Q 2384 4250 1959 4250 
Q 1534 4250 1286 3958 
Q 1038 3666 1038 3163 
Q 1038 2656 1286 2365 
Q 1534 2075 1959 2075 
z
" id="DejaVuSans-39" transform="scale(0.015625)"/>
       </defs>
       <use xlink:href="#DejaVuSans-30"/>
       <use x="63.623047" xlink:href="#DejaVuSans-2e"/>
       <use x="95.410156" xlink:href="#DejaVuSans-39"/>
       <use x="159.033203" xlink:href="#DejaVuSans-30"/>
      </g>
     </g>
    </g>
    <g id="ytick_4">
     <g id="line2d_7">
      <g>
       <use style="fill:#262626;stroke:#262626;" x="72.33" xlink:href="#mb126b2d85a" y="41.29965"/>
      </g>
     </g>
     <g id="text_8">
      <!-- 0.95 -->
      <g style="fill:#262626;" transform="translate(37.31125 45.858713)scale(0.12 -0.12)">
       <use xlink:href="#DejaVuSans-30"/>
       <use x="63.623047" xlink:href="#DejaVuSans-2e"/>
       <use x="95.410156" xlink:href="#DejaVuSans-39"/>
       <use x="159.033203" xlink:href="#DejaVuSans-35"/>
      </g>
     </g>
    </g>
    <g id="text_9">
     <!-- F1 -->
     <g style="fill:#262626;" transform="translate(30.815625 114.252938)rotate(-90)scale(0.12 -0.12)">
      <defs>
       <path d="M 628 4666 
L 3309 4666 
L 3309 4134 
L 1259 4134 
L 1259 2759 
L 3109 2759 
L 3109 2228 
L 1259 2228 
L 1259 0 
L 628 0 
L 628 4666 
z
" id="DejaVuSans-46" transform="scale(0.015625)"/>
       <path d="M 794 531 
L 1825 531 
L 1825 4091 
L 703 3866 
L 703 4441 
L 1819 4666 
L 2450 4666 
L 2450 531 
L 3481 531 
L 3481 0 
L 794 0 
L 794 531 
z
" id="DejaVuSans-31" transform="scale(0.015625)"/>
      </defs>
      <use xlink:href="#DejaVuSans-46"/>
      <use x="57.519531" xlink:href="#DejaVuSans-31"/>
     </g>
    </g>
   </g>
   <g id="PathCollection_1">
    <path clip-path="url(#p3d77e38a2b)" d="M 157.166129 120.059541 
L 158.766129 120.059541 
L 158.766129 118.459541 
L 160.366129 118.459541 
L 160.366129 116.859541 
L 158.766129 116.859541 
L 158.766129 115.259541 
L 157.166129 115.259541 
L 157.166129 116.859541 
L 155.566129 116.859541 
L 155.566129 118.459541 
L 157.166129 118.459541 
z
" style="fill:#4c72b0;stroke:#ffffff;stroke-width:0.384;"/>
    <path clip-path="url(#p3d77e38a2b)" d="M 123.424875 94.784788 
L 125.024875 94.784788 
L 125.024875 93.184788 
L 126.624875 93.184788 
L 126.624875 91.584788 
L 125.024875 91.584788 
L 125.024875 89.984788 
L 123.424875 89.984788 
L 123.424875 91.584788 
L 121.824875 91.584788 
L 121.824875 93.184788 
L 123.424875 93.184788 
z
" style="fill:#4c72b0;stroke:#ffffff;stroke-width:0.384;"/>
    <path clip-path="url(#p3d77e38a2b)" d="M 123.424875 98.982016 
L 125.024875 98.982016 
L 125.024875 97.382016 
L 126.624875 97.382016 
L 126.624875 95.782016 
L 125.024875 95.782016 
L 125.024875 94.182016 
L 123.424875 94.182016 
L 123.424875 95.782016 
L 121.824875 95.782016 
L 121.824875 97.382016 
L 123.424875 97.382016 
z
" style="fill:#4c72b0;stroke:#ffffff;stroke-width:0.384;"/>
    <path clip-path="url(#p3d77e38a2b)" d="M 157.166129 122.78731 
L 158.766129 122.78731 
L 158.766129 121.18731 
L 160.366129 121.18731 
L 160.366129 119.58731 
L 158.766129 119.58731 
L 158.766129 117.98731 
L 157.166129 117.98731 
L 157.166129 119.58731 
L 155.566129 119.58731 
L 155.566129 121.18731 
L 157.166129 121.18731 
z
" style="fill:#4c72b0;stroke:#ffffff;stroke-width:0.384;"/>
    <path clip-path="url(#p3d77e38a2b)" d="M 157.166129 99.226558 
L 158.766129 99.226558 
L 158.766129 97.626558 
L 160.366129 97.626558 
L 160.366129 96.026558 
L 158.766129 96.026558 
L 158.766129 94.426558 
L 157.166129 94.426558 
L 157.166129 96.026558 
L 155.566129 96.026558 
L 155.566129 97.626558 
L 157.166129 97.626558 
z
" style="fill:#4c72b0;stroke:#ffffff;stroke-width:0.384;"/>
    <path clip-path="url(#p3d77e38a2b)" d="M 123.424875 107.846075 
L 125.024875 107.846075 
L 125.024875 106.246075 
L 126.624875 106.246075 
L 126.624875 104.646075 
L 125.024875 104.646075 
L 125.024875 103.046075 
L 123.424875 103.046075 
L 123.424875 104.646075 
L 121.824875 104.646075 
L 121.824875 106.246075 
L 123.424875 106.246075 
z
" style="fill:#4c72b0;stroke:#ffffff;stroke-width:0.384;"/>
    <path clip-path="url(#p3d77e38a2b)" d="M 176.903497 93.774543 
L 178.503497 93.774543 
L 178.503497 92.174543 
L 180.103497 92.174543 
L 180.103497 90.574543 
L 178.503497 90.574543 
L 178.503497 88.974543 
L 176.903497 88.974543 
L 176.903497 90.574543 
L 175.303497 90.574543 
L 175.303497 92.174543 
L 176.903497 92.174543 
z
" style="fill:#4c72b0;stroke:#ffffff;stroke-width:0.384;"/>
    <path clip-path="url(#p3d77e38a2b)" d="M 137.428761 43.028205 
L 139.028761 43.028205 
L 139.028761 41.428205 
L 140.628761 41.428205 
L 140.628761 39.828205 
L 139.028761 39.828205 
L 139.028761 38.228205 
L 137.428761 38.228205 
L 137.428761 39.828205 
L 135.828761 39.828205 
L 135.828761 41.428205 
L 137.428761 41.428205 
z
" style="fill:#4c72b0;stroke:#ffffff;stroke-width:0.384;"/>
    <path clip-path="url(#p3d77e38a2b)" d="M 157.166129 117.659256 
L 158.766129 117.659256 
L 158.766129 116.059256 
L 160.366129 116.059256 
L 160.366129 114.459256 
L 158.766129 114.459256 
L 158.766129 112.859256 
L 157.166129 112.859256 
L 157.166129 114.459256 
L 155.566129 114.459256 
L 155.566129 116.059256 
L 157.166129 116.059256 
z
" style="fill:#4c72b0;stroke:#ffffff;stroke-width:0.384;"/>
    <path clip-path="url(#p3d77e38a2b)" d="M 157.166129 44.22504 
L 158.766129 44.22504 
L 158.766129 42.62504 
L 160.366129 42.62504 
L 160.366129 41.02504 
L 158.766129 41.02504 
L 158.766129 39.42504 
L 157.166129 39.42504 
L 157.166129 41.02504 
L 155.566129 41.02504 
L 155.566129 42.62504 
L 157.166129 42.62504 
z
" style="fill:#4c72b0;stroke:#ffffff;stroke-width:0.384;"/>
    <path clip-path="url(#p3d77e38a2b)" d="M 137.428761 58.014019 
L 139.028761 58.014019 
L 139.028761 56.414019 
L 140.628761 56.414019 
L 140.628761 54.814019 
L 139.028761 54.814019 
L 139.028761 53.214019 
L 137.428761 53.214019 
L 137.428761 54.814019 
L 135.828761 54.814019 
L 135.828761 56.414019 
L 137.428761 56.414019 
z
" style="fill:#4c72b0;stroke:#ffffff;stroke-width:0.384;"/>
    <path clip-path="url(#p3d77e38a2b)" d="M 123.424875 60.931613 
L 125.024875 60.931613 
L 125.024875 59.331613 
L 126.624875 59.331613 
L 126.624875 57.731613 
L 125.024875 57.731613 
L 125.024875 56.131613 
L 123.424875 56.131613 
L 123.424875 57.731613 
L 121.824875 57.731613 
L 121.824875 59.331613 
L 123.424875 59.331613 
z
" style="fill:#4c72b0;stroke:#ffffff;stroke-width:0.384;"/>
    <path clip-path="url(#p3d77e38a2b)" d="M 157.166129 116.187938 
L 158.766129 116.187938 
L 158.766129 114.587938 
L 160.366129 114.587938 
L 160.366129 112.987938 
L 158.766129 112.987938 
L 158.766129 111.387938 
L 157.166129 111.387938 
L 157.166129 112.987938 
L 155.566129 112.987938 
L 155.566129 114.587938 
L 157.166129 114.587938 
z
" style="fill:#4c72b0;stroke:#ffffff;stroke-width:0.384;"/>
    <path clip-path="url(#p3d77e38a2b)" d="M 123.424875 78.744803 
L 125.024875 78.744803 
L 125.024875 77.144803 
L 126.624875 77.144803 
L 126.624875 75.544803 
L 125.024875 75.544803 
L 125.024875 73.944803 
L 123.424875 73.944803 
L 123.424875 75.544803 
L 121.824875 75.544803 
L 121.824875 77.144803 
L 123.424875 77.144803 
z
" style="fill:#4c72b0;stroke:#ffffff;stroke-width:0.384;"/>
    <path clip-path="url(#p3d77e38a2b)" d="M 210.644751 68.751462 
L 212.244751 68.751462 
L 212.244751 67.151462 
L 213.844751 67.151462 
L 213.844751 65.551462 
L 212.244751 65.551462 
L 212.244751 63.951462 
L 210.644751 63.951462 
L 210.644751 65.551462 
L 209.044751 65.551462 
L 209.044751 67.151462 
L 210.644751 67.151462 
z
" style="fill:#4c72b0;stroke:#ffffff;stroke-width:0.384;"/>
    <path clip-path="url(#p3d77e38a2b)" d="M 137.428761 67.857223 
L 139.028761 67.857223 
L 139.028761 66.257223 
L 140.628761 66.257223 
L 140.628761 64.657223 
L 139.028761 64.657223 
L 139.028761 63.057223 
L 137.428761 63.057223 
L 137.428761 64.657223 
L 135.828761 64.657223 
L 135.828761 66.257223 
L 137.428761 66.257223 
z
" style="fill:#4c72b0;stroke:#ffffff;stroke-width:0.384;"/>
    <path clip-path="url(#p3d77e38a2b)" d="M 157.166129 118.965027 
L 158.766129 118.965027 
L 158.766129 117.365027 
L 160.366129 117.365027 
L 160.366129 115.765027 
L 158.766129 115.765027 
L 158.766129 114.165027 
L 157.166129 114.165027 
L 157.166129 115.765027 
L 155.566129 115.765027 
L 155.566129 117.365027 
L 157.166129 117.365027 
z
" style="fill:#4c72b0;stroke:#ffffff;stroke-width:0.384;"/>
    <path clip-path="url(#p3d77e38a2b)" d="M 210.644751 131.364228 
L 212.244751 131.364228 
L 212.244751 129.764228 
L 213.844751 129.764228 
L 213.844751 128.164228 
L 212.244751 128.164228 
L 212.244751 126.564228 
L 210.644751 126.564228 
L 210.644751 128.164228 
L 209.044751 128.164228 
L 209.044751 129.764228 
L 210.644751 129.764228 
z
" style="fill:#4c72b0;stroke:#ffffff;stroke-width:0.384;"/>
    <path clip-path="url(#p3d77e38a2b)" d="M 123.424875 93.256857 
L 125.024875 93.256857 
L 125.024875 91.656857 
L 126.624875 91.656857 
L 126.624875 90.056857 
L 125.024875 90.056857 
L 125.024875 88.456857 
L 123.424875 88.456857 
L 123.424875 90.056857 
L 121.824875 90.056857 
L 121.824875 91.656857 
L 123.424875 91.656857 
z
" style="fill:#4c72b0;stroke:#ffffff;stroke-width:0.384;"/>
    <path clip-path="url(#p3d77e38a2b)" d="M 176.903497 58.383438 
L 178.503497 58.383438 
L 178.503497 56.783438 
L 180.103497 56.783438 
L 180.103497 55.183438 
L 178.503497 55.183438 
L 178.503497 53.583438 
L 176.903497 53.583438 
L 176.903497 55.183438 
L 175.303497 55.183438 
L 175.303497 56.783438 
L 176.903497 56.783438 
z
" style="fill:#4c72b0;stroke:#ffffff;stroke-width:0.384;"/>
    <path clip-path="url(#p3d77e38a2b)" d="M 123.424875 121.048725 
L 125.024875 121.048725 
L 125.024875 119.448725 
L 126.624875 119.448725 
L 126.624875 117.848725 
L 125.024875 117.848725 
L 125.024875 116.248725 
L 123.424875 116.248725 
L 123.424875 117.848725 
L 121.824875 117.848725 
L 121.824875 119.448725 
L 123.424875 119.448725 
z
" style="fill:#4c72b0;stroke:#ffffff;stroke-width:0.384;"/>
    <path clip-path="url(#p3d77e38a2b)" d="M 123.424875 120.228702 
L 125.024875 120.228702 
L 125.024875 118.628702 
L 126.624875 118.628702 
L 126.624875 117.028702 
L 125.024875 117.028702 
L 125.024875 115.428702 
L 123.424875 115.428702 
L 123.424875 117.028702 
L 121.824875 117.028702 
L 121.824875 118.628702 
L 123.424875 118.628702 
z
" style="fill:#4c72b0;stroke:#ffffff;stroke-width:0.384;"/>
    <path clip-path="url(#p3d77e38a2b)" d="M 157.166129 77.971789 
L 158.766129 77.971789 
L 158.766129 76.371789 
L 160.366129 76.371789 
L 160.366129 74.771789 
L 158.766129 74.771789 
L 158.766129 73.171789 
L 157.166129 73.171789 
L 157.166129 74.771789 
L 155.566129 74.771789 
L 155.566129 76.371789 
L 157.166129 76.371789 
z
" style="fill:#4c72b0;stroke:#ffffff;stroke-width:0.384;"/>
    <path clip-path="url(#p3d77e38a2b)" d="M 123.424875 67.975301 
L 125.024875 67.975301 
L 125.024875 66.375301 
L 126.624875 66.375301 
L 126.624875 64.775301 
L 125.024875 64.775301 
L 125.024875 63.175301 
L 123.424875 63.175301 
L 123.424875 64.775301 
L 121.824875 64.775301 
L 121.824875 66.375301 
L 123.424875 66.375301 
z
" style="fill:#4c72b0;stroke:#ffffff;stroke-width:0.384;"/>
    <path clip-path="url(#p3d77e38a2b)" d="M 137.428761 114.89841 
L 139.028761 114.89841 
L 139.028761 113.29841 
L 140.628761 113.29841 
L 140.628761 111.69841 
L 139.028761 111.69841 
L 139.028761 110.09841 
L 137.428761 110.09841 
L 137.428761 111.69841 
L 135.828761 111.69841 
L 135.828761 113.29841 
L 137.428761 113.29841 
z
" style="fill:#4c72b0;stroke:#ffffff;stroke-width:0.384;"/>
    <path clip-path="url(#p3d77e38a2b)" d="M 177.703497 123.396381 
C 178.339984 123.396381 178.950489 123.143502 179.400553 122.693437 
C 179.850618 122.243373 180.103497 121.632869 180.103497 120.996381 
C 180.103497 120.359894 179.850618 119.749389 179.400553 119.299325 
C 178.950489 118.84926 178.339984 118.596381 177.703497 118.596381 
C 177.06701 118.596381 176.456505 118.84926 176.006441 119.299325 
C 175.556376 119.749389 175.303497 120.359894 175.303497 120.996381 
C 175.303497 121.632869 175.556376 122.243373 176.006441 122.693437 
C 176.456505 123.143502 177.06701 123.396381 177.703497 123.396381 
z
" style="fill:#c44e52;stroke:#ffffff;stroke-width:0.384;"/>
    <path clip-path="url(#p3d77e38a2b)" d="M 191.707383 100.282932 
C 192.34387 100.282932 192.954374 100.030052 193.404439 99.579988 
C 193.854503 99.129923 194.107383 98.519419 194.107383 97.882932 
C 194.107383 97.246444 193.854503 96.63594 193.404439 96.185875 
C 192.954374 95.735811 192.34387 95.482932 191.707383 95.482932 
C 191.070895 95.482932 190.460391 95.735811 190.010326 96.185875 
C 189.560262 96.63594 189.307383 97.246444 189.307383 97.882932 
C 189.307383 98.519419 189.560262 99.129923 190.010326 99.579988 
C 190.460391 100.030052 191.070895 100.282932 191.707383 100.282932 
z
" style="fill:#c44e52;stroke:#ffffff;stroke-width:0.384;"/>
    <path clip-path="url(#p3d77e38a2b)" d="M 157.966129 25.075382 
C 158.602616 25.075382 159.21312 24.822503 159.663185 24.372438 
C 160.11325 23.922374 160.366129 23.311869 160.366129 22.675382 
C 160.366129 22.038895 160.11325 21.42839 159.663185 20.978326 
C 159.21312 20.528261 158.602616 20.275382 157.966129 20.275382 
C 157.329641 20.275382 156.719137 20.528261 156.269073 20.978326 
C 155.819008 21.42839 155.566129 22.038895 155.566129 22.675382 
C 155.566129 23.311869 155.819008 23.922374 156.269073 24.372438 
C 156.719137 24.822503 157.329641 25.075382 157.966129 25.075382 
z
" style="fill:#c44e52;stroke:#ffffff;stroke-width:0.384;"/>
    <path clip-path="url(#p3d77e38a2b)" d="M 157.966129 29.132613 
C 158.602616 29.132613 159.21312 28.879733 159.663185 28.429669 
C 160.11325 27.979604 160.366129 27.3691 160.366129 26.732613 
C 160.366129 26.096125 160.11325 25.485621 159.663185 25.035556 
C 159.21312 24.585492 158.602616 24.332613 157.966129 24.332613 
C 157.329641 24.332613 156.719137 24.585492 156.269073 25.035556 
C 155.819008 25.485621 155.566129 26.096125 155.566129 26.732613 
C 155.566129 27.3691 155.819008 27.979604 156.269073 28.429669 
C 156.719137 28.879733 157.329641 29.132613 157.966129 29.132613 
z
" style="fill:#c44e52;stroke:#ffffff;stroke-width:0.384;"/>
    <path clip-path="url(#p3d77e38a2b)" d="M 157.966129 106.224653 
C 158.602616 106.224653 159.21312 105.971774 159.663185 105.521709 
C 160.11325 105.071645 160.366129 104.461141 160.366129 103.824653 
C 160.366129 103.188166 160.11325 102.577661 159.663185 102.127597 
C 159.21312 101.677532 158.602616 101.424653 157.966129 101.424653 
C 157.329641 101.424653 156.719137 101.677532 156.269073 102.127597 
C 155.819008 102.577661 155.566129 103.188166 155.566129 103.824653 
C 155.566129 104.461141 155.819008 105.071645 156.269073 105.521709 
C 156.719137 105.971774 157.329641 106.224653 157.966129 106.224653 
z
" style="fill:#c44e52;stroke:#ffffff;stroke-width:0.384;"/>
    <path clip-path="url(#p3d77e38a2b)" d="M 124.224875 102.466046 
C 124.861362 102.466046 125.471867 102.213167 125.921931 101.763102 
C 126.371996 101.313038 126.624875 100.702533 126.624875 100.066046 
C 126.624875 99.429559 126.371996 98.819054 125.921931 98.36899 
C 125.471867 97.918925 124.861362 97.666046 124.224875 97.666046 
C 123.588388 97.666046 122.977883 97.918925 122.527819 98.36899 
C 122.077754 98.819054 121.824875 99.429559 121.824875 100.066046 
C 121.824875 100.702533 122.077754 101.313038 122.527819 101.763102 
C 122.977883 102.213167 123.588388 102.466046 124.224875 102.466046 
z
" style="fill:#c44e52;stroke:#ffffff;stroke-width:0.384;"/>
    <path clip-path="url(#p3d77e38a2b)" d="M 104.487507 46.120932 
C 105.123994 46.120932 105.734498 45.868052 106.184563 45.417988 
C 106.634628 44.967923 106.887507 44.357419 106.887507 43.720932 
C 106.887507 43.084444 106.634628 42.47394 106.184563 42.023875 
C 105.734498 41.573811 105.123994 41.320932 104.487507 41.320932 
C 103.851019 41.320932 103.240515 41.573811 102.790451 42.023875 
C 102.340386 42.47394 102.087507 43.084444 102.087507 43.720932 
C 102.087507 44.357419 102.340386 44.967923 102.790451 45.417988 
C 103.240515 45.868052 103.851019 46.120932 104.487507 46.120932 
z
" style="fill:#c44e52;stroke:#ffffff;stroke-width:0.384;"/>
    <path clip-path="url(#p3d77e38a2b)" d="M 177.703497 68.504249 
C 178.339984 68.504249 178.950489 68.25137 179.400553 67.801305 
C 179.850618 67.351241 180.103497 66.740736 180.103497 66.104249 
C 180.103497 65.467761 179.850618 64.857257 179.400553 64.407193 
C 178.950489 63.957128 178.339984 63.704249 177.703497 63.704249 
C 177.06701 63.704249 176.456505 63.957128 176.006441 64.407193 
C 175.556376 64.857257 175.303497 65.467761 175.303497 66.104249 
C 175.303497 66.740736 175.556376 67.351241 176.006441 67.801305 
C 176.456505 68.25137 177.06701 68.504249 177.703497 68.504249 
z
" style="fill:#c44e52;stroke:#ffffff;stroke-width:0.384;"/>
    <path clip-path="url(#p3d77e38a2b)" d="M 138.228761 79.34619 
C 138.865248 79.34619 139.475752 79.093311 139.925817 78.643246 
C 140.375881 78.193181 140.628761 77.582677 140.628761 76.94619 
C 140.628761 76.309702 140.375881 75.699198 139.925817 75.249133 
C 139.475752 74.799069 138.865248 74.54619 138.228761 74.54619 
C 137.592273 74.54619 136.981769 74.799069 136.531704 75.249133 
C 136.08164 75.699198 135.828761 76.309702 135.828761 76.94619 
C 135.828761 77.582677 136.08164 78.193181 136.531704 78.643246 
C 136.981769 79.093311 137.592273 79.34619 138.228761 79.34619 
z
" style="fill:#c44e52;stroke:#ffffff;stroke-width:0.384;"/>
    <path clip-path="url(#p3d77e38a2b)" d="M 157.966129 99.627884 
C 158.602616 99.627884 159.21312 99.375005 159.663185 98.92494 
C 160.11325 98.474876 160.366129 97.864371 160.366129 97.227884 
C 160.366129 96.591396 160.11325 95.980892 159.663185 95.530828 
C 159.21312 95.080763 158.602616 94.827884 157.966129 94.827884 
C 157.329641 94.827884 156.719137 95.080763 156.269073 95.530828 
C 155.819008 95.980892 155.566129 96.591396 155.566129 97.227884 
C 155.566129 97.864371 155.819008 98.474876 156.269073 98.92494 
C 156.719137 99.375005 157.329641 99.627884 157.966129 99.627884 
z
" style="fill:#8172b3;stroke:#ffffff;stroke-width:0.384;"/>
    <path clip-path="url(#p3d77e38a2b)" d="M 124.224875 102.748344 
C 124.861362 102.748344 125.471867 102.495465 125.921931 102.045401 
C 126.371996 101.595336 126.624875 100.984832 126.624875 100.348344 
C 126.624875 99.711857 126.371996 99.101353 125.921931 98.651288 
C 125.471867 98.201224 124.861362 97.948344 124.224875 97.948344 
C 123.588388 97.948344 122.977883 98.201224 122.527819 98.651288 
C 122.077754 99.101353 121.824875 99.711857 121.824875 100.348344 
C 121.824875 100.984832 122.077754 101.595336 122.527819 102.045401 
C 122.977883 102.495465 123.588388 102.748344 124.224875 102.748344 
z
" style="fill:#8172b3;stroke:#ffffff;stroke-width:0.384;"/>
    <path clip-path="url(#p3d77e38a2b)" d="M 202.56964 58.654476 
C 203.206128 58.654476 203.816632 58.401597 204.266696 57.951533 
C 204.716761 57.501468 204.96964 56.890964 204.96964 56.254476 
C 204.96964 55.617989 204.716761 55.007485 204.266696 54.55742 
C 203.816632 54.107355 203.206128 53.854476 202.56964 53.854476 
C 201.933153 53.854476 201.322648 54.107355 200.872584 54.55742 
C 200.422519 55.007485 200.16964 55.617989 200.16964 56.254476 
C 200.16964 56.890964 200.422519 57.501468 200.872584 57.951533 
C 201.322648 58.401597 201.933153 58.654476 202.56964 58.654476 
z
" style="fill:#8172b3;stroke:#ffffff;stroke-width:0.384;"/>
    <path clip-path="url(#p3d77e38a2b)" d="M 191.707383 120.827432 
C 192.34387 120.827432 192.954374 120.574553 193.404439 120.124489 
C 193.854503 119.674424 194.107383 119.06392 194.107383 118.427432 
C 194.107383 117.790945 193.854503 117.180441 193.404439 116.730376 
C 192.954374 116.280311 192.34387 116.027432 191.707383 116.027432 
C 191.070895 116.027432 190.460391 116.280311 190.010326 116.730376 
C 189.560262 117.180441 189.307383 117.790945 189.307383 118.427432 
C 189.307383 119.06392 189.560262 119.674424 190.010326 120.124489 
C 190.460391 120.574553 191.070895 120.827432 191.707383 120.827432 
z
" style="fill:#55a868;stroke:#ffffff;stroke-width:0.384;"/>
    <path clip-path="url(#p3d77e38a2b)" d="M 124.224875 94.127161 
C 124.861362 94.127161 125.471867 93.874282 125.921931 93.424217 
C 126.371996 92.974152 126.624875 92.363648 126.624875 91.727161 
C 126.624875 91.090673 126.371996 90.480169 125.921931 90.030104 
C 125.471867 89.58004 124.861362 89.327161 124.224875 89.327161 
C 123.588388 89.327161 122.977883 89.58004 122.527819 90.030104 
C 122.077754 90.480169 121.824875 91.090673 121.824875 91.727161 
C 121.824875 92.363648 122.077754 92.974152 122.527819 93.424217 
C 122.977883 93.874282 123.588388 94.127161 124.224875 94.127161 
z
" style="fill:#55a868;stroke:#ffffff;stroke-width:0.384;"/>
    <path clip-path="url(#p3d77e38a2b)" d="M 191.707383 156.205282 
C 192.34387 156.205282 192.954374 155.952403 193.404439 155.502339 
C 193.854503 155.052274 194.107383 154.44177 194.107383 153.805282 
C 194.107383 153.168795 193.854503 152.558291 193.404439 152.108226 
C 192.954374 151.658162 192.34387 151.405282 191.707383 151.405282 
C 191.070895 151.405282 190.460391 151.658162 190.010326 152.108226 
C 189.560262 152.558291 189.307383 153.168795 189.307383 153.805282 
C 189.307383 154.44177 189.560262 155.052274 190.010326 155.502339 
C 190.460391 155.952403 191.070895 156.205282 191.707383 156.205282 
z
" style="fill:#55a868;stroke:#ffffff;stroke-width:0.384;"/>
    <path clip-path="url(#p3d77e38a2b)" d="M 157.966129 122.215451 
C 158.602616 122.215451 159.21312 121.962572 159.663185 121.512507 
C 160.11325 121.062442 160.366129 120.451938 160.366129 119.815451 
C 160.366129 119.178963 160.11325 118.568459 159.663185 118.118395 
C 159.21312 117.66833 158.602616 117.415451 157.966129 117.415451 
C 157.329641 117.415451 156.719137 117.66833 156.269073 118.118395 
C 155.819008 118.568459 155.566129 119.178963 155.566129 119.815451 
C 155.566129 120.451938 155.819008 121.062442 156.269073 121.512507 
C 156.719137 121.962572 157.329641 122.215451 157.966129 122.215451 
z
" style="fill:#55a868;stroke:#ffffff;stroke-width:0.384;"/>
    <path clip-path="url(#p3d77e38a2b)" d="M 191.707383 85.492166 
C 192.34387 85.492166 192.954374 85.239287 193.404439 84.789222 
C 193.854503 84.339157 194.107383 83.728653 194.107383 83.092166 
C 194.107383 82.455678 193.854503 81.845174 193.404439 81.395109 
C 192.954374 80.945045 192.34387 80.692166 191.707383 80.692166 
C 191.070895 80.692166 190.460391 80.945045 190.010326 81.395109 
C 189.560262 81.845174 189.307383 82.455678 189.307383 83.092166 
C 189.307383 83.728653 189.560262 84.339157 190.010326 84.789222 
C 190.460391 85.239287 191.070895 85.492166 191.707383 85.492166 
z
" style="fill:#55a868;stroke:#ffffff;stroke-width:0.384;"/>
    <path clip-path="url(#p3d77e38a2b)" d="M 157.966129 128.021861 
C 158.602616 128.021861 159.21312 127.768982 159.663185 127.318917 
C 160.11325 126.868853 160.366129 126.258349 160.366129 125.621861 
C 160.366129 124.985374 160.11325 124.374869 159.663185 123.924805 
C 159.21312 123.47474 158.602616 123.221861 157.966129 123.221861 
C 157.329641 123.221861 156.719137 123.47474 156.269073 123.924805 
C 155.819008 124.374869 155.566129 124.985374 155.566129 125.621861 
C 155.566129 126.258349 155.819008 126.868853 156.269073 127.318917 
C 156.719137 127.768982 157.329641 128.021861 157.966129 128.021861 
z
" style="fill:#55a868;stroke:#ffffff;stroke-width:0.384;"/>
    <path clip-path="url(#p3d77e38a2b)" d="M 157.966129 132.423311 
C 158.602616 132.423311 159.21312 132.170431 159.663185 131.720367 
C 160.11325 131.270302 160.366129 130.659798 160.366129 130.023311 
C 160.366129 129.386823 160.11325 128.776319 159.663185 128.326254 
C 159.21312 127.87619 158.602616 127.623311 157.966129 127.623311 
C 157.329641 127.623311 156.719137 127.87619 156.269073 128.326254 
C 155.819008 128.776319 155.566129 129.386823 155.566129 130.023311 
C 155.566129 130.659798 155.819008 131.270302 156.269073 131.720367 
C 156.719137 132.170431 157.329641 132.423311 157.966129 132.423311 
z
" style="fill:#55a868;stroke:#ffffff;stroke-width:0.384;"/>
    <path clip-path="url(#p3d77e38a2b)" d="M 157.966129 157.989739 
C 158.602616 157.989739 159.21312 157.73686 159.663185 157.286795 
C 160.11325 156.836731 160.366129 156.226226 160.366129 155.589739 
C 160.366129 154.953251 160.11325 154.342747 159.663185 153.892683 
C 159.21312 153.442618 158.602616 153.189739 157.966129 153.189739 
C 157.329641 153.189739 156.719137 153.442618 156.269073 153.892683 
C 155.819008 154.342747 155.566129 154.953251 155.566129 155.589739 
C 155.566129 156.226226 155.819008 156.836731 156.269073 157.286795 
C 156.719137 157.73686 157.329641 157.989739 157.966129 157.989739 
z
" style="fill:#55a868;stroke:#ffffff;stroke-width:0.384;"/>
    <path clip-path="url(#p3d77e38a2b)" d="M 157.966129 128.29263 
C 158.602616 128.29263 159.21312 128.039751 159.663185 127.589687 
C 160.11325 127.139622 160.366129 126.529118 160.366129 125.89263 
C 160.366129 125.256143 160.11325 124.645639 159.663185 124.195574 
C 159.21312 123.745509 158.602616 123.49263 157.966129 123.49263 
C 157.329641 123.49263 156.719137 123.745509 156.269073 124.195574 
C 155.819008 124.645639 155.566129 125.256143 155.566129 125.89263 
C 155.566129 126.529118 155.819008 127.139622 156.269073 127.589687 
C 156.719137 128.039751 157.329641 128.29263 157.966129 128.29263 
z
" style="fill:#55a868;stroke:#ffffff;stroke-width:0.384;"/>
    <path clip-path="url(#p3d77e38a2b)" d="M 157.966129 120.18443 
C 158.602616 120.18443 159.21312 119.931551 159.663185 119.481487 
C 160.11325 119.031422 160.366129 118.420918 160.366129 117.78443 
C 160.366129 117.147943 160.11325 116.537439 159.663185 116.087374 
C 159.21312 115.637309 158.602616 115.38443 157.966129 115.38443 
C 157.329641 115.38443 156.719137 115.637309 156.269073 116.087374 
C 155.819008 116.537439 155.566129 117.147943 155.566129 117.78443 
C 155.566129 118.420918 155.819008 119.031422 156.269073 119.481487 
C 156.719137 119.931551 157.329641 120.18443 157.966129 120.18443 
z
" style="fill:#55a868;stroke:#ffffff;stroke-width:0.384;"/>
    <path clip-path="url(#p3d77e38a2b)" d="M 191.707383 73.273901 
C 192.34387 73.273901 192.954374 73.021022 193.404439 72.570957 
C 193.854503 72.120893 194.107383 71.510389 194.107383 70.873901 
C 194.107383 70.237414 193.854503 69.626909 193.404439 69.176845 
C 192.954374 68.72678 192.34387 68.473901 191.707383 68.473901 
C 191.070895 68.473901 190.460391 68.72678 190.010326 69.176845 
C 189.560262 69.626909 189.307383 70.237414 189.307383 70.873901 
C 189.307383 71.510389 189.560262 72.120893 190.010326 72.570957 
C 190.460391 73.021022 191.070895 73.273901 191.707383 73.273901 
z
" style="fill:#55a868;stroke:#ffffff;stroke-width:0.384;"/>
    <path clip-path="url(#p3d77e38a2b)" d="M 157.966129 120.505057 
C 158.602616 120.505057 159.21312 120.252178 159.663185 119.802113 
C 160.11325 119.352049 160.366129 118.741544 160.366129 118.105057 
C 160.366129 117.46857 160.11325 116.858065 159.663185 116.408001 
C 159.21312 115.957936 158.602616 115.705057 157.966129 115.705057 
C 157.329641 115.705057 156.719137 115.957936 156.269073 116.408001 
C 155.819008 116.858065 155.566129 117.46857 155.566129 118.105057 
C 155.566129 118.741544 155.819008 119.352049 156.269073 119.802113 
C 156.719137 120.252178 157.329641 120.505057 157.966129 120.505057 
z
" style="fill:#55a868;stroke:#ffffff;stroke-width:0.384;"/>
    <path clip-path="url(#p3d77e38a2b)" d="M 124.224875 105.547912 
C 124.861362 105.547912 125.471867 105.295033 125.921931 104.844968 
C 126.371996 104.394904 126.624875 103.7844 126.624875 103.147912 
C 126.624875 102.511425 126.371996 101.90092 125.921931 101.450856 
C 125.471867 101.000791 124.861362 100.747912 124.224875 100.747912 
C 123.588388 100.747912 122.977883 101.000791 122.527819 101.450856 
C 122.077754 101.90092 121.824875 102.511425 121.824875 103.147912 
C 121.824875 103.7844 122.077754 104.394904 122.527819 104.844968 
C 122.977883 105.295033 123.588388 105.547912 124.224875 105.547912 
z
" style="fill:#55a868;stroke:#ffffff;stroke-width:0.384;"/>
    <path clip-path="url(#p3d77e38a2b)" d="M 191.707383 99.315143 
C 192.34387 99.315143 192.954374 99.062264 193.404439 98.612199 
C 193.854503 98.162135 194.107383 97.551631 194.107383 96.915143 
C 194.107383 96.278656 193.854503 95.668151 193.404439 95.218087 
C 192.954374 94.768022 192.34387 94.515143 191.707383 94.515143 
C 191.070895 94.515143 190.460391 94.768022 190.010326 95.218087 
C 189.560262 95.668151 189.307383 96.278656 189.307383 96.915143 
C 189.307383 97.551631 189.560262 98.162135 190.010326 98.612199 
C 190.460391 99.062264 191.070895 99.315143 191.707383 99.315143 
z
" style="fill:#55a868;stroke:#ffffff;stroke-width:0.384;"/>
    <path clip-path="url(#p3d77e38a2b)" d="M 157.966129 98.862643 
C 158.602616 98.862643 159.21312 98.609764 159.663185 98.159699 
C 160.11325 97.709634 160.366129 97.09913 160.366129 96.462643 
C 160.366129 95.826155 160.11325 95.215651 159.663185 94.765587 
C 159.21312 94.315522 158.602616 94.062643 157.966129 94.062643 
C 157.329641 94.062643 156.719137 94.315522 156.269073 94.765587 
C 155.819008 95.215651 155.566129 95.826155 155.566129 96.462643 
C 155.566129 97.09913 155.819008 97.709634 156.269073 98.159699 
C 156.719137 98.609764 157.329641 98.862643 157.966129 98.862643 
z
" style="fill:#55a868;stroke:#ffffff;stroke-width:0.384;"/>
    <path clip-path="url(#p3d77e38a2b)" d="M 191.707383 95.292691 
C 192.34387 95.292691 192.954374 95.039812 193.404439 94.589747 
C 193.854503 94.139683 194.107383 93.529178 194.107383 92.892691 
C 194.107383 92.256204 193.854503 91.645699 193.404439 91.195635 
C 192.954374 90.74557 192.34387 90.492691 191.707383 90.492691 
C 191.070895 90.492691 190.460391 90.74557 190.010326 91.195635 
C 189.560262 91.645699 189.307383 92.256204 189.307383 92.892691 
C 189.307383 93.529178 189.560262 94.139683 190.010326 94.589747 
C 190.460391 95.039812 191.070895 95.292691 191.707383 95.292691 
z
" style="fill:#55a868;stroke:#ffffff;stroke-width:0.384;"/>
    <path clip-path="url(#p3d77e38a2b)" d="M 225.448636 65.969192 
C 226.085124 65.969192 226.695628 65.716313 227.145693 65.266248 
C 227.595757 64.816184 227.848636 64.20568 227.848636 63.569192 
C 227.848636 62.932705 227.595757 62.3222 227.145693 61.872136 
C 226.695628 61.422071 226.085124 61.169192 225.448636 61.169192 
C 224.812149 61.169192 224.201645 61.422071 223.75158 61.872136 
C 223.301516 62.3222 223.048636 62.932705 223.048636 63.569192 
C 223.048636 64.20568 223.301516 64.816184 223.75158 65.266248 
C 224.201645 65.716313 224.812149 65.969192 225.448636 65.969192 
z
" style="fill:#55a868;stroke:#ffffff;stroke-width:0.384;"/>
    <path clip-path="url(#p3d77e38a2b)" d="M 104.487507 85.571074 
C 105.123994 85.571074 105.734498 85.318195 106.184563 84.86813 
C 106.634628 84.418065 106.887507 83.807561 106.887507 83.171074 
C 106.887507 82.534586 106.634628 81.924082 106.184563 81.474017 
C 105.734498 81.023953 105.123994 80.771074 104.487507 80.771074 
C 103.851019 80.771074 103.240515 81.023953 102.790451 81.474017 
C 102.340386 81.924082 102.087507 82.534586 102.087507 83.171074 
C 102.087507 83.807561 102.340386 84.418065 102.790451 84.86813 
C 103.240515 85.318195 103.851019 85.571074 104.487507 85.571074 
z
" style="fill:#c44e52;stroke:#ffffff;stroke-width:0.384;"/>
    <path clip-path="url(#p3d77e38a2b)" d="M 143.962243 103.390986 
C 144.598731 103.390986 145.209235 103.138107 145.659299 102.688043 
C 146.109364 102.237978 146.362243 101.627474 146.362243 100.990986 
C 146.362243 100.354499 146.109364 99.743995 145.659299 99.29393 
C 145.209235 98.843865 144.598731 98.590986 143.962243 98.590986 
C 143.325756 98.590986 142.715251 98.843865 142.265187 99.29393 
C 141.815122 99.743995 141.562243 100.354499 141.562243 100.990986 
C 141.562243 101.627474 141.815122 102.237978 142.265187 102.688043 
C 142.715251 103.138107 143.325756 103.390986 143.962243 103.390986 
z
" style="fill:#c44e52;stroke:#ffffff;stroke-width:0.384;"/>
    <path clip-path="url(#p3d77e38a2b)" d="M 79.621364 73.878207 
C 80.257851 73.878207 80.868355 73.625328 81.31842 73.175263 
C 81.768484 72.725199 82.021364 72.114695 82.021364 71.478207 
C 82.021364 70.84172 81.768484 70.231215 81.31842 69.781151 
C 80.868355 69.331086 80.257851 69.078207 79.621364 69.078207 
C 78.984876 69.078207 78.374372 69.331086 77.924307 69.781151 
C 77.474243 70.231215 77.221364 70.84172 77.221364 71.478207 
C 77.221364 72.114695 77.474243 72.725199 77.924307 73.175263 
C 78.374372 73.625328 78.984876 73.878207 79.621364 73.878207 
z
" style="fill:#c44e52;stroke:#ffffff;stroke-width:0.384;"/>
    <path clip-path="url(#p3d77e38a2b)" d="M 157.966129 132.722809 
C 158.602616 132.722809 159.21312 132.46993 159.663185 132.019866 
C 160.11325 131.569801 160.366129 130.959297 160.366129 130.322809 
C 160.366129 129.686322 160.11325 129.075818 159.663185 128.625753 
C 159.21312 128.175688 158.602616 127.922809 157.966129 127.922809 
C 157.329641 127.922809 156.719137 128.175688 156.269073 128.625753 
C 155.819008 129.075818 155.566129 129.686322 155.566129 130.322809 
C 155.566129 130.959297 155.819008 131.569801 156.269073 132.019866 
C 156.719137 132.46993 157.329641 132.722809 157.966129 132.722809 
z
" style="fill:#c44e52;stroke:#ffffff;stroke-width:0.384;"/>
    <path clip-path="url(#p3d77e38a2b)" d="M 168.828386 57.844101 
C 169.464874 57.844101 170.075378 57.591222 170.525443 57.141158 
C 170.975507 56.691093 171.228386 56.080589 171.228386 55.444101 
C 171.228386 54.807614 170.975507 54.19711 170.525443 53.747045 
C 170.075378 53.29698 169.464874 53.044101 168.828386 53.044101 
C 168.191899 53.044101 167.581395 53.29698 167.13133 53.747045 
C 166.681265 54.19711 166.428386 54.807614 166.428386 55.444101 
C 166.428386 56.080589 166.681265 56.691093 167.13133 57.141158 
C 167.581395 57.591222 168.191899 57.844101 168.828386 57.844101 
z
" style="fill:#8172b3;stroke:#ffffff;stroke-width:0.384;"/>
    <path clip-path="url(#p3d77e38a2b)" d="M 147.103871 72.425321 
C 147.740359 72.425321 148.350863 72.172442 148.800927 71.722377 
C 149.250992 71.272312 149.503871 70.661808 149.503871 70.025321 
C 149.503871 69.388833 149.250992 68.778329 148.800927 68.328264 
C 148.350863 67.8782 147.740359 67.625321 147.103871 67.625321 
C 146.467384 67.625321 145.85688 67.8782 145.406815 68.328264 
C 144.95675 68.778329 144.703871 69.388833 144.703871 70.025321 
C 144.703871 70.661808 144.95675 71.272312 145.406815 71.722377 
C 145.85688 72.172442 146.467384 72.425321 147.103871 72.425321 
z
" style="fill:#8172b3;stroke:#ffffff;stroke-width:0.384;"/>
    <path clip-path="url(#p3d77e38a2b)" d="M 168.828386 42.667105 
C 169.464874 42.667105 170.075378 42.414226 170.525443 41.964162 
C 170.975507 41.514097 171.228386 40.903593 171.228386 40.267105 
C 171.228386 39.630618 170.975507 39.020114 170.525443 38.570049 
C 170.075378 38.119984 169.464874 37.867105 168.828386 37.867105 
C 168.191899 37.867105 167.581395 38.119984 167.13133 38.570049 
C 166.681265 39.020114 166.428386 39.630618 166.428386 40.267105 
C 166.428386 40.903593 166.681265 41.514097 167.13133 41.964162 
C 167.581395 42.414226 168.191899 42.667105 168.828386 42.667105 
z
" style="fill:#8172b3;stroke:#ffffff;stroke-width:0.384;"/>
    <path clip-path="url(#p3d77e38a2b)" d="M 191.707383 129.59377 
C 192.34387 129.59377 192.954374 129.340891 193.404439 128.890826 
C 193.854503 128.440762 194.107383 127.830257 194.107383 127.19377 
C 194.107383 126.557283 193.854503 125.946778 193.404439 125.496714 
C 192.954374 125.046649 192.34387 124.79377 191.707383 124.79377 
C 191.070895 124.79377 190.460391 125.046649 190.010326 125.496714 
C 189.560262 125.946778 189.307383 126.557283 189.307383 127.19377 
C 189.307383 127.830257 189.560262 128.440762 190.010326 128.890826 
C 190.460391 129.340891 191.070895 129.59377 191.707383 129.59377 
z
" style="fill:#55a868;stroke:#ffffff;stroke-width:0.384;"/>
    <path clip-path="url(#p3d77e38a2b)" d="M 157.966129 136.307102 
C 158.602616 136.307102 159.21312 136.054223 159.663185 135.604158 
C 160.11325 135.154094 160.366129 134.543589 160.366129 133.907102 
C 160.366129 133.270614 160.11325 132.66011 159.663185 132.210046 
C 159.21312 131.759981 158.602616 131.507102 157.966129 131.507102 
C 157.329641 131.507102 156.719137 131.759981 156.269073 132.210046 
C 155.819008 132.66011 155.566129 133.270614 155.566129 133.907102 
C 155.566129 134.543589 155.819008 135.154094 156.269073 135.604158 
C 156.719137 136.054223 157.329641 136.307102 157.966129 136.307102 
z
" style="fill:#55a868;stroke:#ffffff;stroke-width:0.384;"/>
    <path clip-path="url(#p3d77e38a2b)" d="M 138.228761 101.71772 
C 138.865248 101.71772 139.475752 101.464841 139.925817 101.014776 
C 140.375881 100.564712 140.628761 99.954207 140.628761 99.31772 
C 140.628761 98.681232 140.375881 98.070728 139.925817 97.620664 
C 139.475752 97.170599 138.865248 96.91772 138.228761 96.91772 
C 137.592273 96.91772 136.981769 97.170599 136.531704 97.620664 
C 136.08164 98.070728 135.828761 98.681232 135.828761 99.31772 
C 135.828761 99.954207 136.08164 100.564712 136.531704 101.014776 
C 136.981769 101.464841 137.592273 101.71772 138.228761 101.71772 
z
" style="fill:#55a868;stroke:#ffffff;stroke-width:0.384;"/>
    <path clip-path="url(#p3d77e38a2b)" d="M 138.228761 124.593718 
C 138.865248 124.593718 139.475752 124.340839 139.925817 123.890774 
C 140.375881 123.44071 140.628761 122.830205 140.628761 122.193718 
C 140.628761 121.55723 140.375881 120.946726 139.925817 120.496662 
C 139.475752 120.046597 138.865248 119.793718 138.228761 119.793718 
C 137.592273 119.793718 136.981769 120.046597 136.531704 120.496662 
C 136.08164 120.946726 135.828761 121.55723 135.828761 122.193718 
C 135.828761 122.830205 136.08164 123.44071 136.531704 123.890774 
C 136.981769 124.340839 137.592273 124.593718 138.228761 124.593718 
z
" style="fill:#55a868;stroke:#ffffff;stroke-width:0.384;"/>
    <path clip-path="url(#p3d77e38a2b)" d="M 138.228761 98.544456 
C 138.865248 98.544456 139.475752 98.291577 139.925817 97.841513 
C 140.375881 97.391448 140.628761 96.780944 140.628761 96.144456 
C 140.628761 95.507969 140.375881 94.897465 139.925817 94.4474 
C 139.475752 93.997335 138.865248 93.744456 138.228761 93.744456 
C 137.592273 93.744456 136.981769 93.997335 136.531704 94.4474 
C 136.08164 94.897465 135.828761 95.507969 135.828761 96.144456 
C 135.828761 96.780944 136.08164 97.391448 136.531704 97.841513 
C 136.981769 98.291577 137.592273 98.544456 138.228761 98.544456 
z
" style="fill:#55a868;stroke:#ffffff;stroke-width:0.384;"/>
    <path clip-path="url(#p3d77e38a2b)" d="M 124.224875 86.013946 
C 124.861362 86.013946 125.471867 85.761067 125.921931 85.311002 
C 126.371996 84.860938 126.624875 84.250434 126.624875 83.613946 
C 126.624875 82.977459 126.371996 82.366955 125.921931 81.91689 
C 125.471867 81.466825 124.861362 81.213946 124.224875 81.213946 
C 123.588388 81.213946 122.977883 81.466825 122.527819 81.91689 
C 122.077754 82.366955 121.824875 82.977459 121.824875 83.613946 
C 121.824875 84.250434 122.077754 84.860938 122.527819 85.311002 
C 122.977883 85.761067 123.588388 86.013946 124.224875 86.013946 
z
" style="fill:#55a868;stroke:#ffffff;stroke-width:0.384;"/>
    <path clip-path="url(#p3d77e38a2b)" d="M 138.228761 107.524749 
C 138.865248 107.524749 139.475752 107.271869 139.925817 106.821805 
C 140.375881 106.37174 140.628761 105.761236 140.628761 105.124749 
C 140.628761 104.488261 140.375881 103.877757 139.925817 103.427692 
C 139.475752 102.977628 138.865248 102.724749 138.228761 102.724749 
C 137.592273 102.724749 136.981769 102.977628 136.531704 103.427692 
C 136.08164 103.877757 135.828761 104.488261 135.828761 105.124749 
C 135.828761 105.761236 136.08164 106.37174 136.531704 106.821805 
C 136.981769 107.271869 137.592273 107.524749 138.228761 107.524749 
z
" style="fill:#55a868;stroke:#ffffff;stroke-width:0.384;"/>
    <path clip-path="url(#p3d77e38a2b)" d="M 191.707383 129.613061 
C 192.34387 129.613061 192.954374 129.360182 193.404439 128.910118 
C 193.854503 128.460053 194.107383 127.849549 194.107383 127.213061 
C 194.107383 126.576574 193.854503 125.96607 193.404439 125.516005 
C 192.954374 125.06594 192.34387 124.813061 191.707383 124.813061 
C 191.070895 124.813061 190.460391 125.06594 190.010326 125.516005 
C 189.560262 125.96607 189.307383 126.576574 189.307383 127.213061 
C 189.307383 127.849549 189.560262 128.460053 190.010326 128.910118 
C 190.460391 129.360182 191.070895 129.613061 191.707383 129.613061 
z
" style="fill:#55a868;stroke:#ffffff;stroke-width:0.384;"/>
    <path clip-path="url(#p3d77e38a2b)" d="M 104.487507 80.090067 
C 105.123994 80.090067 105.734498 79.837188 106.184563 79.387124 
C 106.634628 78.937059 106.887507 78.326555 106.887507 77.690067 
C 106.887507 77.05358 106.634628 76.443076 106.184563 75.993011 
C 105.734498 75.542946 105.123994 75.290067 104.487507 75.290067 
C 103.851019 75.290067 103.240515 75.542946 102.790451 75.993011 
C 102.340386 76.443076 102.087507 77.05358 102.087507 77.690067 
C 102.087507 78.326555 102.340386 78.937059 102.790451 79.387124 
C 103.240515 79.837188 103.851019 80.090067 104.487507 80.090067 
z
" style="fill:#55a868;stroke:#ffffff;stroke-width:0.384;"/>
    <path clip-path="url(#p3d77e38a2b)" d="M 157.966129 127.448587 
C 158.602616 127.448587 159.21312 127.195708 159.663185 126.745643 
C 160.11325 126.295579 160.366129 125.685075 160.366129 125.048587 
C 160.366129 124.4121 160.11325 123.801595 159.663185 123.351531 
C 159.21312 122.901466 158.602616 122.648587 157.966129 122.648587 
C 157.329641 122.648587 156.719137 122.901466 156.269073 123.351531 
C 155.819008 123.801595 155.566129 124.4121 155.566129 125.048587 
C 155.566129 125.685075 155.819008 126.295579 156.269073 126.745643 
C 156.719137 127.195708 157.329641 127.448587 157.966129 127.448587 
z
" style="fill:#55a868;stroke:#ffffff;stroke-width:0.384;"/>
    <path clip-path="url(#p3d77e38a2b)" d="M 191.707383 121.469102 
C 192.34387 121.469102 192.954374 121.216223 193.404439 120.766158 
C 193.854503 120.316093 194.107383 119.705589 194.107383 119.069102 
C 194.107383 118.432614 193.854503 117.82211 193.404439 117.372046 
C 192.954374 116.921981 192.34387 116.669102 191.707383 116.669102 
C 191.070895 116.669102 190.460391 116.921981 190.010326 117.372046 
C 189.560262 117.82211 189.307383 118.432614 189.307383 119.069102 
C 189.307383 119.705589 189.560262 120.316093 190.010326 120.766158 
C 190.460391 121.216223 191.070895 121.469102 191.707383 121.469102 
z
" style="fill:#55a868;stroke:#ffffff;stroke-width:0.384;"/>
    <path clip-path="url(#p3d77e38a2b)" d="M 157.966129 120.1261 
C 158.602616 120.1261 159.21312 119.873221 159.663185 119.423157 
C 160.11325 118.973092 160.366129 118.362588 160.366129 117.7261 
C 160.366129 117.089613 160.11325 116.479109 159.663185 116.029044 
C 159.21312 115.578979 158.602616 115.3261 157.966129 115.3261 
C 157.329641 115.3261 156.719137 115.578979 156.269073 116.029044 
C 155.819008 116.479109 155.566129 117.089613 155.566129 117.7261 
C 155.566129 118.362588 155.819008 118.973092 156.269073 119.423157 
C 156.719137 119.873221 157.329641 120.1261 157.966129 120.1261 
z
" style="fill:#55a868;stroke:#ffffff;stroke-width:0.384;"/>
    <path clip-path="url(#p3d77e38a2b)" d="M 177.703497 112.564985 
C 178.339984 112.564985 178.950489 112.312105 179.400553 111.862041 
C 179.850618 111.411976 180.103497 110.801472 180.103497 110.164985 
C 180.103497 109.528497 179.850618 108.917993 179.400553 108.467928 
C 178.950489 108.017864 178.339984 107.764985 177.703497 107.764985 
C 177.06701 107.764985 176.456505 108.017864 176.006441 108.467928 
C 175.556376 108.917993 175.303497 109.528497 175.303497 110.164985 
C 175.303497 110.801472 175.556376 111.411976 176.006441 111.862041 
C 176.456505 112.312105 177.06701 112.564985 177.703497 112.564985 
z
" style="fill:#55a868;stroke:#ffffff;stroke-width:0.384;"/>
    <path clip-path="url(#p3d77e38a2b)" d="M 191.707383 102.660957 
C 192.34387 102.660957 192.954374 102.408077 193.404439 101.958013 
C 193.854503 101.507948 194.107383 100.897444 194.107383 100.260957 
C 194.107383 99.624469 193.854503 99.013965 193.404439 98.5639 
C 192.954374 98.113836 192.34387 97.860957 191.707383 97.860957 
C 191.070895 97.860957 190.460391 98.113836 190.010326 98.5639 
C 189.560262 99.013965 189.307383 99.624469 189.307383 100.260957 
C 189.307383 100.897444 189.560262 101.507948 190.010326 101.958013 
C 190.460391 102.408077 191.070895 102.660957 191.707383 102.660957 
z
" style="fill:#55a868;stroke:#ffffff;stroke-width:0.384;"/>
    <path clip-path="url(#p3d77e38a2b)" d="M 124.224875 113.120359 
C 124.861362 113.120359 125.471867 112.86748 125.921931 112.417416 
C 126.371996 111.967351 126.624875 111.356847 126.624875 110.720359 
C 126.624875 110.083872 126.371996 109.473368 125.921931 109.023303 
C 125.471867 108.573239 124.861362 108.320359 124.224875 108.320359 
C 123.588388 108.320359 122.977883 108.573239 122.527819 109.023303 
C 122.077754 109.473368 121.824875 110.083872 121.824875 110.720359 
C 121.824875 111.356847 122.077754 111.967351 122.527819 112.417416 
C 122.977883 112.86748 123.588388 113.120359 124.224875 113.120359 
z
" style="fill:#55a868;stroke:#ffffff;stroke-width:0.384;"/>
    <path clip-path="url(#p3d77e38a2b)" d="M 157.966129 128.611313 
C 158.602616 128.611313 159.21312 128.358434 159.663185 127.908369 
C 160.11325 127.458305 160.366129 126.8478 160.366129 126.211313 
C 160.366129 125.574825 160.11325 124.964321 159.663185 124.514257 
C 159.21312 124.064192 158.602616 123.811313 157.966129 123.811313 
C 157.329641 123.811313 156.719137 124.064192 156.269073 124.514257 
C 155.819008 124.964321 155.566129 125.574825 155.566129 126.211313 
C 155.566129 126.8478 155.819008 127.458305 156.269073 127.908369 
C 156.719137 128.358434 157.329641 128.611313 157.966129 128.611313 
z
" style="fill:#55a868;stroke:#ffffff;stroke-width:0.384;"/>
    <path clip-path="url(#p3d77e38a2b)" d="M 124.224875 105.570464 
C 124.861362 105.570464 125.471867 105.317585 125.921931 104.86752 
C 126.371996 104.417456 126.624875 103.806952 126.624875 103.170464 
C 126.624875 102.533977 126.371996 101.923473 125.921931 101.473408 
C 125.471867 101.023343 124.861362 100.770464 124.224875 100.770464 
C 123.588388 100.770464 122.977883 101.023343 122.527819 101.473408 
C 122.077754 101.923473 121.824875 102.533977 121.824875 103.170464 
C 121.824875 103.806952 122.077754 104.417456 122.527819 104.86752 
C 122.977883 105.317585 123.588388 105.570464 124.224875 105.570464 
z
" style="fill:#c44e52;stroke:#ffffff;stroke-width:0.384;"/>
    <path clip-path="url(#p3d77e38a2b)" d="M 124.224875 116.760978 
C 124.861362 116.760978 125.471867 116.508098 125.921931 116.058034 
C 126.371996 115.607969 126.624875 114.997465 126.624875 114.360978 
C 126.624875 113.72449 126.371996 113.113986 125.921931 112.663921 
C 125.471867 112.213857 124.861362 111.960978 124.224875 111.960978 
C 123.588388 111.960978 122.977883 112.213857 122.527819 112.663921 
C 122.077754 113.113986 121.824875 113.72449 121.824875 114.360978 
C 121.824875 114.997465 122.077754 115.607969 122.527819 116.058034 
C 122.977883 116.508098 123.588388 116.760978 124.224875 116.760978 
z
" style="fill:#8172b3;stroke:#ffffff;stroke-width:0.384;"/>
    <path clip-path="url(#p3d77e38a2b)" d="M 157.966129 124.83327 
L 161.360241 121.439158 
L 157.966129 118.045045 
L 154.572016 121.439158 
z
" style="fill:#4c72b0;stroke:#ffffff;stroke-width:0.384;"/>
    <path clip-path="url(#p3d77e38a2b)" d="M 157.966129 102.541019 
L 161.360241 99.146906 
L 157.966129 95.752794 
L 154.572016 99.146906 
z
" style="fill:#4c72b0;stroke:#ffffff;stroke-width:0.384;"/>
    <path clip-path="url(#p3d77e38a2b)" d="M 157.966129 94.174983 
L 161.360241 90.78087 
L 157.966129 87.386758 
L 154.572016 90.78087 
z
" style="fill:#4c72b0;stroke:#ffffff;stroke-width:0.384;"/>
    <path clip-path="url(#p3d77e38a2b)" d="M 157.966129 122.956747 
L 161.360241 119.562635 
L 157.966129 116.168522 
L 154.572016 119.562635 
z
" style="fill:#4c72b0;stroke:#ffffff;stroke-width:0.384;"/>
    <path clip-path="url(#p3d77e38a2b)" d="M 157.966129 171.338616 
L 161.360241 167.944504 
L 157.966129 164.550391 
L 154.572016 167.944504 
z
" style="fill:#4c72b0;stroke:#ffffff;stroke-width:0.384;"/>
    <path clip-path="url(#p3d77e38a2b)" d="M 157.966129 137.53475 
L 161.360241 134.140638 
L 157.966129 130.746525 
L 154.572016 134.140638 
z
" style="fill:#4c72b0;stroke:#ffffff;stroke-width:0.384;"/>
    <path clip-path="url(#p3d77e38a2b)" d="M 157.966129 149.038056 
L 161.360241 145.643944 
L 157.966129 142.249831 
L 154.572016 145.643944 
z
" style="fill:#4c72b0;stroke:#ffffff;stroke-width:0.384;"/>
    <path clip-path="url(#p3d77e38a2b)" d="M 124.224875 121.92684 
L 127.618988 118.532728 
L 124.224875 115.138615 
L 120.830762 118.532728 
z
" style="fill:#4c72b0;stroke:#ffffff;stroke-width:0.384;"/>
    <path clip-path="url(#p3d77e38a2b)" d="M 191.707383 118.84537 
L 195.101495 115.451258 
L 191.707383 112.057145 
L 188.31327 115.451258 
z
" style="fill:#4c72b0;stroke:#ffffff;stroke-width:0.384;"/>
    <path clip-path="url(#p3d77e38a2b)" d="M 191.707383 93.634913 
L 195.101495 90.240801 
L 191.707383 86.846688 
L 188.31327 90.240801 
z
" style="fill:#4c72b0;stroke:#ffffff;stroke-width:0.384;"/>
    <path clip-path="url(#p3d77e38a2b)" d="M 124.224875 103.912593 
L 127.618988 100.51848 
L 124.224875 97.124368 
L 120.830762 100.51848 
z
" style="fill:#4c72b0;stroke:#ffffff;stroke-width:0.384;"/>
    <path clip-path="url(#p3d77e38a2b)" d="M 124.224875 93.411338 
L 127.618988 90.017225 
L 124.224875 86.623113 
L 120.830762 90.017225 
z
" style="fill:#4c72b0;stroke:#ffffff;stroke-width:0.384;"/>
    <path clip-path="url(#p3d77e38a2b)" d="M 124.224875 101.653406 
L 127.618988 98.259293 
L 124.224875 94.865181 
L 120.830762 98.259293 
z
" style="fill:#4c72b0;stroke:#ffffff;stroke-width:0.384;"/>
    <path clip-path="url(#p3d77e38a2b)" d="M 177.703497 170.796394 
C 178.339984 170.796394 178.950489 170.543515 179.400553 170.093451 
C 179.850618 169.643386 180.103497 169.032882 180.103497 168.396394 
C 180.103497 167.759907 179.850618 167.149403 179.400553 166.699338 
C 178.950489 166.249274 178.339984 165.996394 177.703497 165.996394 
C 177.06701 165.996394 176.456505 166.249274 176.006441 166.699338 
C 175.556376 167.149403 175.303497 167.759907 175.303497 168.396394 
C 175.303497 169.032882 175.556376 169.643386 176.006441 170.093451 
C 176.456505 170.543515 177.06701 170.796394 177.703497 170.796394 
z
" style="fill:#c44e52;stroke:#ffffff;stroke-width:0.384;"/>
   </g>
   <g id="PathCollection_2"/>
   <g id="PathCollection_3"/>
   <g id="PathCollection_4"/>
   <g id="PathCollection_5"/>
   <g id="PathCollection_6"/>
   <g id="patch_3">
    <path d="M 72.33 200.82 
L 72.33 13.149 
" style="fill:none;stroke:#262626;stroke-linecap:square;stroke-linejoin:miter;"/>
   </g>
   <g id="patch_4">
    <path d="M 232.74 200.82 
L 232.74 13.149 
" style="fill:none;stroke:#262626;stroke-linecap:square;stroke-linejoin:miter;"/>
   </g>
   <g id="patch_5">
    <path d="M 72.33 200.82 
L 232.74 200.82 
" style="fill:none;stroke:#262626;stroke-linecap:square;stroke-linejoin:miter;"/>
   </g>
   <g id="patch_6">
    <path d="M 72.33 13.149 
L 232.74 13.149 
" style="fill:none;stroke:#262626;stroke-linecap:square;stroke-linejoin:miter;"/>
   </g>
   <g id="legend_1">
    <g id="patch_7">
     <path d="M 242.5605 96.078688 
L 339.248 96.078688 
Q 341.048 96.078688 341.048 94.278688 
L 341.048 14.949 
Q 341.048 13.149 339.248 13.149 
L 242.5605 13.149 
Q 240.7605 13.149 240.7605 14.949 
L 240.7605 94.278688 
Q 240.7605 96.078688 242.5605 96.078688 
z
" style="fill:#ffffff;opacity:0.8;stroke:#cccccc;stroke-linejoin:miter;stroke-width:0.8;"/>
    </g>
    <g id="text_10">
     <!-- Mean Connectivity -->
     <g style="fill:#262626;" transform="translate(244.3605 24.347438)scale(0.1 -0.1)">
      <defs>
       <path d="M 628 4666 
L 1569 4666 
L 2759 1491 
L 3956 4666 
L 4897 4666 
L 4897 0 
L 4281 0 
L 4281 4097 
L 3078 897 
L 2444 897 
L 1241 4097 
L 1241 0 
L 628 0 
L 628 4666 
z
" id="DejaVuSans-4d" transform="scale(0.015625)"/>
       <path d="M 3597 1894 
L 3597 1613 
L 953 1613 
Q 991 1019 1311 708 
Q 1631 397 2203 397 
Q 2534 397 2845 478 
Q 3156 559 3463 722 
L 3463 178 
Q 3153 47 2828 -22 
Q 2503 -91 2169 -91 
Q 1331 -91 842 396 
Q 353 884 353 1716 
Q 353 2575 817 3079 
Q 1281 3584 2069 3584 
Q 2775 3584 3186 3129 
Q 3597 2675 3597 1894 
z
M 3022 2063 
Q 3016 2534 2758 2815 
Q 2500 3097 2075 3097 
Q 1594 3097 1305 2825 
Q 1016 2553 972 2059 
L 3022 2063 
z
" id="DejaVuSans-65" transform="scale(0.015625)"/>
       <path d="M 2194 1759 
Q 1497 1759 1228 1600 
Q 959 1441 959 1056 
Q 959 750 1161 570 
Q 1363 391 1709 391 
Q 2188 391 2477 730 
Q 2766 1069 2766 1631 
L 2766 1759 
L 2194 1759 
z
M 3341 1997 
L 3341 0 
L 2766 0 
L 2766 531 
Q 2569 213 2275 61 
Q 1981 -91 1556 -91 
Q 1019 -91 701 211 
Q 384 513 384 1019 
Q 384 1609 779 1909 
Q 1175 2209 1959 2209 
L 2766 2209 
L 2766 2266 
Q 2766 2663 2505 2880 
Q 2244 3097 1772 3097 
Q 1472 3097 1187 3025 
Q 903 2953 641 2809 
L 641 3341 
Q 956 3463 1253 3523 
Q 1550 3584 1831 3584 
Q 2591 3584 2966 3190 
Q 3341 2797 3341 1997 
z
" id="DejaVuSans-61" transform="scale(0.015625)"/>
       <path id="DejaVuSans-20" transform="scale(0.015625)"/>
       <path d="M 4122 4306 
L 4122 3641 
Q 3803 3938 3442 4084 
Q 3081 4231 2675 4231 
Q 1875 4231 1450 3742 
Q 1025 3253 1025 2328 
Q 1025 1406 1450 917 
Q 1875 428 2675 428 
Q 3081 428 3442 575 
Q 3803 722 4122 1019 
L 4122 359 
Q 3791 134 3420 21 
Q 3050 -91 2638 -91 
Q 1578 -91 968 557 
Q 359 1206 359 2328 
Q 359 3453 968 4101 
Q 1578 4750 2638 4750 
Q 3056 4750 3426 4639 
Q 3797 4528 4122 4306 
z
" id="DejaVuSans-43" transform="scale(0.015625)"/>
       <path d="M 3122 3366 
L 3122 2828 
Q 2878 2963 2633 3030 
Q 2388 3097 2138 3097 
Q 1578 3097 1268 2742 
Q 959 2388 959 1747 
Q 959 1106 1268 751 
Q 1578 397 2138 397 
Q 2388 397 2633 464 
Q 2878 531 3122 666 
L 3122 134 
Q 2881 22 2623 -34 
Q 2366 -91 2075 -91 
Q 1284 -91 818 406 
Q 353 903 353 1747 
Q 353 2603 823 3093 
Q 1294 3584 2113 3584 
Q 2378 3584 2631 3529 
Q 2884 3475 3122 3366 
z
" id="DejaVuSans-63" transform="scale(0.015625)"/>
       <path d="M 1172 4494 
L 1172 3500 
L 2356 3500 
L 2356 3053 
L 1172 3053 
L 1172 1153 
Q 1172 725 1289 603 
Q 1406 481 1766 481 
L 2356 481 
L 2356 0 
L 1766 0 
Q 1100 0 847 248 
Q 594 497 594 1153 
L 594 3053 
L 172 3053 
L 172 3500 
L 594 3500 
L 594 4494 
L 1172 4494 
z
" id="DejaVuSans-74" transform="scale(0.015625)"/>
       <path d="M 603 3500 
L 1178 3500 
L 1178 0 
L 603 0 
L 603 3500 
z
M 603 4863 
L 1178 4863 
L 1178 4134 
L 603 4134 
L 603 4863 
z
" id="DejaVuSans-69" transform="scale(0.015625)"/>
       <path d="M 191 3500 
L 800 3500 
L 1894 563 
L 2988 3500 
L 3597 3500 
L 2284 0 
L 1503 0 
L 191 3500 
z
" id="DejaVuSans-76" transform="scale(0.015625)"/>
       <path d="M 2059 -325 
Q 1816 -950 1584 -1140 
Q 1353 -1331 966 -1331 
L 506 -1331 
L 506 -850 
L 844 -850 
Q 1081 -850 1212 -737 
Q 1344 -625 1503 -206 
L 1606 56 
L 191 3500 
L 800 3500 
L 1894 763 
L 2988 3500 
L 3597 3500 
L 2059 -325 
z
" id="DejaVuSans-79" transform="scale(0.015625)"/>
      </defs>
      <use xlink:href="#DejaVuSans-4d"/>
      <use x="86.279297" xlink:href="#DejaVuSans-65"/>
      <use x="147.802734" xlink:href="#DejaVuSans-61"/>
      <use x="209.082031" xlink:href="#DejaVuSans-6e"/>
      <use x="272.460938" xlink:href="#DejaVuSans-20"/>
      <use x="304.248047" xlink:href="#DejaVuSans-43"/>
      <use x="374.072266" xlink:href="#DejaVuSans-6f"/>
      <use x="435.253906" xlink:href="#DejaVuSans-6e"/>
      <use x="498.632812" xlink:href="#DejaVuSans-6e"/>
      <use x="562.011719" xlink:href="#DejaVuSans-65"/>
      <use x="623.535156" xlink:href="#DejaVuSans-63"/>
      <use x="678.515625" xlink:href="#DejaVuSans-74"/>
      <use x="717.724609" xlink:href="#DejaVuSans-69"/>
      <use x="745.507812" xlink:href="#DejaVuSans-76"/>
      <use x="804.6875" xlink:href="#DejaVuSans-69"/>
      <use x="832.470703" xlink:href="#DejaVuSans-74"/>
      <use x="871.679688" xlink:href="#DejaVuSans-79"/>
     </g>
    </g>
    <g id="PathCollection_7">
     <defs>
      <path d="M -0.8 2.4 
L 0.8 2.4 
L 0.8 0.8 
L 2.4 0.8 
L 2.4 -0.8 
L 0.8 -0.8 
L 0.8 -2.4 
L -0.8 -2.4 
L -0.8 -0.8 
L -2.4 -0.8 
L -2.4 0.8 
L -0.8 0.8 
z
" id="m69d848e0e8" style="stroke:#4c72b0;stroke-width:0.8;"/>
     </defs>
     <g>
      <use style="fill:#4c72b0;stroke:#4c72b0;stroke-width:0.8;" x="261.252766" xlink:href="#m69d848e0e8" y="35.403219"/>
     </g>
    </g>
    <g id="text_11">
     <!-- 5N &amp; E:2N -->
     <g style="fill:#262626;" transform="translate(277.452766 37.765719)scale(0.09 -0.09)">
      <defs>
       <path d="M 628 4666 
L 1478 4666 
L 3547 763 
L 3547 4666 
L 4159 4666 
L 4159 0 
L 3309 0 
L 1241 3903 
L 1241 0 
L 628 0 
L 628 4666 
z
" id="DejaVuSans-4e" transform="scale(0.015625)"/>
       <path d="M 1556 2509 
Q 1272 2256 1139 2004 
Q 1006 1753 1006 1478 
Q 1006 1022 1337 719 
Q 1669 416 2169 416 
Q 2466 416 2725 514 
Q 2984 613 3213 813 
L 1556 2509 
z
M 1997 2859 
L 3584 1234 
Q 3769 1513 3872 1830 
Q 3975 2147 3994 2503 
L 4575 2503 
Q 4538 2091 4375 1687 
Q 4213 1284 3922 891 
L 4794 0 
L 4006 0 
L 3559 459 
Q 3234 181 2878 45 
Q 2522 -91 2113 -91 
Q 1359 -91 881 339 
Q 403 769 403 1441 
Q 403 1841 612 2192 
Q 822 2544 1241 2853 
Q 1091 3050 1012 3245 
Q 934 3441 934 3628 
Q 934 4134 1281 4442 
Q 1628 4750 2203 4750 
Q 2463 4750 2720 4694 
Q 2978 4638 3244 4525 
L 3244 3956 
Q 2972 4103 2725 4179 
Q 2478 4256 2266 4256 
Q 1938 4256 1733 4082 
Q 1528 3909 1528 3634 
Q 1528 3475 1620 3314 
Q 1713 3153 1997 2859 
z
" id="DejaVuSans-26" transform="scale(0.015625)"/>
       <path d="M 628 4666 
L 3578 4666 
L 3578 4134 
L 1259 4134 
L 1259 2753 
L 3481 2753 
L 3481 2222 
L 1259 2222 
L 1259 531 
L 3634 531 
L 3634 0 
L 628 0 
L 628 4666 
z
" id="DejaVuSans-45" transform="scale(0.015625)"/>
       <path d="M 750 794 
L 1409 794 
L 1409 0 
L 750 0 
L 750 794 
z
M 750 3309 
L 1409 3309 
L 1409 2516 
L 750 2516 
L 750 3309 
z
" id="DejaVuSans-3a" transform="scale(0.015625)"/>
      </defs>
      <use xlink:href="#DejaVuSans-35"/>
      <use x="63.623047" xlink:href="#DejaVuSans-4e"/>
      <use x="138.427734" xlink:href="#DejaVuSans-20"/>
      <use x="170.214844" xlink:href="#DejaVuSans-26"/>
      <use x="248.193359" xlink:href="#DejaVuSans-20"/>
      <use x="279.980469" xlink:href="#DejaVuSans-45"/>
      <use x="343.164062" xlink:href="#DejaVuSans-3a"/>
      <use x="376.855469" xlink:href="#DejaVuSans-32"/>
      <use x="440.478516" xlink:href="#DejaVuSans-4e"/>
     </g>
    </g>
    <g id="PathCollection_8">
     <defs>
      <path d="M -0 3.394113 
L 3.394113 0 
L 0 -3.394113 
L -3.394113 -0 
z
" id="m2c2f3828a8" style="stroke:#4c72b0;stroke-width:0.8;"/>
     </defs>
     <g>
      <use style="fill:#4c72b0;stroke:#4c72b0;stroke-width:0.8;" x="261.252766" xlink:href="#m2c2f3828a8" y="48.613531"/>
     </g>
    </g>
    <g id="text_12">
     <!-- 20N &amp; E:2N -->
     <g style="fill:#262626;" transform="translate(277.452766 50.976031)scale(0.09 -0.09)">
      <use xlink:href="#DejaVuSans-32"/>
      <use x="63.623047" xlink:href="#DejaVuSans-30"/>
      <use x="127.246094" xlink:href="#DejaVuSans-4e"/>
      <use x="202.050781" xlink:href="#DejaVuSans-20"/>
      <use x="233.837891" xlink:href="#DejaVuSans-26"/>
      <use x="311.816406" xlink:href="#DejaVuSans-20"/>
      <use x="343.603516" xlink:href="#DejaVuSans-45"/>
      <use x="406.787109" xlink:href="#DejaVuSans-3a"/>
      <use x="440.478516" xlink:href="#DejaVuSans-32"/>
      <use x="504.101562" xlink:href="#DejaVuSans-4e"/>
     </g>
    </g>
    <g id="PathCollection_9">
     <defs>
      <path d="M 0 2.4 
C 0.636487 2.4 1.246992 2.147121 1.697056 1.697056 
C 2.147121 1.246992 2.4 0.636487 2.4 0 
C 2.4 -0.636487 2.147121 -1.246992 1.697056 -1.697056 
C 1.246992 -2.147121 0.636487 -2.4 0 -2.4 
C -0.636487 -2.4 -1.246992 -2.147121 -1.697056 -1.697056 
C -2.147121 -1.246992 -2.4 -0.636487 -2.4 0 
C -2.4 0.636487 -2.147121 1.246992 -1.697056 1.697056 
C -1.246992 2.147121 -0.636487 2.4 0 2.4 
z
" id="m1ab5d3289a" style="stroke:#55a868;stroke-width:0.8;"/>
     </defs>
     <g>
      <use style="fill:#55a868;stroke:#55a868;stroke-width:0.8;" x="261.252766" xlink:href="#m1ab5d3289a" y="61.823844"/>
     </g>
    </g>
    <g id="text_13">
     <!-- E:2N -->
     <g style="fill:#262626;" transform="translate(277.452766 64.186344)scale(0.09 -0.09)">
      <use xlink:href="#DejaVuSans-45"/>
      <use x="63.183594" xlink:href="#DejaVuSans-3a"/>
      <use x="96.875" xlink:href="#DejaVuSans-32"/>
      <use x="160.498047" xlink:href="#DejaVuSans-4e"/>
     </g>
    </g>
    <g id="PathCollection_10">
     <defs>
      <path d="M 0 2.4 
C 0.636487 2.4 1.246992 2.147121 1.697056 1.697056 
C 2.147121 1.246992 2.4 0.636487 2.4 0 
C 2.4 -0.636487 2.147121 -1.246992 1.697056 -1.697056 
C 1.246992 -2.147121 0.636487 -2.4 0 -2.4 
C -0.636487 -2.4 -1.246992 -2.147121 -1.697056 -1.697056 
C -2.147121 -1.246992 -2.4 -0.636487 -2.4 0 
C -2.4 0.636487 -2.147121 1.246992 -1.697056 1.697056 
C -1.246992 2.147121 -0.636487 2.4 0 2.4 
z
" id="m6d65d8a4d0" style="stroke:#c44e52;stroke-width:0.8;"/>
     </defs>
     <g>
      <use style="fill:#c44e52;stroke:#c44e52;stroke-width:0.8;" x="261.252766" xlink:href="#m6d65d8a4d0" y="75.034156"/>
     </g>
    </g>
    <g id="text_14">
     <!-- E:4N -->
     <g style="fill:#262626;" transform="translate(277.452766 77.396656)scale(0.09 -0.09)">
      <defs>
       <path d="M 2419 4116 
L 825 1625 
L 2419 1625 
L 2419 4116 
z
M 2253 4666 
L 3047 4666 
L 3047 1625 
L 3713 1625 
L 3713 1100 
L 3047 1100 
L 3047 0 
L 2419 0 
L 2419 1100 
L 313 1100 
L 313 1709 
L 2253 4666 
z
" id="DejaVuSans-34" transform="scale(0.015625)"/>
      </defs>
      <use xlink:href="#DejaVuSans-45"/>
      <use x="63.183594" xlink:href="#DejaVuSans-3a"/>
      <use x="96.875" xlink:href="#DejaVuSans-34"/>
      <use x="160.498047" xlink:href="#DejaVuSans-4e"/>
     </g>
    </g>
    <g id="PathCollection_11">
     <defs>
      <path d="M 0 2.4 
C 0.636487 2.4 1.246992 2.147121 1.697056 1.697056 
C 2.147121 1.246992 2.4 0.636487 2.4 0 
C 2.4 -0.636487 2.147121 -1.246992 1.697056 -1.697056 
C 1.246992 -2.147121 0.636487 -2.4 0 -2.4 
C -0.636487 -2.4 -1.246992 -2.147121 -1.697056 -1.697056 
C -2.147121 -1.246992 -2.4 -0.636487 -2.4 0 
C -2.4 0.636487 -2.147121 1.246992 -1.697056 1.697056 
C -1.246992 2.147121 -0.636487 2.4 0 2.4 
z
" id="m8d6b7f501d" style="stroke:#8172b3;stroke-width:0.8;"/>
     </defs>
     <g>
      <use style="fill:#8172b3;stroke:#8172b3;stroke-width:0.8;" x="261.252766" xlink:href="#m8d6b7f501d" y="88.244469"/>
     </g>
    </g>
    <g id="text_15">
     <!-- E:6N -->
     <g style="fill:#262626;" transform="translate(277.452766 90.606969)scale(0.09 -0.09)">
      <defs>
       <path d="M 2113 2584 
Q 1688 2584 1439 2293 
Q 1191 2003 1191 1497 
Q 1191 994 1439 701 
Q 1688 409 2113 409 
Q 2538 409 2786 701 
Q 3034 994 3034 1497 
Q 3034 2003 2786 2293 
Q 2538 2584 2113 2584 
z
M 3366 4563 
L 3366 3988 
Q 3128 4100 2886 4159 
Q 2644 4219 2406 4219 
Q 1781 4219 1451 3797 
Q 1122 3375 1075 2522 
Q 1259 2794 1537 2939 
Q 1816 3084 2150 3084 
Q 2853 3084 3261 2657 
Q 3669 2231 3669 1497 
Q 3669 778 3244 343 
Q 2819 -91 2113 -91 
Q 1303 -91 875 529 
Q 447 1150 447 2328 
Q 447 3434 972 4092 
Q 1497 4750 2381 4750 
Q 2619 4750 2861 4703 
Q 3103 4656 3366 4563 
z
" id="DejaVuSans-36" transform="scale(0.015625)"/>
      </defs>
      <use xlink:href="#DejaVuSans-45"/>
      <use x="63.183594" xlink:href="#DejaVuSans-3a"/>
      <use x="96.875" xlink:href="#DejaVuSans-36"/>
      <use x="160.498047" xlink:href="#DejaVuSans-4e"/>
     </g>
    </g>
   </g>
  </g>
 </g>
 <defs>
  <clipPath id="p3d77e38a2b">
   <rect height="187.671" width="160.41" x="72.33" y="13.149"/>
  </clipPath>
 </defs>
</svg>
